{
.appVersion = "1342";
classes = (
{
automatic = 1;

glyphs = (
{
glyphname = A;
layers = (
{
anchors = (
{
name = bottom;
position = "{288, 0}";
},
{
name = ogonek;
position = "{534, 0}";
},
{
name = top;
position = "{293, 648}";
}
);
background = {
paths = (
{
closed = 1;
nodes = (
"156 189 LINE",
"405 189 LINE",
"462 37 LINE",
"548 38 LINE",
"309 652 LINE",
"271 652 LINE",
"42 38 LINE",
"106 37 LINE"
);
},
{
closed = 1;
nodes = (
"190 0 LINE",
"190 41 LINE",
"74 59 LINE",
"-11 41 LINE",
"-11 0 LINE"
);
},
{
closed = 1;
nodes = (
"604 0 LINE",
"604 41 LINE",
"508 60 LINE",
"383 41 LINE",
"383 0 LINE"
);
},
{
closed = 1;
nodes = (
"270 505 LINE",
"275 527 LINE",
"278 527 LINE",
"282 507 LINE",
"386 240 LINE",
"174 240 LINE"
);
}
);
};
layerId = "4c090d2b-0954-42f9-b8fa-9b61004e66c3";
paths = (
{
closed = 1;
nodes = (
"190 0 LINE",
"190 41 LINE",
"111 53 LINE",
"156 189 LINE",
"413 189 LINE",
"465 53 LINE",
"383 41 LINE",
"383 0 LINE",
"604 0 LINE",
"604 41 LINE",
"542 53 LINE",
"309 652 LINE",
"271 652 LINE",
"48 53 LINE",
"-11 41 LINE",
"-11 0 LINE"
);
},
{
closed = 1;
nodes = (
"267 497 LINE",
"278 537 LINE",
"283 537 LINE",
"295 497 LINE",
"393 240 LINE",
"174 240 LINE"
);
}
);
width = 596;
},
{
anchors = (
{
name = bottom;
position = "{306, 0}";
},
{
name = ogonek;
position = "{612, 0}";
},
{
name = top;
position = "{327, 648}";
}
);
layerId = "5be9d440-7da3-4849-9ff3-c66a194b28b9";
paths = (
{
closed = 1;
nodes = (
"264 0 LINE",
"264 60 LINE",
"174 76 LINE",
"209 178 LINE",
"409 178 LINE",
"442 75 LINE",
"353 60 LINE",
"353 0 LINE",
"683 0 LINE",
"683 60 LINE",
"612 78 LINE",
"402 656 LINE",
"258 656 LINE",
"57 74 LINE",
"-8 60 LINE",
"-8 0 LINE"
);
},
{
closed = 1;
nodes = (
"300 463 LINE",
"308 505 LINE",
"316 505 LINE",
"323 463 LINE",
"381 266 LINE",
"239 266 LINE"
);
}
);
width = 668;
}
);
leftKerningGroup = A;
rightKerningGroup = A;
unicode = 0041;
},
{
glyphname = AE;
layers = (
{
anchors = (
{
name = top;
position = "{444, 648}";
}
);
layerId = "4c090d2b-0954-42f9-b8fa-9b61004e66c3";
paths = (
{
closed = 1;
nodes = (
"189 0 LINE",
"189 36 LINE",
"116 53 LINE",
"114 71 LINE",
"212 275 LINE",
"384 275 LINE",
"402 56 LINE",
"318 40 LINE",
"317 0 LINE",
"751 0 LINE",
"756 155 LINE",
"711 155 LINE",
"687 52 LINE",
"597 52 LINE SMOOTH",
"553 52 OFFCURVE",
"503 57 OFFCURVE",
"479 65 CURVE",
"459 274 LINE",
"608 274 LINE",
"622 232 LINE",
"661 232 LINE",
"666 370 LINE",
"627 370 LINE",
"610 326 LINE",
"454 326 LINE",
"433 593 LINE",
"540 598 LINE",
"627 598 LINE",
"644 490 LINE",
"689 490 LINE",
"693 648 LINE",
"333 648 LINE",
"40 33 LINE",
"72 59 LINE",
"-10 40 LINE",
"-10 0 LINE"
);
},
{
closed = 1;
nodes = (
"358 588 LINE",
"379 326 LINE",
"240 326 LINE"
);
}
);
width = 770;
},
{
anchors = (
{
name = top;
position = "{551, 648}";
}
);
layerId = "5be9d440-7da3-4849-9ff3-c66a194b28b9";
paths = (
{
closed = 1;
nodes = (
"268 0 LINE",
"268 69 LINE",
"190 78 LINE",
"202 98 LINE",
"265 248 LINE",
"429 248 LINE",
"444 80 LINE",
"368 60 LINE",
"374 0 LINE",
"886 0 LINE",
"861 208 LINE",
"792 208 LINE",
"777 82 LINE",
"626 82 LINE SMOOTH",
"620 82 OFFCURVE",
"615 81 OFFCURVE",
"604 79 CURVE",
"589 254 LINE",
"664 254 LINE",
"697 168 LINE",
"754 168 LINE",
"727 412 LINE",
"670 412 LINE",
"655 336 LINE",
"581 336 LINE",
"561 558 LINE",
"587 565 LINE",
"717 565 LINE",
"759 452 LINE",
"831 452 LINE",
"810 648 LINE",
"339 648 LINE",
"66 60 LINE",
"97 83 LINE",
"-2 61 LINE",
"-2 0 LINE"
);
},
{
closed = 1;
nodes = (
"400 559 LINE",
"421 336 LINE",
"302 336 LINE"
);
}
);
width = 912;
}
);
leftKerningGroup = AE;
rightKerningGroup = E;
unicode = 00C6;
},
{
glyphname = B;
layers = (
{
anchors = (
{
name = bottom;
position = "{290, 0}";
},
{
name = top;
position = "{290, 648}";
}
);
layerId = "4c090d2b-0954-42f9-b8fa-9b61004e66c3";
paths = (
{
closed = 1;
nodes = (
"325 0 LINE SMOOTH",
"467 0 OFFCURVE",
"544 69 OFFCURVE",
"544 178 CURVE SMOOTH",
"544 261 OFFCURVE",
"478 327 OFFCURVE",
"395 345 CURVE",
"467 370 OFFCURVE",
"508 421 OFFCURVE",
"508 492 CURVE SMOOTH",
"508 586 OFFCURVE",
"431 648 OFFCURVE",
"314 648 CURVE SMOOTH",
"60 648 LINE",
"60 608 LINE",
"144 592 LINE",
"144 56 LINE",
"60 40 LINE",
"60 0 LINE"
);
},
{
closed = 1;
nodes = (
"281 50 OFFCURVE",
"238 53 OFFCURVE",
"215 57 CURVE",
"215 305 LINE",
"292 305 LINE SMOOTH",
"408 305 OFFCURVE",
"459 268 OFFCURVE",
"459 180 CURVE SMOOTH",
"459 96 OFFCURVE",
"405 50 OFFCURVE",
"319 50 CURVE"
);
},
{
closed = 1;
nodes = (
"215 591 LINE",
"240 595 OFFCURVE",
"271 597 OFFCURVE",
"293 597 CURVE SMOOTH",
"384 597 OFFCURVE",
"432 564 OFFCURVE",
"432 497 CURVE SMOOTH",
"432 403 OFFCURVE",
"377 354 OFFCURVE",
"271 354 CURVE SMOOTH",
"215 354 LINE"
);
}
);
width = 585;
},
{
anchors = (
{
name = bottom;
position = "{326, 0}";
},
{
name = top;
position = "{326, 648}";
}
);
layerId = "5be9d440-7da3-4849-9ff3-c66a194b28b9";
paths = (
{
closed = 1;
nodes = (
"369 0 LINE SMOOTH",
"522 0 OFFCURVE",
"611 69 OFFCURVE",
"611 197 CURVE SMOOTH",
"611 265 OFFCURVE",
"568 319 OFFCURVE",
"490 344 CURVE",
"564 380 OFFCURVE",
"590 434 OFFCURVE",
"590 477 CURVE SMOOTH",
"590 597 OFFCURVE",
"506 648 OFFCURVE",
"309 648 CURVE SMOOTH",
"28 648 LINE",
"28 588 LINE",
"107 568 LINE",
"107 80 LINE",
"28 60 LINE",
"28 0 LINE"
);
},
{
closed = 1;
nodes = (
"280 83 OFFCURVE",
"274 83 OFFCURVE",
"268 83 CURVE",
"268 287 LINE",
"313 287 LINE SMOOTH",
"412 287 OFFCURVE",
"441 255 OFFCURVE",
"441 188 CURVE SMOOTH",
"441 112 OFFCURVE",
"399 83 OFFCURVE",
"286 83 CURVE"
);
},
{
closed = 1;
nodes = (
"268 562 LINE",
"279 564 OFFCURVE",
"300 566 OFFCURVE",
"317 566 CURVE SMOOTH",
"385 566 OFFCURVE",
"420 533 OFFCURVE",
"420 466 CURVE SMOOTH",
"420 406 OFFCURVE",
"392 370 OFFCURVE",
"317 370 CURVE SMOOTH",
"268 370 LINE"
);
}
);
width = 651;
}
);
leftKerningGroup = H;
leftMetricsKey = H;
rightKerningGroup = B;
unicode = 0042;
},
{
glyphname = C;
layers = (
{
anchors = (
{
name = bottom;
position = "{339, 0}";
},
{
name = top;
position = "{355, 648}";
}
);
layerId = "4c090d2b-0954-42f9-b8fa-9b61004e66c3";
paths = (
{
closed = 1;
nodes = (
"462 -9 OFFCURVE",
"517 16 OFFCURVE",
"556 33 CURVE",
"556 178 LINE",
"513 178 LINE",
"494 80 LINE",
"479 69 OFFCURVE",
"441 40 OFFCURVE",
"351 40 CURVE SMOOTH",
"208 40 OFFCURVE",
"133 135 OFFCURVE",
"133 315 CURVE SMOOTH",
"133 505 OFFCURVE",
"206 605 OFFCURVE",
"351 605 CURVE SMOOTH",
"400 605 OFFCURVE",
"455 598 OFFCURVE",
"488 589 CURVE",
"509 478 LINE",
"552 478 LINE",
"552 629 LINE",
"505 649 OFFCURVE",
"436 658 OFFCURVE",
"365 658 CURVE SMOOTH",
"163 658 OFFCURVE",
"49 493 OFFCURVE",
"49 316 CURVE SMOOTH",
"49 104 OFFCURVE",
"141 -9 OFFCURVE",
"342 -9 CURVE SMOOTH"
);
}
);
width = 615;
},
{
anchors = (
{
name = bottom;
position = "{345, 0}";
},
{
name = top;
position = "{359, 648}";
}
);
layerId = "5be9d440-7da3-4849-9ff3-c66a194b28b9";
paths = (
{
closed = 1;
nodes = (
"453 -20 OFFCURVE",
"530 8 OFFCURVE",
"569 25 CURVE",
"569 215 LINE",
"487 215 LINE",
"463 89 LINE",
"433 76 OFFCURVE",
"396 71 OFFCURVE",
"364 71 CURVE SMOOTH",
"277 71 OFFCURVE",
"216 100 OFFCURVE",
"216 318 CURVE SMOOTH",
"216 512 OFFCURVE",
"254 576 OFFCURVE",
"364 576 CURVE SMOOTH",
"399 576 OFFCURVE",
"431 567 OFFCURVE",
"460 557 CURVE",
"481 454 LINE",
"565 454 LINE",
"565 642 LINE",
"524 652 OFFCURVE",
"447 668 OFFCURVE",
"359 668 CURVE SMOOTH",
"168 668 OFFCURVE",
"32 523 OFFCURVE",
"32 316 CURVE SMOOTH",
"32 104 OFFCURVE",
"132 -20 OFFCURVE",
"333 -20 CURVE SMOOTH"
);
}
);
width = 604;
}
);
leftKerningGroup = O;
leftMetricsKey = O;
rightKerningGroup = C;
unicode = 0043;
},
{
glyphname = Ccedilla;
layers = (
{
background = {
paths = (
{
closed = 1;
nodes = (
"385 -185 OFFCURVE",
"453 -167 OFFCURVE",
"453 -94 CURVE SMOOTH",
"453 -50 OFFCURVE",
"417 -41 OFFCURVE",
"380 -32 CURVE",
"364 -29 LINE",
"364 -9 LINE",
"468 -5 OFFCURVE",
"519 17 OFFCURVE",
"555 33 CURVE",
"555 178 LINE",
"512 178 LINE",
"493 80 LINE",
"499 83 OFFCURVE",
"460 40 OFFCURVE",
"350 40 CURVE SMOOTH",
"212 40 OFFCURVE",
"132 168 OFFCURVE",
"132 319 CURVE SMOOTH",
"132 516 OFFCURVE",
"192 605 OFFCURVE",
"345 605 CURVE SMOOTH",
"432 605 OFFCURVE",
"493 587 OFFCURVE",
"487 589 CURVE",
"508 478 LINE",
"551 478 LINE",
"551 629 LINE",
"504 649 OFFCURVE",
"442 658 OFFCURVE",
"354 658 CURVE SMOOTH",
"163 658 OFFCURVE",
"48 493 OFFCURVE",
"48 316 CURVE SMOOTH",
"48 111 OFFCURVE",
"134 -2 OFFCURVE",
"321 -8 CURVE",
"301 -58 LINE",
"319 -76 LINE",
"358 -84 LINE SMOOTH",
"379 -88 OFFCURVE",
"391 -91 OFFCURVE",
"391 -115 CURVE SMOOTH",
"391 -134 OFFCURVE",
"370 -146 OFFCURVE",
"326 -146 CURVE SMOOTH",
"303 -146 OFFCURVE",
"287 -141 OFFCURVE",
"274 -136 CURVE",
"259 -170 LINE",
"282 -179 OFFCURVE",
"301 -185 OFFCURVE",
"330 -185 CURVE SMOOTH"
);
}
);
};
components = (
{
name = C;
},
{
name = cedillacomb.case;
transform = "{1, 0, 0, 1, 252, 0}";
}
);
layerId = "4c090d2b-0954-42f9-b8fa-9b61004e66c3";
width = 615;
},
{
background = {
paths = (
{
closed = 1;
nodes = (
"423 -196 OFFCURVE",
"458 -162 OFFCURVE",
"458 -107 CURVE SMOOTH",
"458 -60 OFFCURVE",
"433 -46 OFFCURVE",
"391 -36 CURVE SMOOTH",
"369 -30 LINE",
"369 -19 LINE",
"467 -15 OFFCURVE",
"530 9 OFFCURVE",
"565 25 CURVE",
"565 215 LINE",
"487 215 LINE",
"463 90 LINE",
"433 77 OFFCURVE",
"396 72 OFFCURVE",
"364 72 CURVE SMOOTH",
"263 72 OFFCURVE",
"216 94 OFFCURVE",
"216 319 CURVE SMOOTH",
"216 516 OFFCURVE",
"252 576 OFFCURVE",
"364 576 CURVE SMOOTH",
"399 576 OFFCURVE",
"431 567 OFFCURVE",
"460 557 CURVE",
"481 454 LINE",
"561 454 LINE",
"561 642 LINE",
"527 649 OFFCURVE",
"447 668 OFFCURVE",
"359 668 CURVE SMOOTH",
"168 668 OFFCURVE",
"32 523 OFFCURVE",
"32 316 CURVE SMOOTH",
"32 112 OFFCURVE",
"124 -10 OFFCURVE",
"308 -19 CURVE",
"287 -66 LINE",
"311 -90 LINE",
"338 -95 LINE SMOOTH",
"352 -98 OFFCURVE",
"358 -105 OFFCURVE",
"358 -116 CURVE SMOOTH",
"358 -138 OFFCURVE",
"345 -140 OFFCURVE",
"331 -140 CURVE SMOOTH",
"309 -140 OFFCURVE",
"293 -137 OFFCURVE",
"268 -126 CURVE",
"246 -176 LINE",
"272 -190 OFFCURVE",
"295 -196 OFFCURVE",
"334 -196 CURVE SMOOTH"
);
}
);
};
components = (
{
name = C;
},
{
name = cedillacomb.case;
transform = "{1, 0, 0, 1, 255, 0}";
}
);
layerId = "5be9d440-7da3-4849-9ff3-c66a194b28b9";
width = 604;
}
);
leftKerningGroup = O;
rightKerningGroup = C;
unicode = 00C7;
},
{
glyphname = D;
layers = (
{
anchors = (
{
name = bottom;
position = "{351, 0}";
},
{
name = center;
position = "{235, 334}";
},
{
name = top;
position = "{351, 648}";
}
);
layerId = "4c090d2b-0954-42f9-b8fa-9b61004e66c3";
paths = (
{
closed = 1;
nodes = (
"299 0 LINE SMOOTH",
"535 0 OFFCURVE",
"653 114 OFFCURVE",
"653 342 CURVE SMOOTH",
"653 542 OFFCURVE",
"536 648 OFFCURVE",
"352 648 CURVE SMOOTH",
"60 648 LINE",
"60 608 LINE",
"144 591 LINE",
"144 56 LINE",
"60 40 LINE",
"60 0 LINE"
);
},
{
closed = 1;
nodes = (
"286 46 OFFCURVE",
"237 51 OFFCURVE",
"215 58 CURVE",
"215 586 LINE",
"244 592 OFFCURVE",
"279 595 OFFCURVE",
"323 595 CURVE SMOOTH",
"498 595 OFFCURVE",
"568 502 OFFCURVE",
"568 335 CURVE SMOOTH",
"568 135 OFFCURVE",
"490 46 OFFCURVE",
"327 46 CURVE SMOOTH"
);
}
);
width = 699;
},
{
anchors = (
{
name = bottom;
position = "{357, 0}";
},
{
name = center;
position = "{207, 334}";
},
{
name = top;
position = "{347, 648}";
}
);
layerId = "5be9d440-7da3-4849-9ff3-c66a194b28b9";
paths = (
{
closed = 1;
nodes = (
"349 0 LINE SMOOTH",
"547 0 OFFCURVE",
"683 136 OFFCURVE",
"683 329 CURVE SMOOTH",
"683 546 OFFCURVE",
"560 648 OFFCURVE",
"337 648 CURVE SMOOTH",
"28 648 LINE",
"28 588 LINE",
"107 568 LINE",
"107 80 LINE",
"28 60 LINE",
"28 0 LINE"
);
},
{
closed = 1;
nodes = (
"282 85 OFFCURVE",
"275 85 OFFCURVE",
"268 85 CURVE",
"268 566 LINE",
"280 566 OFFCURVE",
"293 566 OFFCURVE",
"305 566 CURVE SMOOTH",
"396 566 OFFCURVE",
"499 557 OFFCURVE",
"499 345 CURVE SMOOTH",
"499 131 OFFCURVE",
"462 85 OFFCURVE",
"289 85 CURVE SMOOTH"
);
}
);
width = 715;
}
);
leftKerningGroup = H;
leftMetricsKey = H;
rightKerningGroup = O;
rightMetricsKey = O;
unicode = 0044;
},
{
glyphname = E;
layers = (
{
anchors = (
{
name = bottom;
position = "{314, 0}";
},
{
name = ogonek;
position = "{474, 0}";
},
{
name = top;
position = "{312, 648}";
}
);
layerId = "4c090d2b-0954-42f9-b8fa-9b61004e66c3";
paths = (
{
closed = 1;
nodes = (
"517 0 LINE",
"517 155 LINE",
"472 155 LINE",
"452 52 LINE",
"338 52 LINE SMOOTH",
"295 52 OFFCURVE",
"243 57 OFFCURVE",
"215 65 CURVE",
"215 309 LINE",
"388 309 LINE",
"401 254 LINE",
"440 254 LINE",
"440 412 LINE",
"401 412 LINE",
"388 356 LINE",
"215 356 LINE",
"215 593 LINE",
"327 598 LINE",
"444 598 LINE",
"464 490 LINE",
"508 490 LINE",
"508 648 LINE",
"60 648 LINE",
"60 608 LINE",
"144 592 LINE",
"144 56 LINE",
"60 40 LINE",
"60 0 LINE"
);
}
);
width = 570;
},
{
anchors = (
{
name = bottom;
position = "{313, 0}";
},
{
name = ogonek;
position = "{510, 0}";
},
{
name = top;
position = "{318, 648}";
}
);
layerId = "5be9d440-7da3-4849-9ff3-c66a194b28b9";
paths = (
{
closed = 1;
nodes = (
"547 0 LINE",
"547 208 LINE",
"476 208 LINE",
"448 82 LINE",
"316 82 LINE SMOOTH",
"297 82 OFFCURVE",
"287 82 OFFCURVE",
"268 84 CURVE",
"268 285 LINE",
"351 285 LINE",
"376 203 LINE",
"432 203 LINE",
"432 441 LINE",
"376 441 LINE",
"351 369 LINE",
"268 369 LINE",
"268 558 LINE",
"299 565 LINE",
"438 565 LINE",
"464 452 LINE",
"538 452 LINE",
"538 648 LINE",
"28 648 LINE",
"28 588 LINE",
"107 568 LINE",
"107 80 LINE",
"28 60 LINE",
"28 0 LINE"
);
}
);
width = 584;
}
);
leftKerningGroup = H;
leftMetricsKey = H;
rightKerningGroup = E;
unicode = 0045;
},
{
glyphname = F;
layers = (
{
anchors = (
{
name = bottom;
position = "{180, 0}";
},
{
name = top;
position = "{320, 648}";
}
);
layerId = "4c090d2b-0954-42f9-b8fa-9b61004e66c3";
paths = (
{
closed = 1;
nodes = (
"338 0 LINE",
"338 47 LINE",
"215 60 LINE",
"215 288 LINE",
"395 288 LINE",
"407 234 LINE",
"446 234 LINE",
"446 393 LINE",
"407 393 LINE",
"395 335 LINE",
"215 335 LINE",
"215 593 LINE",
"327 598 LINE",
"450 598 LINE",
"470 490 LINE",
"516 490 LINE",
"516 648 LINE",
"60 648 LINE",
"60 608 LINE",
"144 592 LINE",
"144 56 LINE",
"60 40 LINE",
"60 0 LINE"
);
}
);
width = 512;
},
{
anchors = (
{
name = bottom;
position = "{188, 0}";
},
{
name = top;
position = "{315, 648}";
}
);
layerId = "5be9d440-7da3-4849-9ff3-c66a194b28b9";
paths = (
{
closed = 1;
nodes = (
"337 0 LINE",
"337 58 LINE",
"268 79 LINE",
"268 270 LINE",
"371 270 LINE",
"396 187 LINE",
"452 187 LINE",
"452 425 LINE",
"396 425 LINE",
"371 353 LINE",
"268 353 LINE",
"268 558 LINE",
"299 565 LINE",
"423 565 LINE",
"450 452 LINE",
"524 452 LINE",
"524 648 LINE",
"28 648 LINE",
"28 588 LINE",
"107 568 LINE",
"107 80 LINE",
"28 60 LINE",
"28 0 LINE"
);
}
);
width = 544;
}
);
leftKerningGroup = H;
leftMetricsKey = H;
rightKerningGroup = F;
unicode = 0046;
},
{
glyphname = G;
layers = (
{
anchors = (
{
name = bottom;
position = "{346, 0}";
},
{
name = top;
position = "{340, 648}";
}
);
layerId = "4c090d2b-0954-42f9-b8fa-9b61004e66c3";
paths = (
{
closed = 1;
nodes = (
"434 -9 OFFCURVE",
"476 13 OFFCURVE",
"497 27 CURVE",
"512 27 LINE",
"534 0 LINE",
"566 0 LINE",
"566 264 LINE",
"605 269 LINE",
"605 318 LINE",
"428 318 LINE",
"428 278 LINE",
"497 260 LINE",
"497 73 LINE",
"455 49 OFFCURVE",
"426 40 OFFCURVE",
"353 40 CURVE SMOOTH",
"189 40 OFFCURVE",
"133 149 OFFCURVE",
"133 327 CURVE SMOOTH",
"133 521 OFFCURVE",
"193 606 OFFCURVE",
"355 606 CURVE SMOOTH",
"398 606 OFFCURVE",
"454 598 OFFCURVE",
"482 589 CURVE",
"513 479 LINE",
"554 479 LINE",
"554 628 LINE",
"535 640 OFFCURVE",
"467 658 OFFCURVE",
"362 658 CURVE SMOOTH",
"167 658 OFFCURVE",
"49 503 OFFCURVE",
"49 318 CURVE SMOOTH",
"49 85 OFFCURVE",
"155 -9 OFFCURVE",
"340 -9 CURVE SMOOTH"
);
}
);
width = 645;
},
{
anchors = (
{
name = bottom;
position = "{344, 0}";
},
{
name = top;
position = "{336, 648}";
}
);
layerId = "5be9d440-7da3-4849-9ff3-c66a194b28b9";
paths = (
{
closed = 1;
nodes = (
"413 -20 OFFCURVE",
"466 0 OFFCURVE",
"507 26 CURVE",
"515 26 LINE",
"535 0 LINE",
"588 0 LINE",
"588 258 LINE",
"641 280 LINE",
"641 338 LINE",
"343 338 LINE",
"343 278 LINE",
"426 259 LINE",
"426 78 LINE",
"414 76 OFFCURVE",
"387 72 OFFCURVE",
"363 72 CURVE SMOOTH",
"269 72 OFFCURVE",
"216 117 OFFCURVE",
"216 321 CURVE SMOOTH",
"216 502 OFFCURVE",
"269 576 OFFCURVE",
"398 576 CURVE SMOOTH",
"431 576 OFFCURVE",
"456 568 OFFCURVE",
"481 556 CURVE",
"499 449 LINE",
"583 449 LINE",
"583 637 LINE",
"538 649 OFFCURVE",
"480 668 OFFCURVE",
"393 668 CURVE SMOOTH",
"183 668 OFFCURVE",
"32 550 OFFCURVE",
"32 305 CURVE SMOOTH",
"32 99 OFFCURVE",
"130 -20 OFFCURVE",
"337 -20 CURVE SMOOTH"
);
}
);
width = 649;
}
);
leftKerningGroup = O;
leftMetricsKey = O;
rightKerningGroup = G;
unicode = 0047;
},
{
glyphname = Gcommaaccent;
layers = (
{
background = {
paths = (
{
closed = 1;
nodes = (
"417 -9 OFFCURVE",
"456 13 OFFCURVE",
"477 27 CURVE",
"492 27 LINE",
"527 0 LINE",
"565 0 LINE",
"565 264 LINE",
"604 269 LINE",
"604 318 LINE",
"427 318 LINE",
"427 278 LINE",
"496 260 LINE",
"496 77 LINE",
"454 53 OFFCURVE",
"425 40 OFFCURVE",
"352 40 CURVE SMOOTH",
"188 40 OFFCURVE",
"132 149 OFFCURVE",
"132 327 CURVE SMOOTH",
"132 506 OFFCURVE",
"181 606 OFFCURVE",
"336 606 CURVE SMOOTH",
"432 606 OFFCURVE",
"486 587 OFFCURVE",
"481 589 CURVE",
"512 479 LINE",
"554 479 LINE",
"554 629 LINE",
"539 641 OFFCURVE",
"462 658 OFFCURVE",
"353 658 CURVE SMOOTH",
"154 658 OFFCURVE",
"48 488 OFFCURVE",
"48 318 CURVE SMOOTH",
"48 85 OFFCURVE",
"150 -9 OFFCURVE",
"327 -9 CURVE SMOOTH"
);
},
{
closed = 1;
nodes = (
"359 -181 LINE",
"359 -181 OFFCURVE",
"408 -147 OFFCURVE",
"408 -80 CURVE SMOOTH",
"408 -58 OFFCURVE",
"396 -30 OFFCURVE",
"363 -30 CURVE SMOOTH",
"354 -30 OFFCURVE",
"335 -34 OFFCURVE",
"321 -50 CURVE",
"339 -67 OFFCURVE",
"349 -86 OFFCURVE",
"349 -105 CURVE SMOOTH",
"349 -129 OFFCURVE",
"344 -144 OFFCURVE",
"331 -181 CURVE"
);
}
);
};
components = (
{
name = G;
},
{
name = commaaccentcomb.case;
transform = "{1, 0, 0, 1, 303, 0}";
}
);
layerId = "4c090d2b-0954-42f9-b8fa-9b61004e66c3";
width = 645;
},
{
background = {
paths = (
{
closed = 1;
nodes = (
"413 -20 OFFCURVE",
"466 0 OFFCURVE",
"507 26 CURVE",
"515 26 LINE",
"535 0 LINE",
"588 0 LINE",
"588 258 LINE",
"641 280 LINE",
"641 338 LINE",
"343 338 LINE",
"343 278 LINE",
"426 259 LINE",
"426 78 LINE",
"414 76 OFFCURVE",
"387 72 OFFCURVE",
"363 72 CURVE SMOOTH",
"269 72 OFFCURVE",
"216 117 OFFCURVE",
"216 321 CURVE SMOOTH",
"216 498 OFFCURVE",
"272 576 OFFCURVE",
"398 576 CURVE SMOOTH",
"431 576 OFFCURVE",
"456 568 OFFCURVE",
"481 556 CURVE",
"499 449 LINE",
"579 449 LINE",
"579 637 LINE",
"534 646 OFFCURVE",
"480 668 OFFCURVE",
"393 668 CURVE SMOOTH",
"183 668 OFFCURVE",
"32 550 OFFCURVE",
"32 305 CURVE SMOOTH",
"32 99 OFFCURVE",
"130 -20 OFFCURVE",
"337 -20 CURVE SMOOTH"
);
},
{
closed = 1;
nodes = (
"343 -221 LINE",
"343 -221 OFFCURVE",
"416 -151 OFFCURVE",
"416 -84 CURVE SMOOTH",
"416 -53 OFFCURVE",
"397 -22 OFFCURVE",
"349 -22 CURVE SMOOTH",
"319 -22 OFFCURVE",
"303 -39 OFFCURVE",
"289 -55 CURVE",
"284 -51 OFFCURVE",
"307 -70 OFFCURVE",
"307 -121 CURVE SMOOTH",
"307 -171 OFFCURVE",
"291 -230 OFFCURVE",
"294 -221 CURVE"
);
}
);
};
components = (
{
name = G;
},
{
name = commaaccentcomb.case;
transform = "{1, 0, 0, 1, 281, 0}";
}
);
layerId = "5be9d440-7da3-4849-9ff3-c66a194b28b9";
width = 649;
}
);
leftKerningGroup = O;
rightKerningGroup = G;
unicode = 0122;
},
{
glyphname = H;
layers = (
{
anchors = (
{
name = bottom;
position = "{376, 0}";
},
{
name = center;
position = "{376, 480}";
},
{
name = top;
position = "{376, 648}";
},
{
name = topleft;
position = "{60, 648}";
}
);
layerId = "4c090d2b-0954-42f9-b8fa-9b61004e66c3";
paths = (
{
closed = 1;
nodes = (
"299 0 LINE",
"299 41 LINE",
"215 55 LINE",
"215 307 LINE",
"537 307 LINE",
"537 55 LINE",
"453 41 LINE",
"453 0 LINE",
"690 0 LINE",
"690 41 LINE",
"608 55 LINE",
"608 593 LINE",
"690 607 LINE",
"690 648 LINE",
"453 648 LINE",
"453 607 LINE",
"537 593 LINE",
"537 357 LINE",
"215 357 LINE",
"215 593 LINE",
"299 607 LINE",
"299 648 LINE",
"60 648 LINE",
"60 607 LINE",
"144 593 LINE",
"144 55 LINE",
"60 41 LINE",
"60 0 LINE"
);
}
);
width = 751;
},
{
anchors = (
{
name = bottom;
position = "{383, 0}";
},
{
name = center;
position = "{383, 480}";
},
{
name = top;
position = "{383, 648}";
},
{
name = topleft;
position = "{28, 648}";
}
);
layerId = "5be9d440-7da3-4849-9ff3-c66a194b28b9";
paths = (
{
closed = 1;
nodes = (
"347 0 LINE",
"347 60 LINE",
"268 80 LINE",
"268 293 LINE",
"497 293 LINE",
"497 80 LINE",
"418 60 LINE",
"418 0 LINE",
"737 0 LINE",
"737 60 LINE",
"658 80 LINE",
"658 568 LINE",
"737 588 LINE",
"737 648 LINE",
"418 648 LINE",
"418 588 LINE",
"497 568 LINE",
"497 377 LINE",
"268 377 LINE",
"268 568 LINE",
"347 588 LINE",
"347 648 LINE",
"28 648 LINE",
"28 588 LINE",
"107 568 LINE",
"107 80 LINE",
"28 60 LINE",
"28 0 LINE"
);
}
);
width = 765;
}
);
leftKerningGroup = H;
rightKerningGroup = H;
unicode = 0048;
},
{
glyphname = I;
layers = (
{
anchors = (
{
name = bottom;
position = "{180, 0}";
},
{
name = ogonek;
position = "{260, 0}";
},
{
name = top;
position = "{180, 648}";
}
);
layerId = "4c090d2b-0954-42f9-b8fa-9b61004e66c3";
paths = (
{
closed = 1;
nodes = (
"298 0 LINE",
"298 41 LINE",
"215 55 LINE",
"215 593 LINE",
"298 607 LINE",
"298 648 LINE",
"60 648 LINE",
"60 607 LINE",
"143 593 LINE",
"143 55 LINE",
"60 41 LINE",
"60 0 LINE"
);
}
);
width = 359;
},
{
anchors = (
{
name = bottom;
position = "{187, 0}";
},
{
name = ogonek;
position = "{317, 0}";
},
{
name = top;
position = "{187, 648}";
}
);
layerId = "5be9d440-7da3-4849-9ff3-c66a194b28b9";
paths = (
{
closed = 1;
nodes = (
"347 0 LINE",
"347 60 LINE",
"268 80 LINE",
"268 568 LINE",
"347 588 LINE",
"347 648 LINE",
"28 648 LINE",
"28 588 LINE",
"107 568 LINE",
"107 80 LINE",
"28 60 LINE",
"28 0 LINE"
);
}
);
width = 375;
}
);
leftKerningGroup = H;
leftMetricsKey = H;
rightKerningGroup = H;
rightMetricsKey = H;
unicode = 0049;
},
{
glyphname = J;
layers = (
{
anchors = (
{
name = bottom;
position = "{138, 0}";
},
{
name = top;
position = "{237, 648}";
}
);
background = {
paths = (
{
closed = 1;
nodes = (
"211 -13 OFFCURVE",
"273 12 OFFCURVE",
"273 109 CURVE SMOOTH",
"273 593 LINE",
"344 607 LINE",
"344 648 LINE",
"101 648 LINE",
"101 607 LINE",
"200 591 LINE",
"200 94 LINE SMOOTH",
"200 61 OFFCURVE",
"186 30 OFFCURVE",
"142 30 CURVE SMOOTH",
"120 30 OFFCURVE",
"98 36 OFFCURVE",
"88 41 CURVE",
"58 148 LINE",
"16 148 LINE",
"16 12 LINE",
"9 16 OFFCURVE",
"60 -13 OFFCURVE",
"135 -13 CURVE SMOOTH"
);
}
);
};
layerId = "4c090d2b-0954-42f9-b8fa-9b61004e66c3";
paths = (
{
closed = 1;
nodes = (
"228 -13 OFFCURVE",
"273 24 OFFCURVE",
"273 109 CURVE SMOOTH",
"273 593 LINE",
"344 607 LINE",
"344 648 LINE",
"101 648 LINE",
"101 607 LINE",
"200 591 LINE",
"200 94 LINE SMOOTH",
"200 61 OFFCURVE",
"184 30 OFFCURVE",
"132 30 CURVE SMOOTH",
"108 30 OFFCURVE",
"82 36 OFFCURVE",
"72 41 CURVE",
"42 155 LINE",
"0 155 LINE",
"0 12 LINE",
"30 -2 OFFCURVE",
"74 -13 OFFCURVE",
"125 -13 CURVE SMOOTH"
);
}
);
width = 399;
},
{
anchors = (
{
name = bottom;
position = "{152, 0}";
},
{
name = top;
position = "{267, 648}";
}
);
layerId = "5be9d440-7da3-4849-9ff3-c66a194b28b9";
paths = (
{
closed = 1;
nodes = (
"296 -19 OFFCURVE",
"348 27 OFFCURVE",
"348 153 CURVE SMOOTH",
"348 568 LINE",
"430 588 LINE",
"430 648 LINE",
"97 648 LINE",
"97 588 LINE",
"187 568 LINE",
"187 137 LINE SMOOTH",
"187 91 OFFCURVE",
"181 75 OFFCURVE",
"132 75 CURVE SMOOTH",
"116 75 OFFCURVE",
"100 78 OFFCURVE",
"96 81 CURVE",
"70 198 LINE",
"0 198 LINE",
"0 16 LINE",
"32 -4 OFFCURVE",
"85 -19 OFFCURVE",
"153 -19 CURVE SMOOTH"
);
}
);
width = 445;
}
);
leftKerningGroup = J;
rightKerningGroup = J;
unicode = 004A;
},
{
glyphname = K;
layers = (
{
anchors = (
{
name = bottom;
position = "{332, 0}";
},
{
name = top;
position = "{337, 648}";
}
);
layerId = "4c090d2b-0954-42f9-b8fa-9b61004e66c3";
paths = (
{
closed = 1;
nodes = (
"299 0 LINE",
"299 41 LINE",
"215 55 LINE",
"215 317 LINE",
"261 317 LINE",
"461 25 LINE SMOOTH",
"477 1 OFFCURVE",
"488 0 OFFCURVE",
"520 0 CURVE SMOOTH",
"599 0 LINE",
"599 42 LINE",
"525 57 LINE",
"318 353 LINE",
"520 597 LINE",
"578 607 LINE",
"578 648 LINE",
"379 648 LINE",
"379 608 LINE",
"438 596 LINE",
"438 587 LINE",
"256 360 LINE",
"215 360 LINE",
"215 593 LINE",
"299 607 LINE",
"299 648 LINE",
"60 648 LINE",
"60 607 LINE",
"144 593 LINE",
"144 55 LINE",
"60 41 LINE",
"60 0 LINE"
);
}
);
width = 591;
},
{
anchors = (
{
name = bottom;
position = "{352, 0}";
},
{
name = top;
position = "{367, 648}";
}
);
layerId = "5be9d440-7da3-4849-9ff3-c66a194b28b9";
paths = (
{
closed = 1;
nodes = (
"347 0 LINE",
"347 60 LINE",
"268 80 LINE",
"268 284 LINE",
"274 284 LINE",
"431 50 LINE SMOOTH",
"451 21 OFFCURVE",
"467 0 OFFCURVE",
"502 0 CURVE SMOOTH",
"671 0 LINE",
"671 60 LINE",
"589 81 LINE",
"396 362 LINE",
"563 567 LINE",
"636 588 LINE",
"636 648 LINE",
"396 648 LINE",
"396 588 LINE",
"440 576 LINE",
"440 557 LINE",
"278 355 LINE",
"268 355 LINE",
"268 568 LINE",
"347 588 LINE",
"347 648 LINE",
"28 648 LINE",
"28 588 LINE",
"107 568 LINE",
"107 80 LINE",
"28 60 LINE",
"28 0 LINE"
);
}
);
width = 646;
}
);
leftKerningGroup = H;
leftMetricsKey = H;
rightKerningGroup = K;
unicode = 004B;
},
{
glyphname = L;
layers = (
{
anchors = (
{
name = bottom;
position = "{323, 0}";
},
{
name = center;
position = "{180, 324}";
},
{
name = top;
position = "{180, 648}";
},
{
name = topright;
position = "{400, 494}";
}
);
layerId = "4c090d2b-0954-42f9-b8fa-9b61004e66c3";
paths = (
{
closed = 1;
nodes = (
"503 0 LINE",
"503 155 LINE",
"458 155 LINE",
"438 50 LINE",
"326 50 LINE",
"215 58 LINE",
"215 589 LINE",
"309 603 LINE",
"309 648 LINE",
"60 648 LINE",
"60 608 LINE",
"144 592 LINE",
"144 56 LINE",
"60 40 LINE",
"60 0 LINE"
);
}
);
width = 523;
},
{
anchors = (
{
name = bottom;
position = "{316, 0}";
},
{
name = center;
position = "{188, 324}";
},
{
name = top;
position = "{188, 648}";
},
{
name = topright;
position = "{380, 494}";
}
);
layerId = "5be9d440-7da3-4849-9ff3-c66a194b28b9";
paths = (
{
closed = 1;
nodes = (
"522 0 LINE",
"522 197 LINE",
"450 197 LINE",
"422 83 LINE",
"303 83 LINE",
"268 90 LINE",
"268 569 LINE",
"344 589 LINE",
"344 648 LINE",
"28 648 LINE",
"28 588 LINE",
"107 568 LINE",
"107 80 LINE",
"28 60 LINE",
"28 0 LINE"
);
}
);
width = 523;
}
);
leftKerningGroup = H;
leftMetricsKey = H;
rightKerningGroup = L;
unicode = 004C;
},
{
glyphname = LJ;
layers = (
{
components = (
{
name = J;
transform = "{1, 0, 0, 1, 513, 0}";
}
);
layerId = "4c090d2b-0954-42f9-b8fa-9b61004e66c3";
paths = (
{
closed = 1;
nodes = (
"483 0 LINE",
"483 155 LINE",
"438 155 LINE",
"418 50 LINE",
"326 50 LINE",
"215 58 LINE",
"215 589 LINE",
"309 603 LINE",
"309 648 LINE",
"60 648 LINE",
"60 608 LINE",
"144 592 LINE",
"144 56 LINE",
"60 40 LINE",
"60 0 LINE"
);
}
);
width = 912;
},
{
components = (
{
name = J;
transform = "{1, 0, 0, 1, 523, 0}";
}
);
layerId = "5be9d440-7da3-4849-9ff3-c66a194b28b9";
paths = (
{
closed = 1;
nodes = (
"502 0 LINE",
"502 197 LINE",
"430 197 LINE",
"402 83 LINE",
"303 83 LINE",
"268 90 LINE",
"268 569 LINE",
"354 589 LINE",
"354 648 LINE",
"28 648 LINE",
"28 588 LINE",
"107 568 LINE",
"107 80 LINE",
"28 60 LINE",
"28 0 LINE"
);
}
);
width = 968;
}
);
leftKerningGroup = H;
leftMetricsKey = H;
rightKerningGroup = J;
rightMetricsKey = J;
unicode = 01C7;
},
{
glyphname = Lcaron;
layers = (
{
background = {
paths = (
{
closed = 1;
nodes = (
"508 0 LINE",
"508 155 LINE",
"463 155 LINE",
"443 50 LINE",
"331 50 LINE",
"220 58 LINE",
"220 589 LINE",
"314 603 LINE",
"314 648 LINE",
"65 648 LINE",
"65 608 LINE",
"149 592 LINE",
"149 56 LINE",
"65 40 LINE",
"65 0 LINE"
);
},
{
closed = 1;
nodes = (
"407 481 LINE",
"407 481 OFFCURVE",
"458 562 OFFCURVE",
"458 601 CURVE SMOOTH",
"458 631 OFFCURVE",
"443 655 OFFCURVE",
"410 655 CURVE SMOOTH",
"385 655 OFFCURVE",
"372 640 OFFCURVE",
"367 631 CURVE",
"383 612 OFFCURVE",
"394 596 OFFCURVE",
"394 573 CURVE SMOOTH",
"394 545 OFFCURVE",
"388 509 OFFCURVE",
"378 481 CURVE"
);
}
);
};
components = (
{
name = L;
},
{
name = caroncomb.alt;
transform = "{1, 0, 0, 1, 400, 0}";
}
);
layerId = "4c090d2b-0954-42f9-b8fa-9b61004e66c3";
width = 523;
},
{
background = {
paths = (
{
closed = 1;
nodes = (
"521 0 LINE",
"521 197 LINE",
"449 197 LINE",
"420 83 LINE",
"302 83 LINE",
"267 90 LINE",
"267 569 LINE",
"343 589 LINE",
"343 648 LINE",
"27 648 LINE",
"27 588 LINE",
"106 568 LINE",
"106 80 LINE",
"27 60 LINE",
"27 0 LINE"
);
},
{
closed = 1;
nodes = (
"455 482 LINE",
"455 482 OFFCURVE",
"527 544 OFFCURVE",
"527 619 CURVE SMOOTH",
"527 641 OFFCURVE",
"509 675 OFFCURVE",
"465 675 CURVE SMOOTH",
"449 675 OFFCURVE",
"427 672 OFFCURVE",
"410 654 CURVE",
"416 649 OFFCURVE",
"423 619 OFFCURVE",
"423 593 CURVE SMOOTH",
"423 565 OFFCURVE",
"417 514 OFFCURVE",
"407 482 CURVE"
);
}
);
};
components = (
{
name = L;
},
{
name = caroncomb.alt;
transform = "{1, 0, 0, 1, 380, 0}";
}
);
layerId = "5be9d440-7da3-4849-9ff3-c66a194b28b9";
width = 523;
}
);
leftKerningGroup = H;
rightKerningGroup = L;
unicode = 013D;
},
{
glyphname = Lslash;
layers = (
{
background = {
paths = (
{
closed = 1;
nodes = (
"366 344 LINE",
"366 399 LINE",
"60 287 LINE",
"60 232 LINE"
);
}
);
};
components = (
{
name = L;
}
);
layerId = "4c090d2b-0954-42f9-b8fa-9b61004e66c3";
paths = (
{
closed = 1;
nodes = (
"366 344 LINE",
"366 399 LINE",
"60 287 LINE",
"60 232 LINE"
);
}
);
width = 523;
},
{
components = (
{
name = L;
}
);
layerId = "5be9d440-7da3-4849-9ff3-c66a194b28b9";
paths = (
{
closed = 1;
nodes = (
"374 351 LINE",
"374 426 LINE",
"28 297 LINE",
"28 222 LINE"
);
}
);
width = 523;
}
);
leftKerningGroup = H;
leftMetricsKey = H;
rightKerningGroup = L;
unicode = 0141;
},
{
glyphname = M;
layers = (
{
anchors = (
{
name = bottom;
position = "{444, 0}";
},
{
name = top;
position = "{444, 648}";
}
);
layerId = "4c090d2b-0954-42f9-b8fa-9b61004e66c3";
paths = (
{
closed = 1;
nodes = (
"254 0 LINE",
"254 38 LINE",
"184 54 LINE",
"184 560 LINE",
"184 590 LINE",
"200 590 LINE",
"407 0 LINE",
"446 0 LINE",
"650 590 LINE",
"665 590 LINE",
"665 560 LINE",
"665 55 LINE",
"582 41 LINE",
"582 0 LINE",
"822 0 LINE",
"822 41 LINE",
"738 55 LINE",
"738 593 LINE",
"825 609 LINE",
"825 648 LINE",
"610 648 LINE",
"458 193 LINE",
"438 126 LINE",
"435 126 LINE",
"416 193 LINE",
"259 648 LINE",
"69 648 LINE",
"69 608 LINE",
"129 597 LINE",
"129 54 LINE",
"61 38 LINE",
"61 0 LINE"
);
}
);
width = 887;
},
{
anchors = (
{
name = bottom;
position = "{438, 0}";
},
{
name = top;
position = "{438, 648}";
}
);
background = {
paths = (
{
closed = 1;
nodes = (
"301 0 LINE",
"301 61 LINE",
"214 81 LINE",
"214 389 LINE",
"211 413 LINE",
"217 413 LINE",
"343 0 LINE",
"492 0 LINE",
"607 413 LINE",
"614 413 LINE",
"610 388 LINE",
"610 80 LINE",
"531 60 LINE",
"531 0 LINE",
"849 0 LINE",
"849 60 LINE",
"770 80 LINE",
"770 569 LINE",
"833 580 LINE",
"833 648 LINE",
"573 648 LINE",
"442 179 LINE",
"439 149 LINE",
"437 149 LINE",
"435 179 LINE",
"303 648 LINE",
"40 648 LINE",
"40 581 LINE",
"107 568 LINE",
"107 81 LINE",
"24 61 LINE",
"24 0 LINE"
);
}
);
};
layerId = "5be9d440-7da3-4849-9ff3-c66a194b28b9";
paths = (
{
closed = 1;
nodes = (
"301 0 LINE",
"301 61 LINE",
"214 81 LINE",
"214 389 LINE",
"211 413 LINE",
"217 413 LINE",
"343 0 LINE",
"492 0 LINE",
"607 413 LINE",
"614 413 LINE",
"610 388 LINE",
"610 80 LINE",
"531 60 LINE",
"531 0 LINE",
"849 0 LINE",
"849 60 LINE",
"770 80 LINE",
"770 569 LINE",
"833 580 LINE",
"833 648 LINE",
"573 648 LINE",
"447 199 LINE",
"440 148 LINE",
"435 148 LINE",
"429 199 LINE",
"303 648 LINE",
"40 648 LINE",
"40 581 LINE",
"107 568 LINE",
"107 81 LINE",
"24 61 LINE",
"24 0 LINE"
);
}
);
width = 876;
}
);
leftKerningGroup = M;
rightKerningGroup = M;
unicode = 004D;
},
{
glyphname = N;
layers = (
{
anchors = (
{
name = bottom;
position = "{365, 0}";
},
{
name = top;
position = "{365, 648}";
}
);
layerId = "4c090d2b-0954-42f9-b8fa-9b61004e66c3";
paths = (
{
closed = 1;
nodes = (
"246 0 LINE",
"246 38 LINE",
"180 54 LINE",
"180 541 LINE",
"183 541 LINE",
"195 517 LINE",
"536 0 LINE",
"609 0 LINE",
"609 594 LINE",
"673 610 LINE",
"673 648 LINE",
"490 648 LINE",
"490 610 LINE",
"554 594 LINE",
"554 99 LINE",
"551 99 LINE",
"537 125 LINE",
"192 648 LINE",
"63 648 LINE",
"63 608 LINE",
"125 594 LINE",
"125 54 LINE",
"60 38 LINE",
"60 0 LINE"
);
}
);
width = 727;
},
{
anchors = (
{
name = bottom;
position = "{365, 0}";
},
{
name = top;
position = "{365, 648}";
}
);
layerId = "5be9d440-7da3-4849-9ff3-c66a194b28b9";
paths = (
{
closed = 1;
nodes = (
"307 0 LINE",
"307 61 LINE",
"220 81 LINE",
"220 456 LINE",
"226 456 LINE",
"247 411 LINE",
"498 0 LINE",
"635 0 LINE",
"635 567 LINE",
"719 586 LINE",
"719 648 LINE",
"439 648 LINE",
"439 586 LINE",
"527 567 LINE",
"527 237 LINE",
"521 237 LINE",
"499 288 LINE",
"280 648 LINE",
"45 648 LINE",
"45 581 LINE",
"112 569 LINE",
"112 81 LINE",
"28 61 LINE",
"28 0 LINE"
);
}
);
width = 730;
}
);
leftKerningGroup = H;
leftMetricsKey = H;
rightKerningGroup = N;
unicode = 004E;
},
{
glyphname = Eng;
layers = (
{
components = (
{
alignment = -1;
name = N;
}
);
layerId = "4c090d2b-0954-42f9-b8fa-9b61004e66c3";
paths = (
{
closed = 1;
nodes = (
"572 -164 OFFCURVE",
"608 -136 OFFCURVE",
"608 -84 CURVE SMOOTH",
"608 61 LINE",
"527 61 LINE",
"527 -98 LINE",
"430 -121 LINE",
"430 -156 LINE",
"443 -159 OFFCURVE",
"473 -164 OFFCURVE",
"505 -164 CURVE SMOOTH"
);
}
);
width = 726;
},
{
components = (
{
alignment = -1;
name = N;
}
);
layerId = "5be9d440-7da3-4849-9ff3-c66a194b28b9";
paths = (
{
closed = 1;
nodes = (
"595 -170 OFFCURVE",
"635 -131 OFFCURVE",
"635 -78 CURVE SMOOTH",
"635 127 LINE",
"494 127 LINE",
"494 -71 LINE",
"386 -94 LINE",
"386 -150 LINE",
"391 -152 OFFCURVE",
"439 -170 OFFCURVE",
"508 -170 CURVE SMOOTH"
);
}
);
width = 730;
}
);
leftKerningGroup = H;
leftMetricsKey = H;
rightKerningGroup = N;
unicode = 014A;
},
{
glyphname = Nhookleft;
layers = (
{
anchors = (
{
name = bottom;
position = "{364, 0}";
},
{
name = top;
position = "{364, 648}";
}
);
layerId = "4c090d2b-0954-42f9-b8fa-9b61004e66c3";
paths = (
{
closed = 1;
nodes = (
"144 -164 OFFCURVE",
"177 -136 OFFCURVE",
"177 -84 CURVE SMOOTH",
"177 534 LINE",
"188 534 LINE",
"198 519 LINE",
"522 0 LINE",
"606 0 LINE",
"606 594 LINE",
"672 610 LINE",
"672 648 LINE",
"489 648 LINE",
"489 610 LINE",
"555 594 LINE",
"555 106 LINE",
"545 106 LINE",
"527 131 LINE",
"201 648 LINE",
"63 648 LINE",
"63 608 LINE",
"128 594 LINE",
"128 -95 LINE",
"18 -121 LINE",
"18 -156 LINE",
"29 -159 OFFCURVE",
"54 -164 OFFCURVE",
"82 -164 CURVE"
);
}
);
width = 726;
},
{
anchors = (
{
name = bottom;
position = "{365, 0}";
},
{
name = top;
position = "{365, 648}";
}
);
layerId = "5be9d440-7da3-4849-9ff3-c66a194b28b9";
paths = (
{
closed = 1;
nodes = (
"192 -170 OFFCURVE",
"224 -131 OFFCURVE",
"224 -78 CURVE SMOOTH",
"224 424 LINE",
"226 424 LINE",
"228 409 LINE",
"502 0 LINE",
"635 0 LINE",
"635 567 LINE",
"719 586 LINE",
"719 648 LINE",
"439 648 LINE",
"439 586 LINE",
"523 567 LINE",
"523 248 LINE",
"521 248 LINE",
"521 261 LINE",
"275 648 LINE",
"45 648 LINE",
"45 581 LINE",
"112 569 LINE",
"112 -72 LINE",
"12 -94 LINE",
"12 -150 LINE",
"33 -159 OFFCURVE",
"77 -170 OFFCURVE",
"124 -170 CURVE"
);
}
);
width = 730;
}
);
leftKerningGroup = H;
rightKerningGroup = N;
rightMetricsKey = N;
unicode = 019D;
},
{
glyphname = O;
layers = (
{
anchors = (
{
name = bottom;
position = "{346, 0}";
},
{
name = center;
position = "{346, 324}";
},
{
name = ogonek;
position = "{462, 0}";
},
{
name = top;
position = "{346, 648}";
},
{
name = topright;
position = "{446, 648}";
}
);
layerId = "4c090d2b-0954-42f9-b8fa-9b61004e66c3";
paths = (
{
closed = 1;
nodes = (
"564 -12 OFFCURVE",
"647 152 OFFCURVE",
"647 339 CURVE SMOOTH",
"647 534 OFFCURVE",
"543 658 OFFCURVE",
"367 658 CURVE SMOOTH",
"155 658 OFFCURVE",
"49 502 OFFCURVE",
"49 313 CURVE SMOOTH",
"49 113 OFFCURVE",
"150 -12 OFFCURVE",
"346 -12 CURVE SMOOTH"
);
},
{
closed = 1;
nodes = (
"216 39 OFFCURVE",
"133 113 OFFCURVE",
"133 314 CURVE SMOOTH",
"133 592 OFFCURVE",
"246 605 OFFCURVE",
"354 605 CURVE SMOOTH",
"470 605 OFFCURVE",
"562 564 OFFCURVE",
"562 322 CURVE SMOOTH",
"562 144 OFFCURVE",
"508 39 OFFCURVE",
"366 39 CURVE SMOOTH"
);
}
);
width = 693;
},
{
anchors = (
{
name = bottom;
position = "{356, 0}";
},
{
name = center;
position = "{356, 324}";
},
{
name = ogonek;
position = "{482, 0}";
},
{
name = top;
position = "{356, 648}";
},
{
name = topright;
position = "{498, 648}";
}
);
layerId = "5be9d440-7da3-4849-9ff3-c66a194b28b9";
paths = (
{
closed = 1;
nodes = (
"551 -20 OFFCURVE",
"679 119 OFFCURVE",
"679 334 CURVE SMOOTH",
"679 560 OFFCURVE",
"567 668 OFFCURVE",
"366 668 CURVE SMOOTH",
"160 668 OFFCURVE",
"32 525 OFFCURVE",
"32 313 CURVE SMOOTH",
"32 89 OFFCURVE",
"144 -20 OFFCURVE",
"340 -20 CURVE SMOOTH"
);
},
{
closed = 1;
nodes = (
"259 72 OFFCURVE",
"216 146 OFFCURVE",
"216 347 CURVE SMOOTH",
"216 502 OFFCURVE",
"250 576 OFFCURVE",
"347 576 CURVE SMOOTH",
"457 576 OFFCURVE",
"495 498 OFFCURVE",
"495 306 CURVE SMOOTH",
"495 118 OFFCURVE",
"448 72 OFFCURVE",
"360 72 CURVE SMOOTH"
);
}
);
width = 711;
}
);
leftKerningGroup = O;
rightKerningGroup = O;
unicode = 004F;
},
{
glyphname = Oslash;
layers = (
{
anchors = (
{
name = top;
position = "{335, 648}";
}
);
layerId = "4c090d2b-0954-42f9-b8fa-9b61004e66c3";
paths = (
{
closed = 1;
nodes = (
"241 2 LINE",
"272 -6 OFFCURVE",
"307 -12 OFFCURVE",
"346 -12 CURVE SMOOTH",
"564 -12 OFFCURVE",
"647 147 OFFCURVE",
"647 339 CURVE SMOOTH",
"647 468 OFFCURVE",
"596 572 OFFCURVE",
"507 624 CURVE",
"538 694 LINE",
"480 720 LINE",
"448 648 LINE",
"423 654 OFFCURVE",
"396 658 OFFCURVE",
"367 658 CURVE SMOOTH",
"161 658 OFFCURVE",
"49 500 OFFCURVE",
"49 313 CURVE SMOOTH",
"49 182 OFFCURVE",
"93 81 OFFCURVE",
"182 29 CURVE",
"150 -45 LINE",
"210 -71 LINE"
);
},
{
closed = 1;
nodes = (
"159 128 OFFCURVE",
"133 201 OFFCURVE",
"133 314 CURVE SMOOTH",
"133 591 OFFCURVE",
"239 605 OFFCURVE",
"354 605 CURVE SMOOTH",
"380 605 OFFCURVE",
"405 603 OFFCURVE",
"426 597 CURVE",
"206 85 LINE"
);
},
{
closed = 1;
nodes = (
"327 39 OFFCURVE",
"292 44 OFFCURVE",
"263 54 CURVE",
"485 571 LINE",
"532 534 OFFCURVE",
"562 461 OFFCURVE",
"562 322 CURVE SMOOTH",
"562 153 OFFCURVE",
"508 39 OFFCURVE",
"366 39 CURVE SMOOTH"
);
}
);
width = 693;
},
{
anchors = (
{
name = top;
position = "{311, 648}";
}
);
layerId = "5be9d440-7da3-4849-9ff3-c66a194b28b9";
paths = (
{
closed = 1;
nodes = (
"245 -9 LINE",
"275 -16 OFFCURVE",
"306 -20 OFFCURVE",
"340 -20 CURVE SMOOTH",
"547 -20 OFFCURVE",
"679 123 OFFCURVE",
"679 334 CURVE SMOOTH",
"679 492 OFFCURVE",
"624 592 OFFCURVE",
"524 638 CURVE",
"545 688 LINE",
"471 720 LINE",
"446 662 LINE",
"421 667 OFFCURVE",
"394 668 OFFCURVE",
"366 668 CURVE SMOOTH",
"160 668 OFFCURVE",
"32 525 OFFCURVE",
"32 313 CURVE SMOOTH",
"32 166 OFFCURVE",
"81 68 OFFCURVE",
"168 19 CURVE",
"141 -45 LINE",
"217 -77 LINE"
);
},
{
closed = 1;
nodes = (
"220 209 OFFCURVE",
"216 268 OFFCURVE",
"216 347 CURVE SMOOTH",
"216 507 OFFCURVE",
"248 576 OFFCURVE",
"347 576 CURVE SMOOTH",
"369 576 OFFCURVE",
"388 571 OFFCURVE",
"405 565 CURVE",
"232 165 LINE"
);
},
{
closed = 1;
nodes = (
"331 72 OFFCURVE",
"307 77 OFFCURVE",
"287 89 CURVE",
"466 505 LINE",
"486 460 OFFCURVE",
"494 394 OFFCURVE",
"494 306 CURVE SMOOTH",
"494 115 OFFCURVE",
"450 72 OFFCURVE",
"359 72 CURVE SMOOTH"
);
}
);
width = 711;
}
);
leftKerningGroup = O;
leftMetricsKey = O;
rightKerningGroup = O;
rightMetricsKey = O;
unicode = 00D8;
},
{
glyphname = OE;
layers = (
{
anchors = (
{
name = top;
position = "{495, 648}";
}
);
layerId = "4c090d2b-0954-42f9-b8fa-9b61004e66c3";
paths = (
{
closed = 1;
nodes = (
"832 0 LINE",
"832 155 LINE",
"787 155 LINE",
"766 52 LINE",
"648 52 LINE SMOOTH",
"607 52 OFFCURVE",
"556 57 OFFCURVE",
"530 65 CURVE",
"530 309 LINE",
"703 309 LINE",
"716 254 LINE",
"755 254 LINE",
"755 412 LINE",
"716 412 LINE",
"703 356 LINE",
"530 356 LINE",
"530 593 LINE",
"642 598 LINE",
"759 598 LINE",
"778 490 LINE",
"823 490 LINE",
"823 648 LINE",
"376 648 LINE SMOOTH",
"170 648 OFFCURVE",
"49 500 OFFCURVE",
"49 313 CURVE SMOOTH",
"49 75 OFFCURVE",
"183 0 OFFCURVE",
"365 0 CURVE SMOOTH"
);
},
{
closed = 1;
nodes = (
"229 42 OFFCURVE",
"133 122 OFFCURVE",
"133 314 CURVE SMOOTH",
"133 579 OFFCURVE",
"261 601 OFFCURVE",
"380 601 CURVE SMOOTH",
"403 601 OFFCURVE",
"436 595 OFFCURVE",
"459 583 CURVE",
"459 66 LINE",
"436 47 OFFCURVE",
"407 42 OFFCURVE",
"379 42 CURVE SMOOTH"
);
}
);
width = 885;
},
{
anchors = (
{
name = top;
position = "{534, 648}";
}
);
layerId = "5be9d440-7da3-4849-9ff3-c66a194b28b9";
paths = (
{
closed = 1;
nodes = (
"893 0 LINE",
"893 208 LINE",
"824 208 LINE",
"794 82 LINE",
"665 82 LINE SMOOTH",
"648 82 OFFCURVE",
"635 82 OFFCURVE",
"614 82 CURVE",
"614 285 LINE",
"697 285 LINE",
"721 203 LINE",
"778 203 LINE",
"778 441 LINE",
"721 441 LINE",
"697 369 LINE",
"614 369 LINE",
"614 558 LINE",
"646 565 LINE",
"783 565 LINE",
"812 452 LINE",
"884 452 LINE",
"884 648 LINE",
"362 648 LINE SMOOTH",
"156 648 OFFCURVE",
"32 525 OFFCURVE",
"32 313 CURVE SMOOTH",
"32 100 OFFCURVE",
"140 0 OFFCURVE",
"340 0 CURVE SMOOTH"
);
},
{
closed = 1;
nodes = (
"259 89 OFFCURVE",
"216 153 OFFCURVE",
"216 347 CURVE SMOOTH",
"216 500 OFFCURVE",
"270 558 OFFCURVE",
"349 558 CURVE SMOOTH",
"408 558 OFFCURVE",
"441 554 OFFCURVE",
"453 552 CURVE",
"453 97 LINE",
"425 92 OFFCURVE",
"390 89 OFFCURVE",
"353 89 CURVE"
);
}
);
width = 930;
}
);
leftKerningGroup = O;
leftMetricsKey = O;
rightKerningGroup = E;
rightMetricsKey = E;
unicode = 0152;
},
{
glyphname = P;
layers = (
{
anchors = (
{
name = bottom;
position = "{180, 0}";
},
{
name = top;
position = "{281, 648}";
}
);
layerId = "4c090d2b-0954-42f9-b8fa-9b61004e66c3";
paths = (
{
closed = 1;
nodes = (
"334 0 LINE",
"334 43 LINE",
"215 60 LINE",
"215 591 LINE",
"233 593 OFFCURVE",
"268 596 OFFCURVE",
"299 596 CURVE SMOOTH",
"398 596 OFFCURVE",
"463 558 OFFCURVE",
"463 456 CURVE SMOOTH",
"463 338 OFFCURVE",
"386 299 OFFCURVE",
"260 299 CURVE",
"265 262 LINE",
"277 260 OFFCURVE",
"289 260 OFFCURVE",
"301 260 CURVE SMOOTH",
"445 260 OFFCURVE",
"540 335 OFFCURVE",
"540 484 CURVE SMOOTH",
"540 605 OFFCURVE",
"439 648 OFFCURVE",
"297 648 CURVE SMOOTH",
"60 648 LINE",
"60 608 LINE",
"144 592 LINE",
"144 56 LINE",
"60 40 LINE",
"60 0 LINE"
);
}
);
width = 560;
},
{
anchors = (
{
name = bottom;
position = "{188, 0}";
},
{
name = top;
position = "{295, 648}";
}
);
layerId = "5be9d440-7da3-4849-9ff3-c66a194b28b9";
paths = (
{
closed = 1;
nodes = (
"338 0 LINE",
"338 59 LINE",
"268 79 LINE",
"268 562 LINE",
"278 564 OFFCURVE",
"297 566 OFFCURVE",
"315 566 CURVE SMOOTH",
"385 566 OFFCURVE",
"412 520 OFFCURVE",
"412 463 CURVE SMOOTH",
"412 374 OFFCURVE",
"397 326 OFFCURVE",
"310 313 CURVE",
"315 263 LINE",
"324 262 OFFCURVE",
"335 261 OFFCURVE",
"344 261 CURVE",
"472 259 OFFCURVE",
"582 326 OFFCURVE",
"582 455 CURVE SMOOTH",
"582 604 OFFCURVE",
"498 648 OFFCURVE",
"321 648 CURVE SMOOTH",
"28 648 LINE",
"28 588 LINE",
"107 568 LINE",
"107 80 LINE",
"28 60 LINE",
"28 0 LINE"
);
}
);
width = 589;
}
);
leftKerningGroup = H;
leftMetricsKey = H;
rightKerningGroup = P;
unicode = 0050;
},
{
glyphname = Thorn;
layers = (
{
layerId = "4c090d2b-0954-42f9-b8fa-9b61004e66c3";
paths = (
{
closed = 1;
nodes = (
"298 0 LINE",
"298 41 LINE",
"215 55 LINE",
"215 160 LINE",
"304 160 LINE SMOOTH",
"447 160 OFFCURVE",
"527 222 OFFCURVE",
"527 360 CURVE SMOOTH",
"527 479 OFFCURVE",
"441 510 OFFCURVE",
"306 510 CURVE SMOOTH",
"215 510 LINE",
"215 593 LINE",
"298 607 LINE",
"298 648 LINE",
"60 648 LINE",
"60 607 LINE",
"143 593 LINE",
"143 55 LINE",
"60 41 LINE",
"60 0 LINE"
);
},
{
closed = 1;
nodes = (
"215 458 LINE",
"248 458 OFFCURVE",
"278 458 OFFCURVE",
"309 458 CURVE SMOOTH",
"395 458 OFFCURVE",
"448 432 OFFCURVE",
"448 337 CURVE SMOOTH",
"448 234 OFFCURVE",
"391 203 OFFCURVE",
"283 203 CURVE SMOOTH",
"215 203 LINE"
);
}
);
width = 551;
},
{
layerId = "5be9d440-7da3-4849-9ff3-c66a194b28b9";
paths = (
{
closed = 1;
nodes = (
"347 0 LINE",
"347 60 LINE",
"268 80 LINE",
"268 135 LINE",
"290 135 LINE SMOOTH",
"448 135 OFFCURVE",
"558 193 OFFCURVE",
"558 340 CURVE SMOOTH",
"558 455 OFFCURVE",
"508 511 OFFCURVE",
"347 511 CURVE SMOOTH",
"268 511 LINE",
"268 568 LINE",
"347 588 LINE",
"347 648 LINE",
"28 648 LINE",
"28 588 LINE",
"107 568 LINE",
"107 80 LINE",
"28 60 LINE",
"28 0 LINE"
);
},
{
closed = 1;
nodes = (
"268 425 LINE",
"272 426 OFFCURVE",
"285 429 OFFCURVE",
"299 429 CURVE SMOOTH",
"375 429 OFFCURVE",
"398 391 OFFCURVE",
"398 333 CURVE SMOOTH",
"398 261 OFFCURVE",
"374 219 OFFCURVE",
"289 219 CURVE SMOOTH",
"268 219 LINE"
);
}
);
width = 590;
}
);
leftKerningGroup = H;
leftMetricsKey = H;
rightKerningGroup = Thorn;
unicode = 00DE;
},
{
glyphname = Q;
layers = (
{
anchors = (
{
name = bottom;
position = "{351, 0}";
},
{
name = top;
position = "{351, 648}";
}
);
components = (
{
name = O;
}
);
layerId = "4c090d2b-0954-42f9-b8fa-9b61004e66c3";
paths = (
{
closed = 1;
nodes = (
"626 -150 OFFCURVE",
"670 -133 OFFCURVE",
"694 -121 CURVE",
"694 -90 LINE",
"588 -90 LINE",
"424 16 LINE",
"295 -9 LINE",
"366 -11 OFFCURVE",
"381 -31 OFFCURVE",
"399 -44 CURVE SMOOTH",
"523 -130 LINE SMOOTH",
"545 -145 OFFCURVE",
"564 -150 OFFCURVE",
"589 -150 CURVE SMOOTH"
);
}
);
width = 702;
},
{
anchors = (
{
name = bottom;
position = "{355, 0}";
},
{
name = top;
position = "{355, 648}";
}
);
components = (
{
name = O;
}
);
layerId = "5be9d440-7da3-4849-9ff3-c66a194b28b9";
paths = (
{
closed = 1;
nodes = (
"643 -166 OFFCURVE",
"688 -147 OFFCURVE",
"712 -132 CURVE",
"712 -74 LINE",
"607 -74 LINE",
"455 5 LINE",
"265 -14 LINE",
"309 -21 OFFCURVE",
"321 -28 OFFCURVE",
"347 -43 CURVE SMOOTH",
"503 -136 LINE SMOOTH",
"535 -155 OFFCURVE",
"567 -166 OFFCURVE",
"606 -166 CURVE SMOOTH"
);
}
);
width = 709;
}
);
leftKerningGroup = O;
leftMetricsKey = O;
rightKerningGroup = O;
unicode = 0051;
},
{
glyphname = R;
layers = (
{
anchors = (
{
name = bottom;
position = "{341, 0}";
},
{
name = top;
position = "{304, 648}";
}
);
layerId = "4c090d2b-0954-42f9-b8fa-9b61004e66c3";
paths = (
{
closed = 1;
nodes = (
"299 0 LINE",
"299 40 LINE",
"215 56 LINE",
"215 275 LINE",
"319 275 LINE",
"463 29 LINE SMOOTH",
"477 7 OFFCURVE",
"489 0 OFFCURVE",
"517 0 CURVE SMOOTH",
"597 0 LINE",
"597 40 LINE",
"528 59 LINE",
"386 292 LINE",
"455 325 OFFCURVE",
"531 358 OFFCURVE",
"531 494 CURVE SMOOTH",
"531 598 OFFCURVE",
"440 648 OFFCURVE",
"342 648 CURVE SMOOTH",
"60 648 LINE",
"60 608 LINE",
"144 592 LINE",
"144 56 LINE",
"60 40 LINE",
"60 0 LINE"
);
},
{
closed = 1;
nodes = (
"215 591 LINE",
"243 594 OFFCURVE",
"279 596 OFFCURVE",
"304 596 CURVE SMOOTH",
"356 596 OFFCURVE",
"452 591 OFFCURVE",
"452 471 CURVE SMOOTH",
"452 386 OFFCURVE",
"382 325 OFFCURVE",
"287 325 CURVE SMOOTH",
"215 325 LINE"
);
}
);
width = 607;
},
{
anchors = (
{
name = bottom;
position = "{325, 0}";
},
{
name = top;
position = "{317, 648}";
}
);
layerId = "5be9d440-7da3-4849-9ff3-c66a194b28b9";
paths = (
{
closed = 1;
nodes = (
"347 0 LINE",
"347 60 LINE",
"268 80 LINE",
"268 261 LINE",
"302 261 LINE",
"411 42 LINE SMOOTH",
"427 10 OFFCURVE",
"445 0 OFFCURVE",
"486 0 CURVE SMOOTH",
"638 0 LINE",
"638 60 LINE",
"565 77 LINE",
"444 285 LINE",
"532 316 OFFCURVE",
"573 385 OFFCURVE",
"573 457 CURVE SMOOTH",
"573 611 OFFCURVE",
"486 648 OFFCURVE",
"310 648 CURVE SMOOTH",
"28 648 LINE",
"28 588 LINE",
"107 568 LINE",
"107 80 LINE",
"28 60 LINE",
"28 0 LINE"
);
},
{
closed = 1;
nodes = (
"268 562 LINE",
"275 564 OFFCURVE",
"290 566 OFFCURVE",
"309 566 CURVE SMOOTH",
"396 566 OFFCURVE",
"405 524 OFFCURVE",
"405 463 CURVE SMOOTH",
"405 380 OFFCURVE",
"364 344 OFFCURVE",
"287 344 CURVE SMOOTH",
"268 344 LINE"
);
}
);
width = 632;
}
);
leftKerningGroup = H;
leftMetricsKey = H;
rightKerningGroup = R;
unicode = 0052;
},
{
glyphname = S;
layers = (
{
anchors = (
{
name = bottom;
position = "{250, 0}";
},
{
name = top;
position = "{250, 648}";
}
);
layerId = "4c090d2b-0954-42f9-b8fa-9b61004e66c3";
paths = (
{
closed = 1;
nodes = (
"350 -8 OFFCURVE",
"458 45 OFFCURVE",
"458 183 CURVE SMOOTH",
"458 289 OFFCURVE",
"376 327 OFFCURVE",
"292 360 CURVE SMOOTH",
"210 392 OFFCURVE",
"127 416 OFFCURVE",
"127 506 CURVE SMOOTH",
"127 574 OFFCURVE",
"173 609 OFFCURVE",
"261 609 CURVE SMOOTH",
"308 609 OFFCURVE",
"350 597 OFFCURVE",
"369 587 CURVE",
"388 491 LINE",
"432 491 LINE",
"432 633 LINE",
"409 643 OFFCURVE",
"331 658 OFFCURVE",
"267 658 CURVE SMOOTH",
"140 658 OFFCURVE",
"60 592 OFFCURVE",
"60 483 CURVE SMOOTH",
"60 376 OFFCURVE",
"162 332 OFFCURVE",
"250 298 CURVE SMOOTH",
"324 269 OFFCURVE",
"391 242 OFFCURVE",
"391 161 CURVE SMOOTH",
"391 86 OFFCURVE",
"348 42 OFFCURVE",
"242 42 CURVE SMOOTH",
"204 42 OFFCURVE",
"151 57 OFFCURVE",
"122 78 CURVE",
"106 181 LINE",
"59 181 LINE",
"59 46 LINE",
"88 19 OFFCURVE",
"168 -8 OFFCURVE",
"245 -8 CURVE SMOOTH"
);
}
);
width = 507;
},
{
anchors = (
{
name = bottom;
position = "{282, 0}";
},
{
name = top;
position = "{282, 648}";
}
);
layerId = "5be9d440-7da3-4849-9ff3-c66a194b28b9";
paths = (
{
closed = 1;
nodes = (
"384 -19 OFFCURVE",
"517 26 OFFCURVE",
"517 189 CURVE SMOOTH",
"517 314 OFFCURVE",
"420 357 OFFCURVE",
"294 410 CURVE SMOOTH",
"231 436 OFFCURVE",
"184 450 OFFCURVE",
"184 507 CURVE SMOOTH",
"184 552 OFFCURVE",
"214 576 OFFCURVE",
"291 576 CURVE SMOOTH",
"327 576 OFFCURVE",
"355 570 OFFCURVE",
"384 558 CURVE",
"405 451 LINE",
"481 451 LINE",
"481 643 LINE",
"442 653 OFFCURVE",
"361 668 OFFCURVE",
"284 668 CURVE SMOOTH",
"135 668 OFFCURVE",
"42 588 OFFCURVE",
"42 474 CURVE SMOOTH",
"42 337 OFFCURVE",
"149 305 OFFCURVE",
"251 260 CURVE SMOOTH",
"351 216 OFFCURVE",
"382 191 OFFCURVE",
"382 149 CURVE SMOOTH",
"382 98 OFFCURVE",
"340 71 OFFCURVE",
"261 71 CURVE SMOOTH",
"210 71 OFFCURVE",
"165 89 OFFCURVE",
"141 115 CURVE",
"118 219 LINE",
"43 219 LINE",
"43 29 LINE",
"64 18 OFFCURVE",
"138 -19 OFFCURVE",
"263 -19 CURVE SMOOTH"
);
}
);
width = 542;
}
);
leftKerningGroup = S;
rightKerningGroup = S;
unicode = 0053;
},
{
glyphname = Scedilla;
layers = (
{
layerId = "4c090d2b-0954-42f9-b8fa-9b61004e66c3";
paths = (
{
closed = 1;
nodes = (
"292 -185 OFFCURVE",
"361 -167 OFFCURVE",
"361 -94 CURVE SMOOTH",
"361 -50 OFFCURVE",
"325 -41 OFFCURVE",
"288 -32 CURVE",
"272 -29 LINE",
"272 -7 LINE",
"364 1 OFFCURVE",
"461 56 OFFCURVE",
"461 181 CURVE SMOOTH",
"461 304 OFFCURVE",
"372 339 OFFCURVE",
"294 367 CURVE SMOOTH",
"216 395 OFFCURVE",
"139 422 OFFCURVE",
"139 506 CURVE SMOOTH",
"139 562 OFFCURVE",
"163 606 OFFCURVE",
"267 606 CURVE SMOOTH",
"304 606 OFFCURVE",
"351 595 OFFCURVE",
"373 582 CURVE",
"391 491 LINE",
"435 491 LINE",
"435 633 LINE",
"415 643 OFFCURVE",
"336 658 OFFCURVE",
"272 658 CURVE SMOOTH",
"143 658 OFFCURVE",
"63 587 OFFCURVE",
"63 478 CURVE SMOOTH",
"63 353 OFFCURVE",
"167 327 OFFCURVE",
"256 295 CURVE SMOOTH",
"313 275 OFFCURVE",
"386 244 OFFCURVE",
"386 165 CURVE SMOOTH",
"386 65 OFFCURVE",
"335 44 OFFCURVE",
"242 44 CURVE SMOOTH",
"206 44 OFFCURVE",
"155 60 OFFCURVE",
"125 82 CURVE",
"112 181 LINE",
"62 181 LINE",
"62 47 LINE",
"90 19 OFFCURVE",
"164 -3 OFFCURVE",
"230 -7 CURVE",
"209 -58 LINE",
"227 -76 LINE",
"266 -84 LINE SMOOTH",
"287 -88 OFFCURVE",
"299 -91 OFFCURVE",
"299 -115 CURVE SMOOTH",
"299 -134 OFFCURVE",
"278 -146 OFFCURVE",
"234 -146 CURVE SMOOTH",
"211 -146 OFFCURVE",
"195 -141 OFFCURVE",
"182 -136 CURVE",
"167 -170 LINE",
"189 -179 OFFCURVE",
"209 -185 OFFCURVE",
"238 -185 CURVE"
);
}
);
width = 508;
},
{
layerId = "5be9d440-7da3-4849-9ff3-c66a194b28b9";
paths = (
{
closed = 1;
nodes = (
"345 -196 OFFCURVE",
"380 -162 OFFCURVE",
"380 -107 CURVE SMOOTH",
"380 -60 OFFCURVE",
"355 -46 OFFCURVE",
"313 -36 CURVE SMOOTH",
"291 -30 LINE",
"291 -17 LINE",
"401 -9 OFFCURVE",
"508 42 OFFCURVE",
"508 199 CURVE SMOOTH",
"508 314 OFFCURVE",
"417 364 OFFCURVE",
"293 415 CURVE SMOOTH",
"229 442 OFFCURVE",
"182 460 OFFCURVE",
"182 500 CURVE SMOOTH",
"182 552 OFFCURVE",
"200 576 OFFCURVE",
"285 576 CURVE SMOOTH",
"317 576 OFFCURVE",
"347 570 OFFCURVE",
"381 558 CURVE",
"402 451 LINE",
"478 451 LINE",
"478 643 LINE",
"439 653 OFFCURVE",
"356 668 OFFCURVE",
"278 668 CURVE SMOOTH",
"129 668 OFFCURVE",
"36 588 OFFCURVE",
"36 474 CURVE SMOOTH",
"36 335 OFFCURVE",
"149 292 OFFCURVE",
"243 253 CURVE SMOOTH",
"373 200 OFFCURVE",
"368 187 OFFCURVE",
"368 149 CURVE SMOOTH",
"368 103 OFFCURVE",
"345 71 OFFCURVE",
"255 71 CURVE SMOOTH",
"210 71 OFFCURVE",
"159 89 OFFCURVE",
"135 115 CURVE",
"112 219 LINE",
"37 219 LINE",
"37 29 LINE",
"57 19 OFFCURVE",
"122 -14 OFFCURVE",
"230 -18 CURVE",
"209 -66 LINE",
"233 -90 LINE",
"260 -95 LINE SMOOTH",
"274 -98 OFFCURVE",
"280 -105 OFFCURVE",
"280 -116 CURVE SMOOTH",
"280 -138 OFFCURVE",
"267 -140 OFFCURVE",
"253 -140 CURVE SMOOTH",
"231 -140 OFFCURVE",
"215 -137 OFFCURVE",
"190 -126 CURVE",
"168 -176 LINE",
"194 -190 OFFCURVE",
"217 -196 OFFCURVE",
"256 -196 CURVE"
);
}
);
width = 543;
}
);
leftKerningGroup = S;
rightKerningGroup = S;
unicode = 015E;
},
{
glyphname = Germandbls;
layers = (
{
anchors = (
{
name = bottom;
position = "{416, 0}";
},
{
name = top;
position = "{416, 648}";
}
);
layerId = "4c090d2b-0954-42f9-b8fa-9b61004e66c3";
paths = (
{
closed = 1;
nodes = (
"579 -8 OFFCURVE",
"670 57 OFFCURVE",
"670 175 CURVE SMOOTH",
"670 307 OFFCURVE",
"558 346 OFFCURVE",
"456 346 CURVE",
"456 357 LINE",
"618 569 LINE",
"618 630 LINE",
"534 653 OFFCURVE",
"459 658 OFFCURVE",
"414 658 CURVE SMOOTH",
"206 658 OFFCURVE",
"117 533 OFFCURVE",
"117 342 CURVE SMOOTH",
"117 55 LINE",
"35 41 LINE",
"35 0 LINE",
"293 0 LINE",
"293 41 LINE",
"189 55 LINE",
"189 370 LINE SMOOTH",
"189 510 OFFCURVE",
"237 606 OFFCURVE",
"392 606 CURVE SMOOTH",
"436 606 OFFCURVE",
"491 598 OFFCURVE",
"537 585 CURVE",
"537 569 LINE",
"362 333 LINE",
"362 287 LINE",
"410 287 LINE SMOOTH",
"494 287 OFFCURVE",
"595 271 OFFCURVE",
"595 151 CURVE SMOOTH",
"595 87 OFFCURVE",
"566 44 OFFCURVE",
"499 44 CURVE SMOOTH",
"453 44 OFFCURVE",
"426 63 OFFCURVE",
"416 72 CURVE",
"402 171 LINE",
"352 171 LINE",
"352 37 LINE",
"378 12 OFFCURVE",
"445 -8 OFFCURVE",
"493 -8 CURVE SMOOTH"
);
}
);
width = 705;
},
{
anchors = (
{
name = bottom;
position = "{438, 0}";
},
{
name = top;
position = "{438, 648}";
}
);
layerId = "5be9d440-7da3-4849-9ff3-c66a194b28b9";
paths = (
{
closed = 1;
nodes = (
"594 -19 OFFCURVE",
"707 41 OFFCURVE",
"707 185 CURVE SMOOTH",
"707 275 OFFCURVE",
"663 352 OFFCURVE",
"534 376 CURVE",
"534 384 LINE",
"667 573 LINE",
"667 643 LINE",
"647 648 OFFCURVE",
"507 668 OFFCURVE",
"422 668 CURVE SMOOTH",
"205 668 OFFCURVE",
"85 533 OFFCURVE",
"85 343 CURVE SMOOTH",
"85 80 LINE",
"6 60 LINE",
"6 0 LINE",
"246 0 LINE",
"246 60 LINE",
"246 80 LINE",
"246 369 LINE SMOOTH",
"246 511 OFFCURVE",
"281 576 OFFCURVE",
"410 576 CURVE SMOOTH",
"446 576 OFFCURVE",
"475 572 OFFCURVE",
"500 569 CURVE",
"500 561 LINE",
"375 384 LINE",
"375 303 LINE",
"392 303 LINE SMOOTH",
"562 303 OFFCURVE",
"567 211 OFFCURVE",
"567 171 CURVE SMOOTH",
"567 119 OFFCURVE",
"547 71 OFFCURVE",
"487 71 CURVE SMOOTH",
"452 71 OFFCURVE",
"421 88 OFFCURVE",
"407 105 CURVE",
"384 209 LINE",
"309 209 LINE",
"309 19 LINE",
"325 11 OFFCURVE",
"395 -19 OFFCURVE",
"476 -19 CURVE"
);
}
);
width = 727;
}
);
leftKerningGroup = Germandbls;
rightKerningGroup = Germandbls;
unicode = 1E9E;
},
{
glyphname = Schwa;
layers = (
{
anchors = (
{
name = bottom;
position = "{347, 0}";
},
{
name = center;
position = "{347, 324}";
},
{
name = top;
position = "{347, 648}";
},
{
name = topright;
position = "{417, 648}";
}
);
layerId = "4c090d2b-0954-42f9-b8fa-9b61004e66c3";
paths = (
{
closed = 1;
nodes = (
"539 -12 OFFCURVE",
"616 153 OFFCURVE",
"616 333 CURVE SMOOTH",
"616 549 OFFCURVE",
"520 658 OFFCURVE",
"323 658 CURVE SMOOTH",
"202 658 OFFCURVE",
"148 633 OFFCURVE",
"108 616 CURVE",
"108 471 LINE",
"150 471 LINE",
"170 569 LINE",
"164 566 OFFCURVE",
"203 609 OFFCURVE",
"315 609 CURVE SMOOTH",
"444 609 OFFCURVE",
"522 496 OFFCURVE",
"530 357 CURVE",
"50 357 LINE",
"50 343 OFFCURVE",
"49 329 OFFCURVE",
"49 309 CURVE SMOOTH",
"49 119 OFFCURVE",
"144 -12 OFFCURVE",
"330 -12 CURVE"
);
},
{
closed = 1;
nodes = (
"213 39 OFFCURVE",
"135 118 OFFCURVE",
"133 307 CURVE",
"531 307 LINE",
"527 134 OFFCURVE",
"477 39 OFFCURVE",
"338 39 CURVE"
);
}
);
width = 662;
},
{
anchors = (
{
name = bottom;
position = "{356, 0}";
},
{
name = center;
position = "{356, 324}";
},
{
name = top;
position = "{356, 648}";
},
{
name = topright;
position = "{466, 648}";
}
);
layerId = "5be9d440-7da3-4849-9ff3-c66a194b28b9";
paths = (
{
closed = 1;
nodes = (
"513 -20 OFFCURVE",
"644 105 OFFCURVE",
"648 332 CURVE",
"644 553 OFFCURVE",
"539 668 OFFCURVE",
"338 668 CURVE SMOOTH",
"215 668 OFFCURVE",
"136 639 OFFCURVE",
"96 622 CURVE",
"96 433 LINE",
"178 433 LINE",
"202 558 LINE",
"233 571 OFFCURVE",
"272 576 OFFCURVE",
"308 576 CURVE SMOOTH",
"406 576 OFFCURVE",
"455 557 OFFCURVE",
"463 377 CURVE",
"36 377 LINE",
"33 357 OFFCURVE",
"32 335 OFFCURVE",
"32 314 CURVE SMOOTH",
"32 87 OFFCURVE",
"142 -20 OFFCURVE",
"321 -20 CURVE"
);
},
{
closed = 1;
nodes = (
"263 72 OFFCURVE",
"224 128 OFFCURVE",
"217 293 CURVE",
"464 293 LINE",
"462 116 OFFCURVE",
"423 72 OFFCURVE",
"348 72 CURVE"
);
}
);
width = 680;
}
);
leftKerningGroup = O;
leftMetricsKey = O;
rightKerningGroup = O;
rightMetricsKey = O;
unicode = 018F;
},
{
glyphname = T;
layers = (
{
anchors = (
{
name = bottom;
position = "{269, 0}";
},
{
name = center;
position = "{269, 324}";
},
{
name = top;
position = "{269, 648}";
}
);
layerId = "4c090d2b-0954-42f9-b8fa-9b61004e66c3";
paths = (
{
closed = 1;
nodes = (
"386 0 LINE",
"386 41 LINE",
"303 55 LINE",
"303 597 LINE",
"455 597 LINE",
"473 490 LINE",
"518 490 LINE",
"518 648 LINE",
"18 648 LINE",
"18 490 LINE",
"62 490 LINE",
"82 597 LINE",
"232 597 LINE",
"232 55 LINE",
"149 41 LINE",
"149 0 LINE"
);
}
);
width = 535;
},
{
anchors = (
{
name = bottom;
position = "{282, 0}";
},
{
name = center;
position = "{282, 324}";
},
{
name = top;
position = "{282, 648}";
}
);
layerId = "5be9d440-7da3-4849-9ff3-c66a194b28b9";
paths = (
{
closed = 1;
nodes = (
"447 0 LINE",
"447 60 LINE",
"368 80 LINE",
"368 564 LINE",
"468 564 LINE",
"497 452 LINE",
"569 452 LINE",
"569 648 LINE",
"2 648 LINE",
"2 452 LINE",
"73 452 LINE",
"102 564 LINE",
"207 564 LINE",
"207 80 LINE",
"128 60 LINE",
"128 0 LINE"
);
}
);
width = 570;
}
);
leftKerningGroup = T;
rightKerningGroup = T;
unicode = 0054;
},
{
glyphname = Tcedilla;
layers = (
{
background = {
paths = (
{
closed = 1;
nodes = (
"309 -185 OFFCURVE",
"377 -167 OFFCURVE",
"377 -94 CURVE SMOOTH",
"377 -50 OFFCURVE",
"342 -41 OFFCURVE",
"304 -32 CURVE SMOOTH",
"288 -29 LINE",
"288 0 LINE",
"385 0 LINE",
"385 41 LINE",
"302 55 LINE",
"302 595 LINE",
"454 595 LINE",
"472 490 LINE",
"516 490 LINE",
"516 648 LINE",
"16 648 LINE",
"16 490 LINE",
"61 490 LINE",
"80 595 LINE",
"230 595 LINE",
"230 55 LINE",
"147 41 LINE",
"147 0 LINE",
"249 0 LINE",
"225 -58 LINE",
"243 -76 LINE",
"282 -84 LINE SMOOTH",
"304 -88 OFFCURVE",
"316 -91 OFFCURVE",
"316 -115 CURVE SMOOTH",
"316 -134 OFFCURVE",
"294 -146 OFFCURVE",
"250 -146 CURVE SMOOTH",
"227 -146 OFFCURVE",
"211 -141 OFFCURVE",
"198 -136 CURVE",
"183 -170 LINE",
"206 -179 OFFCURVE",
"225 -185 OFFCURVE",
"255 -185 CURVE"
);
}
);
};
components = (
{
name = T;
},
{
name = cedillacomb.case;
transform = "{1, 0, 0, 1, 182, 0}";
}
);
layerId = "4c090d2b-0954-42f9-b8fa-9b61004e66c3";
width = 535;
},
{
background = {
paths = (
{
closed = 1;
nodes = (
"371 -196 OFFCURVE",
"406 -162 OFFCURVE",
"406 -107 CURVE SMOOTH",
"406 -60 OFFCURVE",
"382 -46 OFFCURVE",
"339 -36 CURVE SMOOTH",
"317 -30 LINE",
"317 0 LINE",
"454 0 LINE",
"454 60 LINE",
"374 80 LINE",
"374 566 LINE",
"474 566 LINE",
"504 452 LINE",
"576 452 LINE",
"576 648 LINE",
"8 648 LINE",
"8 452 LINE",
"80 452 LINE",
"109 566 LINE",
"214 566 LINE",
"214 80 LINE",
"134 60 LINE",
"134 0 LINE",
"265 0 LINE",
"235 -66 LINE",
"259 -90 LINE",
"286 -95 LINE SMOOTH",
"300 -98 OFFCURVE",
"306 -105 OFFCURVE",
"306 -116 CURVE SMOOTH",
"306 -138 OFFCURVE",
"293 -140 OFFCURVE",
"279 -140 CURVE SMOOTH",
"257 -140 OFFCURVE",
"241 -137 OFFCURVE",
"216 -126 CURVE",
"194 -176 LINE",
"220 -190 OFFCURVE",
"243 -196 OFFCURVE",
"282 -196 CURVE"
);
}
);
};
components = (
{
name = T;
},
{
name = cedillacomb.case;
transform = "{1, 0, 0, 1, 192, 0}";
}
);
layerId = "5be9d440-7da3-4849-9ff3-c66a194b28b9";
width = 570;
}
);
leftKerningGroup = T;
rightKerningGroup = T;
unicode = 0162;
},
{
glyphname = U;
layers = (
{
anchors = (
{
name = bottom;
position = "{366, 0}";
},
{
name = ogonek;
position = "{483, 0}";
},
{
name = top;
position = "{366, 648}";
},
{
name = topright;
position = "{695, 648}";
}
);
layerId = "4c090d2b-0954-42f9-b8fa-9b61004e66c3";
paths = (
{
closed = 1;
nodes = (
"571 -12 OFFCURVE",
"613 92 OFFCURVE",
"613 278 CURVE SMOOTH",
"613 591 LINE",
"695 606 LINE",
"695 648 LINE",
"474 648 LINE",
"474 606 LINE",
"557 591 LINE",
"557 278 LINE SMOOTH",
"557 130 OFFCURVE",
"524 49 OFFCURVE",
"389 49 CURVE SMOOTH",
"239 49 OFFCURVE",
"205 100 OFFCURVE",
"205 278 CURVE SMOOTH",
"205 593 LINE",
"289 607 LINE",
"289 648 LINE",
"50 648 LINE",
"50 607 LINE",
"132 593 LINE",
"132 278 LINE SMOOTH",
"132 92 OFFCURVE",
"170 -12 OFFCURVE",
"355 -12 CURVE SMOOTH"
);
}
);
width = 744;
},
{
anchors = (
{
name = bottom;
position = "{336, 0}";
},
{
name = ogonek;
position = "{484, 0}";
},
{
name = top;
position = "{336, 648}";
},
{
name = topright;
position = "{678, 648}";
}
);
layerId = "5be9d440-7da3-4849-9ff3-c66a194b28b9";
paths = (
{
closed = 1;
nodes = (
"530 -20 OFFCURVE",
"598 65 OFFCURVE",
"598 278 CURVE SMOOTH",
"598 568 LINE",
"678 587 LINE",
"678 648 LINE",
"408 648 LINE",
"408 587 LINE",
"486 568 LINE",
"486 278 LINE SMOOTH",
"486 109 OFFCURVE",
"453 74 OFFCURVE",
"367 74 CURVE SMOOTH",
"266 74 OFFCURVE",
"231 104 OFFCURVE",
"231 278 CURVE SMOOTH",
"231 568 LINE",
"302 588 LINE",
"302 648 LINE",
"-9 648 LINE",
"-9 588 LINE",
"70 568 LINE",
"70 278 LINE SMOOTH",
"70 49 OFFCURVE",
"138 -20 OFFCURVE",
"352 -20 CURVE SMOOTH"
);
}
);
width = 668;
}
);
leftKerningGroup = U;
rightKerningGroup = U;
unicode = 0055;
},
{
glyphname = Uhorn;
layers = (
{
anchors = (
{
name = bottom;
position = "{372, 0}";
},
{
name = top;
position = "{372, 648}";
}
);
layerId = "4c090d2b-0954-42f9-b8fa-9b61004e66c3";
paths = (
{
closed = 1;
nodes = (
"571 -12 OFFCURVE",
"613 92 OFFCURVE",
"613 278 CURVE SMOOTH",
"613 591 LINE",
"764 621 OFFCURVE",
"798 664 OFFCURVE",
"798 713 CURVE SMOOTH",
"798 754 OFFCURVE",
"781 764 OFFCURVE",
"766 775 CURVE",
"716 739 LINE",
"716 724 LINE",
"730 714 OFFCURVE",
"739 706 OFFCURVE",
"739 688 CURVE SMOOTH",
"739 657 OFFCURVE",
"715 648 OFFCURVE",
"677 648 CURVE SMOOTH",
"474 648 LINE",
"474 606 LINE",
"557 591 LINE",
"557 278 LINE SMOOTH",
"557 130 OFFCURVE",
"524 49 OFFCURVE",
"389 49 CURVE SMOOTH",
"239 49 OFFCURVE",
"205 100 OFFCURVE",
"205 278 CURVE SMOOTH",
"205 593 LINE",
"289 607 LINE",
"289 648 LINE",
"50 648 LINE",
"50 607 LINE",
"132 593 LINE",
"132 278 LINE SMOOTH",
"132 92 OFFCURVE",
"170 -12 OFFCURVE",
"355 -12 CURVE"
);
}
);
width = 744;
},
{
anchors = (
{
name = bottom;
position = "{335, 0}";
},
{
name = top;
position = "{335, 648}";
}
);
layerId = "5be9d440-7da3-4849-9ff3-c66a194b28b9";
paths = (
{
closed = 1;
nodes = (
"533 -20 OFFCURVE",
"598 65 OFFCURVE",
"598 278 CURVE SMOOTH",
"598 573 LINE",
"700 626 OFFCURVE",
"721 683 OFFCURVE",
"721 719 CURVE SMOOTH",
"721 760 OFFCURVE",
"690 778 OFFCURVE",
"688 780 CURVE",
"609 729 LINE",
"609 714 LINE",
"615 708 OFFCURVE",
"620 701 OFFCURVE",
"620 687 CURVE SMOOTH",
"620 656 OFFCURVE",
"619 648 OFFCURVE",
"549 648 CURVE SMOOTH",
"408 648 LINE",
"408 587 LINE",
"486 568 LINE",
"486 278 LINE SMOOTH",
"486 100 OFFCURVE",
"453 74 OFFCURVE",
"367 74 CURVE SMOOTH",
"266 74 OFFCURVE",
"231 104 OFFCURVE",
"231 278 CURVE SMOOTH",
"231 568 LINE",
"302 588 LINE",
"302 648 LINE",
"-9 648 LINE",
"-9 588 LINE",
"70 568 LINE",
"70 278 LINE SMOOTH",
"70 52 OFFCURVE",
"141 -20 OFFCURVE",
"352 -20 CURVE"
);
}
);
width = 669;
}
);
leftKerningGroup = U;
leftMetricsKey = U;
rightKerningGroup = U;
unicode = 01AF;
},
{
glyphname = Uogonek;
layers = (
{
background = {
paths = (
{
closed = 1;
nodes = (
"494 -187 OFFCURVE",
"532 -156 OFFCURVE",
"550 -136 CURVE",
"534 -109 LINE",
"514 -120 OFFCURVE",
"492 -130 OFFCURVE",
"475 -130 CURVE SMOOTH",
"447 -130 OFFCURVE",
"430 -116 OFFCURVE",
"430 -84 CURVE SMOOTH",
"430 -32 OFFCURVE",
"504 9 OFFCURVE",
"507 13 CURVE",
"597 53 OFFCURVE",
"619 144 OFFCURVE",
"619 278 CURVE SMOOTH",
"619 591 LINE",
"701 606 LINE",
"701 648 LINE",
"480 648 LINE",
"480 606 LINE",
"563 591 LINE",
"563 278 LINE",
"564 138 OFFCURVE",
"526 49 OFFCURVE",
"395 49 CURVE SMOOTH",
"245 49 OFFCURVE",
"211 100 OFFCURVE",
"211 278 CURVE SMOOTH",
"211 593 LINE",
"295 607 LINE",
"295 648 LINE",
"56 648 LINE",
"56 607 LINE",
"138 593 LINE",
"138 278 LINE SMOOTH",
"138 92 OFFCURVE",
"176 -12 OFFCURVE",
"361 -12 CURVE SMOOTH",
"388 -12 OFFCURVE",
"413 -11 OFFCURVE",
"436 -7 CURVE",
"400 -31 OFFCURVE",
"371 -67 OFFCURVE",
"371 -113 CURVE SMOOTH",
"371 -162 OFFCURVE",
"405 -187 OFFCURVE",
"451 -187 CURVE"
);
}
);
};
components = (
{
name = U;
},
{
name = ogonekcomb.case;
transform = "{1, 0, 0, 1, 366, 0}";
}
);
layerId = "4c090d2b-0954-42f9-b8fa-9b61004e66c3";
width = 744;
},
{
background = {
paths = (
{
closed = 1;
nodes = (
"471 -187 OFFCURVE",
"518 -169 OFFCURVE",
"544 -136 CURVE",
"518 -91 LINE",
"500 -102 OFFCURVE",
"482 -111 OFFCURVE",
"467 -111 CURVE SMOOTH",
"442 -111 OFFCURVE",
"435 -96 OFFCURVE",
"435 -80 CURVE SMOOTH",
"435 -75 OFFCURVE",
"420 -29 OFFCURVE",
"491 13 CURVE",
"562 59 OFFCURVE",
"596 143 OFFCURVE",
"596 278 CURVE SMOOTH",
"596 568 LINE",
"676 587 LINE",
"676 648 LINE",
"406 648 LINE",
"406 587 LINE",
"484 568 LINE",
"482 278 LINE SMOOTH",
"480 100 OFFCURVE",
"457 74 OFFCURVE",
"365 74 CURVE SMOOTH",
"264 74 OFFCURVE",
"229 104 OFFCURVE",
"229 278 CURVE SMOOTH",
"229 568 LINE",
"300 588 LINE",
"300 648 LINE",
"-11 648 LINE",
"-11 588 LINE",
"68 568 LINE",
"68 278 LINE SMOOTH",
"68 52 OFFCURVE",
"139 -20 OFFCURVE",
"350 -20 CURVE SMOOTH",
"361 -20 OFFCURVE",
"373 -19 OFFCURVE",
"383 -18 CURVE",
"355 -42 OFFCURVE",
"333 -73 OFFCURVE",
"333 -113 CURVE SMOOTH",
"333 -162 OFFCURVE",
"376 -187 OFFCURVE",
"435 -187 CURVE"
);
}
);
};
components = (
{
name = U;
},
{
name = ogonekcomb.case;
transform = "{1, 0, 0, 1, 334, 0}";
}
);
layerId = "5be9d440-7da3-4849-9ff3-c66a194b28b9";
width = 668;
}
);
leftKerningGroup = U;
rightKerningGroup = U;
unicode = 0172;
},
{
glyphname = V;
layers = (
{
anchors = (
{
name = bottom;
position = "{301, 0}";
},
{
name = top;
position = "{301, 648}";
}
);
layerId = "4c090d2b-0954-42f9-b8fa-9b61004e66c3";
paths = (
{
closed = 1;
nodes = (
"323 -3 LINE",
"547 595 LINE",
"605 612 LINE",
"605 648 LINE",
"403 648 LINE",
"403 612 LINE",
"486 594 LINE",
"330 155 LINE",
"317 115 LINE",
"313 115 LINE",
"299 155 LINE",
"141 594 LINE",
"217 612 LINE",
"217 648 LINE",
"-5 648 LINE",
"-5 612 LINE",
"56 595 LINE",
"288 -3 LINE"
);
}
);
width = 597;
},
{
anchors = (
{
name = bottom;
position = "{307, 0}";
},
{
name = top;
position = "{307, 648}";
}
);
layerId = "5be9d440-7da3-4849-9ff3-c66a194b28b9";
paths = (
{
closed = 1;
nodes = (
"389 -14 LINE",
"578 568 LINE",
"650 587 LINE",
"650 648 LINE",
"392 648 LINE",
"392 586 LINE",
"473 568 LINE",
"353 173 LINE",
"350 149 LINE",
"344 149 LINE",
"342 173 LINE",
"230 568 LINE",
"312 586 LINE",
"312 648 LINE",
"-21 648 LINE",
"-21 587 LINE",
"49 568 LINE",
"253 -14 LINE"
);
}
);
width = 629;
}
);
leftKerningGroup = V;
rightKerningGroup = V;
unicode = 0056;
},
{
glyphname = W;
layers = (
{
anchors = (
{
name = bottom;
position = "{453, 0}";
},
{
name = top;
position = "{448, 648}";
}
);
layerId = "4c090d2b-0954-42f9-b8fa-9b61004e66c3";
paths = (
{
closed = 1;
nodes = (
"300 -3 LINE",
"450 407 LINE",
"457 437 LINE",
"462 437 LINE",
"469 407 LINE",
"628 -3 LINE",
"673 -3 LINE",
"849 595 LINE",
"910 612 LINE",
"910 648 LINE",
"705 648 LINE",
"705 612 LINE",
"792 594 LINE",
"667 148 LINE",
"657 110 LINE",
"651 110 LINE",
"639 148 LINE",
"475 593 LINE",
"568 612 LINE",
"568 648 LINE",
"324 648 LINE",
"324 612 LINE",
"400 595 LINE",
"432 504 LINE",
"302 148 LINE",
"289 106 LINE",
"284 106 LINE",
"273 146 LINE",
"130 594 LINE",
"218 612 LINE",
"218 648 LINE",
"-5 648 LINE",
"-5 612 LINE",
"55 595 LINE",
"252 -3 LINE"
);
}
);
width = 902;
},
{
anchors = (
{
name = bottom;
position = "{512, 0}";
},
{
name = top;
position = "{542, 648}";
}
);
layerId = "5be9d440-7da3-4849-9ff3-c66a194b28b9";
paths = (
{
closed = 1;
nodes = (
"365 -14 LINE",
"504 361 LINE",
"514 406 LINE",
"522 406 LINE",
"532 361 LINE",
"684 -14 LINE",
"828 -14 LINE",
"991 571 LINE",
"1056 582 LINE",
"1056 648 LINE",
"785 648 LINE",
"785 579 LINE",
"879 568 LINE",
"792 202 LINE",
"783 155 LINE",
"774 155 LINE",
"763 201 LINE",
"620 568 LINE",
"703 579 LINE",
"703 648 LINE",
"386 648 LINE",
"386 580 LINE",
"458 568 LINE",
"465 551 LINE",
"344 210 LINE",
"331 163 LINE",
"322 163 LINE",
"313 210 LINE",
"219 568 LINE",
"300 579 LINE",
"300 648 LINE",
"-21 648 LINE",
"-21 587 LINE",
"42 575 LINE",
"226 -14 LINE"
);
}
);
width = 1035;
}
);
leftKerningGroup = V;
leftMetricsKey = V;
rightKerningGroup = V;
rightMetricsKey = V;
unicode = 0057;
},
{
glyphname = X;
layers = (
{
anchors = (
{
name = bottom;
position = "{281, 0}";
},
{
name = top;
position = "{298, 648}";
}
);
layerId = "4c090d2b-0954-42f9-b8fa-9b61004e66c3";
paths = (
{
closed = 1;
nodes = (
"588 0 LINE",
"588 42 LINE",
"523 55 LINE",
"166 573 LINE",
"166 594 LINE",
"224 606 LINE",
"224 648 LINE",
"13 648 LINE",
"13 606 LINE",
"77 584 LINE",
"433 68 LINE",
"433 56 LINE",
"358 42 LINE",
"358 0 LINE"
);
},
{
closed = 1;
nodes = (
"202 0 LINE",
"202 40 LINE",
"136 52 LINE",
"136 69 LINE",
"287 289 LINE",
"257 337 LINE",
"63 54 LINE",
"8 42 LINE",
"8 0 LINE"
);
},
{
closed = 1;
nodes = (
"519 597 LINE",
"579 610 LINE",
"579 648 LINE",
"371 648 LINE",
"371 608 LINE",
"442 596 LINE",
"442 576 LINE",
"295 371 LINE",
"322 323 LINE"
);
}
);
width = 586;
},
{
anchors = (
{
name = bottom;
position = "{283, 0}";
},
{
name = top;
position = "{359, 648}";
}
);
layerId = "5be9d440-7da3-4849-9ff3-c66a194b28b9";
paths = (
{
closed = 1;
nodes = (
"647 0 LINE",
"647 60 LINE",
"586 78 LINE",
"262 559 LINE",
"261 571 LINE",
"330 588 LINE",
"330 648 LINE",
"-4 648 LINE",
"-4 588 LINE",
"64 573 LINE",
"392 87 LINE",
"392 75 LINE",
"331 60 LINE",
"331 0 LINE"
);
},
{
closed = 1;
nodes = (
"255 0 LINE",
"255 60 LINE",
"185 75 LINE",
"185 85 LINE",
"302 246 LINE",
"253 323 LINE",
"74 79 LINE",
"-17 60 LINE",
"-17 0 LINE"
);
},
{
closed = 1;
nodes = (
"560 567 LINE",
"640 587 LINE",
"640 648 LINE",
"387 648 LINE",
"387 588 LINE",
"453 572 LINE",
"453 565 LINE",
"340 415 LINE",
"388 339 LINE"
);
}
);
width = 629;
}
);
leftKerningGroup = X;
rightKerningGroup = X;
unicode = 0058;
},
{
glyphname = Y;
layers = (
{
anchors = (
{
name = bottom;
position = "{296, 0}";
},
{
name = top;
position = "{306, 648}";
}
);
layerId = "4c090d2b-0954-42f9-b8fa-9b61004e66c3";
paths = (
{
closed = 1;
nodes = (
"414 0 LINE",
"414 41 LINE",
"332 55 LINE",
"332 237 LINE",
"535 597 LINE",
"580 611 LINE",
"580 648 LINE",
"381 648 LINE",
"381 611 LINE",
"462 595 LINE",
"462 577 LINE",
"305 287 LINE",
"302 287 LINE",
"139 576 LINE",
"139 595 LINE",
"226 611 LINE",
"226 648 LINE",
"-3 648 LINE",
"-3 611 LINE",
"50 595 LINE",
"260 230 LINE",
"260 55 LINE",
"177 41 LINE",
"177 0 LINE"
);
}
);
width = 576;
},
{
anchors = (
{
name = bottom;
position = "{312, 0}";
},
{
name = top;
position = "{326, 648}";
}
);
background = {
paths = (
{
closed = 1;
nodes = (
"472 0 LINE",
"472 60 LINE",
"392 80 LINE",
"392 241 LINE",
"564 568 LINE",
"640 588 LINE",
"640 648 LINE",
"380 648 LINE",
"380 587 LINE",
"460 571 LINE",
"460 566 LINE",
"352 343 LINE",
"332 343 LINE",
"229 558 LINE",
"229 572 LINE",
"281 587 LINE",
"281 648 LINE",
"-18 648 LINE",
"-18 587 LINE",
"50 571 LINE",
"232 245 LINE",
"232 80 LINE",
"152 60 LINE",
"152 0 LINE"
);
}
);
};
layerId = "5be9d440-7da3-4849-9ff3-c66a194b28b9";
paths = (
{
closed = 1;
nodes = (
"472 0 LINE",
"472 60 LINE",
"392 80 LINE",
"392 246 LINE",
"564 568 LINE",
"640 588 LINE",
"640 648 LINE",
"380 648 LINE",
"380 587 LINE",
"460 571 LINE",
"460 566 LINE",
"347 338 LINE",
"337 338 LINE",
"229 558 LINE",
"229 572 LINE",
"281 587 LINE",
"281 648 LINE",
"-18 648 LINE",
"-18 587 LINE",
"50 571 LINE",
"232 250 LINE",
"232 80 LINE",
"152 60 LINE",
"152 0 LINE"
);
}
);
width = 623;
}
);
leftKerningGroup = Y;
rightKerningGroup = Y;
unicode = 0059;
},
{
glyphname = Z;
layers = (
{
anchors = (
{
name = bottom;
position = "{285, 0}";
},
{
name = top;
position = "{293, 648}";
}
);
background = {
paths = (
{
closed = 1;
nodes = (
"527 0 LINE",
"527 156 LINE",
"483 156 LINE",
"452 52 LINE",
"134 52 LINE",
"522 606 LINE",
"522 648 LINE",
"53 648 LINE",
"53 492 LINE",
"97 492 LINE",
"128 596 LINE",
"431 596 LINE",
"43 42 LINE",
"43 0 LINE"
);
}
);
};
layerId = "4c090d2b-0954-42f9-b8fa-9b61004e66c3";
paths = (
{
closed = 1;
nodes = (
"527 0 LINE",
"527 156 LINE",
"483 156 LINE",
"452 52 LINE",
"136 52 LINE",
"136 58 LINE",
"522 606 LINE",
"522 648 LINE",
"53 648 LINE",
"53 492 LINE",
"97 492 LINE",
"128 596 LINE",
"430 596 LINE",
"430 590 LINE",
"43 42 LINE",
"43 0 LINE"
);
}
);
width = 569;
},
{
anchors = (
{
name = bottom;
position = "{253, 0}";
},
{
name = top;
position = "{271, 648}";
}
);
layerId = "5be9d440-7da3-4849-9ff3-c66a194b28b9";
paths = (
{
closed = 1;
nodes = (
"510 0 LINE",
"510 183 LINE",
"433 183 LINE",
"415 83 LINE",
"189 83 LINE",
"189 95 LINE",
"504 575 LINE",
"504 648 LINE",
"3 648 LINE",
"3 465 LINE",
"81 465 LINE",
"98 565 LINE",
"311 565 LINE",
"311 553 LINE",
"-4 73 LINE",
"-4 0 LINE"
);
}
);
width = 507;
}
);
leftKerningGroup = Z;
rightKerningGroup = Z;
unicode = 005A;
},
{
glyphname = Y.loclGUA;
layers = (
{
anchors = (
{
name = bottom;
position = "{372, 0}";
},
{
name = top;
position = "{372, 648}";
},
{
name = topright;
position = "{706, 648}";
}
);
layerId = "4c090d2b-0954-42f9-b8fa-9b61004e66c3";
paths = (
{
closed = 1;
nodes = (
"483 -13 OFFCURVE",
"593 46 OFFCURVE",
"593 251 CURVE SMOOTH",
"593 593 LINE",
"665 607 LINE",
"665 648 LINE",
"422 648 LINE",
"422 607 LINE",
"521 591 LINE",
"521 341 LINE",
"475 284 OFFCURVE",
"422 252 OFFCURVE",
"350 252 CURVE SMOOTH",
"237 252 OFFCURVE",
"211 340 OFFCURVE",
"211 457 CURVE SMOOTH",
"211 593 LINE",
"295 607 LINE",
"295 648 LINE",
"56 648 LINE",
"56 607 LINE",
"138 593 LINE",
"138 432 LINE SMOOTH",
"138 294 OFFCURVE",
"177 195 OFFCURVE",
"327 195 CURVE SMOOTH",
"413 195 OFFCURVE",
"471 223 OFFCURVE",
"538 285 CURVE",
"521 299 LINE",
"521 236 LINE SMOOTH",
"521 131 OFFCURVE",
"477 30 OFFCURVE",
"349 30 CURVE SMOOTH",
"302 30 OFFCURVE",
"257 44 OFFCURVE",
"203 74 CURVE",
"173 182 LINE",
"131 182 LINE",
"131 46 LINE",
"214 2 OFFCURVE",
"277 -13 OFFCURVE",
"345 -13 CURVE"
);
}
);
width = 720;
},
{
anchors = (
{
name = bottom;
position = "{334, 0}";
},
{
name = top;
position = "{334, 648}";
},
{
name = topright;
position = "{653, 648}";
}
);
layerId = "5be9d440-7da3-4849-9ff3-c66a194b28b9";
paths = (
{
closed = 1;
nodes = (
"579 -19 OFFCURVE",
"603 127 OFFCURVE",
"603 250 CURVE SMOOTH",
"603 568 LINE",
"685 588 LINE",
"685 648 LINE",
"367 648 LINE",
"367 588 LINE",
"442 568 LINE",
"442 317 LINE",
"413 316 OFFCURVE",
"382 316 OFFCURVE",
"360 316 CURVE SMOOTH",
"247 316 OFFCURVE",
"229 380 OFFCURVE",
"229 504 CURVE SMOOTH",
"229 568 LINE",
"300 588 LINE",
"300 648 LINE",
"-11 648 LINE",
"-11 588 LINE",
"68 568 LINE",
"68 511 LINE SMOOTH",
"68 302 OFFCURVE",
"139 220 OFFCURVE",
"351 220 CURVE SMOOTH",
"395 220 OFFCURVE",
"446 224 OFFCURVE",
"482 230 CURVE",
"442 279 LINE",
"442 255 LINE",
"441 130 OFFCURVE",
"427 75 OFFCURVE",
"301 75 CURVE SMOOTH",
"254 75 OFFCURVE",
"206 82 OFFCURVE",
"184 90 CURVE",
"159 215 LINE",
"81 215 LINE",
"81 26 LINE",
"109 10 OFFCURVE",
"202 -19 OFFCURVE",
"318 -19 CURVE"
);
}
);
width = 678;
}
);
leftKerningGroup = Y.loclGUA;
rightKerningGroup = Y.loclGUA;
},
{
glyphname = a;
layers = (
{
anchors = (
{
name = bottom;
position = "{235, 0}";
},
{
name = ogonek;
position = "{378, 0}";
},
{
name = top;
position = "{235, 494}";
}
);
layerId = "4c090d2b-0954-42f9-b8fa-9b61004e66c3";
paths = (
{
closed = 1;
nodes = (
"228 -6 OFFCURVE",
"276 17 OFFCURVE",
"308 42 CURVE",
"312 42 LINE",
"312 23 OFFCURVE",
"322 -4 OFFCURVE",
"354 -4 CURVE SMOOTH",
"407 -4 OFFCURVE",
"442 13 OFFCURVE",
"446 16 CURVE",
"446 51 LINE",
"376 65 LINE",
"376 393 LINE SMOOTH",
"376 446 OFFCURVE",
"336 503 OFFCURVE",
"256 503 CURVE SMOOTH",
"206 503 OFFCURVE",
"55 462 OFFCURVE",
"55 379 CURVE SMOOTH",
"55 355 OFFCURVE",
"77 336 OFFCURVE",
"95 336 CURVE SMOOTH",
"116 336 OFFCURVE",
"121 342 OFFCURVE",
"121 343 CURVE",
"137 435 LINE",
"140 436 OFFCURVE",
"168 444 OFFCURVE",
"203 444 CURVE SMOOTH",
"266 444 OFFCURVE",
"307 420 OFFCURVE",
"307 358 CURVE SMOOTH",
"307 280 LINE",
"221 269 LINE SMOOTH",
"94 253 OFFCURVE",
"39 198 OFFCURVE",
"39 117 CURVE SMOOTH",
"39 51 OFFCURVE",
"75 -6 OFFCURVE",
"177 -6 CURVE SMOOTH"
);
},
{
closed = 1;
nodes = (
"147 51 OFFCURVE",
"114 79 OFFCURVE",
"114 131 CURVE SMOOTH",
"114 201 OFFCURVE",
"181 229 OFFCURVE",
"307 238 CURVE",
"307 71 LINE",
"310 72 OFFCURVE",
"267 51 OFFCURVE",
"210 51 CURVE SMOOTH"
);
}
);
width = 470;
},
{
anchors = (
{
name = bottom;
position = "{267, 0}";
},
{
name = ogonek;
position = "{458, 0}";
},
{
name = top;
position = "{267, 494}";
}
);
layerId = "5be9d440-7da3-4849-9ff3-c66a194b28b9";
paths = (
{
closed = 1;
nodes = (
"250 -14 OFFCURVE",
"297 26 OFFCURVE",
"312 41 CURVE",
"319 41 LINE",
"331 9 OFFCURVE",
"351 -7 OFFCURVE",
"414 -7 CURVE SMOOTH",
"468 -7 OFFCURVE",
"524 13 OFFCURVE",
"530 16 CURVE",
"530 71 LINE",
"456 85 LINE",
"456 368 LINE SMOOTH",
"456 481 OFFCURVE",
"382 511 OFFCURVE",
"269 511 CURVE SMOOTH",
"181 511 OFFCURVE",
"50 469 OFFCURVE",
"50 379 CURVE SMOOTH",
"50 328 OFFCURVE",
"76 316 OFFCURVE",
"127 316 CURVE SMOOTH",
"157 316 OFFCURVE",
"184 325 OFFCURVE",
"187 327 CURVE",
"201 416 LINE",
"208 419 OFFCURVE",
"217 421 OFFCURVE",
"241 421 CURVE SMOOTH",
"303 421 OFFCURVE",
"307 384 OFFCURVE",
"307 348 CURVE SMOOTH",
"307 285 LINE",
"194 265 LINE SMOOTH",
"113 251 OFFCURVE",
"31 211 OFFCURVE",
"31 118 CURVE SMOOTH",
"31 50 OFFCURVE",
"74 -14 OFFCURVE",
"179 -14 CURVE SMOOTH"
);
},
{
closed = 1;
nodes = (
"211 81 OFFCURVE",
"189 100 OFFCURVE",
"189 137 CURVE SMOOTH",
"189 167 OFFCURVE",
"197 198 OFFCURVE",
"307 208 CURVE",
"307 97 LINE",
"290 87 OFFCURVE",
"273 81 OFFCURVE",
"252 81 CURVE SMOOTH"
);
}
);
width = 534;
}
);
leftKerningGroup = a;
rightKerningGroup = a;
unicode = 0061;
},
{
glyphname = ae;
layers = (
{
anchors = (
{
name = top;
position = "{377, 494}";
}
);
layerId = "4c090d2b-0954-42f9-b8fa-9b61004e66c3";
paths = (
{
closed = 1;
nodes = (
"260 -8 OFFCURVE",
"312 18 OFFCURVE",
"357 61 CURVE",
"388 18 OFFCURVE",
"437 -8 OFFCURVE",
"509 -8 CURVE SMOOTH",
"575 -8 OFFCURVE",
"632 11 OFFCURVE",
"662 40 CURVE",
"656 71 LINE",
"624 62 OFFCURVE",
"565 57 OFFCURVE",
"503 57 CURVE SMOOTH",
"383 57 OFFCURVE",
"381 156 OFFCURVE",
"381 223 CURVE",
"656 235 LINE",
"672 237 OFFCURVE",
"681 243 OFFCURVE",
"681 248 CURVE SMOOTH",
"681 412 OFFCURVE",
"647 503 OFFCURVE",
"516 503 CURVE SMOOTH",
"457 503 OFFCURVE",
"406 475 OFFCURVE",
"369 427 CURVE",
"352 470 OFFCURVE",
"310 503 OFFCURVE",
"256 503 CURVE SMOOTH",
"205 503 OFFCURVE",
"53 461 OFFCURVE",
"53 378 CURVE SMOOTH",
"53 345 OFFCURVE",
"71 336 OFFCURVE",
"90 336 CURVE SMOOTH",
"101 336 OFFCURVE",
"109 339 OFFCURVE",
"114 343 CURVE",
"138 429 LINE",
"152 432 OFFCURVE",
"179 436 OFFCURVE",
"203 436 CURVE SMOOTH",
"266 436 OFFCURVE",
"306 412 OFFCURVE",
"306 350 CURVE SMOOTH",
"306 271 LINE",
"259 268 LINE SMOOTH",
"102 260 OFFCURVE",
"39 197 OFFCURVE",
"39 117 CURVE SMOOTH",
"39 50 OFFCURVE",
"78 -8 OFFCURVE",
"179 -8 CURVE SMOOTH"
);
},
{
closed = 1;
nodes = (
"146 48 OFFCURVE",
"113 77 OFFCURVE",
"113 133 CURVE SMOOTH",
"113 199 OFFCURVE",
"177 219 OFFCURVE",
"306 223 CURVE",
"306 68 LINE",
"289 59 OFFCURVE",
"249 48 OFFCURVE",
"208 48 CURVE SMOOTH"
);
},
{
closed = 1;
nodes = (
"378 364 OFFCURVE",
"408 440 OFFCURVE",
"499 440 CURVE SMOOTH",
"575 440 OFFCURVE",
"610 424 OFFCURVE",
"610 329 CURVE SMOOTH",
"610 312 OFFCURVE",
"609 296 OFFCURVE",
"607 284 CURVE",
"379 272 LINE"
);
}
);
width = 721;
},
{
anchors = (
{
name = top;
position = "{402, 494}";
}
);
background = {
paths = (
{
closed = 0;
nodes = (
"307 279 LINE",
"246 273 LINE SMOOTH"
);
}
);
};
layerId = "5be9d440-7da3-4849-9ff3-c66a194b28b9";
paths = (
{
closed = 1;
nodes = (
"290 -14 OFFCURVE",
"353 35 OFFCURVE",
"363 43 CURVE",
"404 0 OFFCURVE",
"467 -13 OFFCURVE",
"550 -13 CURVE SMOOTH",
"671 -13 OFFCURVE",
"747 71 OFFCURVE",
"739 63 CURVE",
"717 108 LINE",
"725 110 OFFCURVE",
"683 81 OFFCURVE",
"594 81 CURVE SMOOTH",
"498 81 OFFCURVE",
"461 116 OFFCURVE",
"459 219 CURVE",
"696 225 LINE SMOOTH",
"731 226 OFFCURVE",
"749 238 OFFCURVE",
"749 324 CURVE SMOOTH",
"749 394 OFFCURVE",
"708 511 OFFCURVE",
"543 511 CURVE SMOOTH",
"493 511 OFFCURVE",
"447 498 OFFCURVE",
"412 477 CURVE",
"380 500 OFFCURVE",
"335 511 OFFCURVE",
"268 511 CURVE SMOOTH",
"174 511 OFFCURVE",
"50 471 OFFCURVE",
"50 379 CURVE SMOOTH",
"50 331 OFFCURVE",
"77 316 OFFCURVE",
"128 316 CURVE SMOOTH",
"157 316 OFFCURVE",
"184 325 OFFCURVE",
"189 327 CURVE",
"200 416 LINE",
"204 418 OFFCURVE",
"214 422 OFFCURVE",
"241 422 CURVE SMOOTH",
"304 422 OFFCURVE",
"307 393 OFFCURVE",
"307 350 CURVE SMOOTH",
"307 279 LINE",
"246 273 LINE SMOOTH",
"121 261 OFFCURVE",
"31 230 OFFCURVE",
"31 118 CURVE SMOOTH",
"31 50 OFFCURVE",
"74 -14 OFFCURVE",
"178 -14 CURVE SMOOTH"
);
},
{
closed = 1;
nodes = (
"211 81 OFFCURVE",
"189 100 OFFCURVE",
"189 137 CURVE SMOOTH",
"189 173 OFFCURVE",
"197 204 OFFCURVE",
"307 214 CURVE",
"307 92 LINE",
"290 85 OFFCURVE",
"273 81 OFFCURVE",
"252 81 CURVE SMOOTH"
);
},
{
closed = 1;
nodes = (
"464 365 OFFCURVE",
"475 419 OFFCURVE",
"540 419 CURVE SMOOTH",
"592 419 OFFCURVE",
"593 387 OFFCURVE",
"593 329 CURVE SMOOTH",
"593 323 OFFCURVE",
"592 315 OFFCURVE",
"590 303 CURVE",
"460 291 LINE"
);
}
);
width = 779;
}
);
leftKerningGroup = a;
leftMetricsKey = a;
rightKerningGroup = e;
rightMetricsKey = e;
unicode = 00E6;
},
{
glyphname = b;
layers = (
{
anchors = (
{
name = bottom;
position = "{256, 0}";
},
{
name = top;
position = "{108, 648}";
}
);
layerId = "4c090d2b-0954-42f9-b8fa-9b61004e66c3";
paths = (
{
closed = 1;
nodes = (
"374 -9 OFFCURVE",
"469 89 OFFCURVE",
"469 273 CURVE SMOOTH",
"469 434 OFFCURVE",
"392 503 OFFCURVE",
"281 503 CURVE SMOOTH",
"208 503 OFFCURVE",
"162 469 OFFCURVE",
"143 451 CURVE",
"143 458 LINE",
"143 476 LINE",
"143 685 LINE",
"118 699 LINE",
"-9 671 LINE",
"-9 637 LINE",
"74 625 LINE",
"74 -4 LINE",
"110 -4 LINE",
"135 36 LINE",
"142 36 LINE",
"155 25 OFFCURVE",
"195 -9 OFFCURVE",
"262 -9 CURVE SMOOTH"
);
},
{
closed = 1;
nodes = (
"208 48 OFFCURVE",
"161 63 OFFCURVE",
"143 70 CURVE",
"143 422 LINE",
"162 427 OFFCURVE",
"206 437 OFFCURVE",
"253 437 CURVE SMOOTH",
"357 437 OFFCURVE",
"392 374 OFFCURVE",
"392 246 CURVE SMOOTH",
"392 97 OFFCURVE",
"338 48 OFFCURVE",
"254 48 CURVE SMOOTH"
);
}
);
width = 498;
},
{
anchors = (
{
name = bottom;
position = "{276, 0}";
},
{
name = top;
position = "{138, 648}";
}
);
layerId = "5be9d440-7da3-4849-9ff3-c66a194b28b9";
paths = (
{
closed = 1;
nodes = (
"411 -8 OFFCURVE",
"525 83 OFFCURVE",
"525 292 CURVE SMOOTH",
"525 453 OFFCURVE",
"448 511 OFFCURVE",
"353 511 CURVE SMOOTH",
"279 511 OFFCURVE",
"217 468 OFFCURVE",
"204 459 CURVE",
"202 463 LINE",
"213 471 LINE",
"213 685 LINE",
"173 699 LINE",
"-17 677 LINE",
"-17 613 LINE",
"64 596 LINE",
"64 1 LINE",
"138 1 LINE",
"181 30 LINE",
"193 30 LINE",
"209 15 OFFCURVE",
"243 -8 OFFCURVE",
"303 -8 CURVE SMOOTH"
);
},
{
closed = 1;
nodes = (
"236 76 OFFCURVE",
"225 80 OFFCURVE",
"213 85 CURVE",
"213 402 LINE",
"224 407 OFFCURVE",
"246 415 OFFCURVE",
"277 415 CURVE SMOOTH",
"337 415 OFFCURVE",
"365 383 OFFCURVE",
"365 255 CURVE SMOOTH",
"365 117 OFFCURVE",
"334 76 OFFCURVE",
"262 76 CURVE SMOOTH"
);
}
);
width = 549;
}
);
leftKerningGroup = l;
rightKerningGroup = o;
rightMetricsKey = o;
unicode = 0062;
},
{
glyphname = c;
layers = (
{
anchors = (
{
name = bottom;
position = "{216, 0}";
},
{
name = top;
position = "{234, 494}";
}
);
layerId = "4c090d2b-0954-42f9-b8fa-9b61004e66c3";
paths = (
{
closed = 1;
nodes = (
"336 -8 OFFCURVE",
"387 46 OFFCURVE",
"393 53 CURVE",
"381 79 LINE",
"376 76 OFFCURVE",
"332 57 OFFCURVE",
"269 57 CURVE SMOOTH",
"164 57 OFFCURVE",
"102 102 OFFCURVE",
"102 241 CURVE SMOOTH",
"102 381 OFFCURVE",
"131 451 OFFCURVE",
"242 451 CURVE SMOOTH",
"279 451 OFFCURVE",
"306 441 OFFCURVE",
"312 437 CURVE",
"327 345 LINE",
"331 342 OFFCURVE",
"339 338 OFFCURVE",
"354 338 CURVE SMOOTH",
"376 338 OFFCURVE",
"396 357 OFFCURVE",
"396 379 CURVE SMOOTH",
"396 440 OFFCURVE",
"351 503 OFFCURVE",
"249 503 CURVE SMOOTH",
"91 503 OFFCURVE",
"26 362 OFFCURVE",
"26 233 CURVE SMOOTH",
"26 72 OFFCURVE",
"118 -8 OFFCURVE",
"235 -8 CURVE SMOOTH"
);
}
);
width = 435;
},
{
anchors = (
{
name = bottom;
position = "{265, 0}";
},
{
name = top;
position = "{263, 494}";
}
);
layerId = "5be9d440-7da3-4849-9ff3-c66a194b28b9";
paths = (
{
closed = 1;
nodes = (
"362 -13 OFFCURVE",
"425 43 OFFCURVE",
"431 49 CURVE",
"411 95 LINE",
"397 90 OFFCURVE",
"370 81 OFFCURVE",
"308 81 CURVE SMOOTH",
"188 81 OFFCURVE",
"179 148 OFFCURVE",
"179 271 CURVE SMOOTH",
"179 397 OFFCURVE",
"208 419 OFFCURVE",
"265 419 CURVE SMOOTH",
"283 419 OFFCURVE",
"293 417 OFFCURVE",
"298 415 CURVE",
"317 316 LINE",
"319 315 OFFCURVE",
"340 309 OFFCURVE",
"353 309 CURVE SMOOTH",
"434 309 OFFCURVE",
"444 339 OFFCURVE",
"444 378 CURVE SMOOTH",
"444 467 OFFCURVE",
"357 511 OFFCURVE",
"259 511 CURVE SMOOTH",
"174 511 OFFCURVE",
"19 460 OFFCURVE",
"19 238 CURVE SMOOTH",
"19 70 OFFCURVE",
"89 -13 OFFCURVE",
"258 -13 CURVE SMOOTH"
);
}
);
width = 459;
}
);
leftKerningGroup = o;
rightKerningGroup = c;
unicode = 0063;
},
{
glyphname = d;
layers = (
{
anchors = (
{
name = bottom;
position = "{247, 0}";
},
{
name = center;
position = "{247, 247}";
},
{
name = top;
position = "{384, 648}";
},
{
name = topright;
position = "{455, 524}";
}
);
layerId = "4c090d2b-0954-42f9-b8fa-9b61004e66c3";
paths = (
{
closed = 1;
nodes = (
"283 -8 OFFCURVE",
"333 33 OFFCURVE",
"350 51 CURVE",
"354 50 LINE",
"364 -3 LINE",
"487 16 LINE",
"487 50 LINE",
"419 65 LINE",
"419 685 LINE",
"393 699 LINE",
"267 682 LINE",
"267 648 LINE",
"350 625 LINE",
"350 492 LINE",
"350 476 LINE",
"350 459 LINE",
"336 472 OFFCURVE",
"300 503 OFFCURVE",
"237 503 CURVE SMOOTH",
"152 503 OFFCURVE",
"25 434 OFFCURVE",
"25 217 CURVE SMOOTH",
"25 56 OFFCURVE",
"116 -8 OFFCURVE",
"209 -8 CURVE SMOOTH"
);
},
{
closed = 1;
nodes = (
"130 55 OFFCURVE",
"100 124 OFFCURVE",
"100 253 CURVE SMOOTH",
"100 404 OFFCURVE",
"164 445 OFFCURVE",
"251 445 CURVE SMOOTH",
"295 445 OFFCURVE",
"332 436 OFFCURVE",
"350 428 CURVE",
"350 85 LINE",
"330 74 OFFCURVE",
"281 55 OFFCURVE",
"233 55 CURVE SMOOTH"
);
}
);
width = 512;
},
{
anchors = (
{
name = bottom;
position = "{287, 0}";
},
{
name = center;
position = "{287, 247}";
},
{
name = top;
position = "{411, 648}";
},
{
name = topright;
position = "{521, 524}";
}
);
layerId = "5be9d440-7da3-4849-9ff3-c66a194b28b9";
paths = (
{
closed = 1;
nodes = (
"286 -13 OFFCURVE",
"328 15 OFFCURVE",
"351 39 CURVE",
"354 39 LINE",
"381 -9 LINE",
"570 15 LINE",
"570 79 LINE",
"486 95 LINE",
"486 685 LINE",
"446 699 LINE",
"256 683 LINE",
"256 619 LINE",
"337 596 LINE",
"337 492 LINE",
"346 485 LINE",
"343 482 LINE",
"324 496 OFFCURVE",
"293 511 OFFCURVE",
"248 511 CURVE SMOOTH",
"125 511 OFFCURVE",
"25 416 OFFCURVE",
"25 222 CURVE SMOOTH",
"25 61 OFFCURVE",
"96 -13 OFFCURVE",
"215 -13 CURVE SMOOTH"
);
},
{
closed = 1;
nodes = (
"215 82 OFFCURVE",
"184 109 OFFCURVE",
"184 236 CURVE SMOOTH",
"184 373 OFFCURVE",
"211 423 OFFCURVE",
"267 423 CURVE SMOOTH",
"293 423 OFFCURVE",
"317 419 OFFCURVE",
"337 414 CURVE",
"337 99 LINE",
"319 90 OFFCURVE",
"301 82 OFFCURVE",
"272 82 CURVE SMOOTH"
);
}
);
width = 576;
}
);
leftKerningGroup = o;
leftMetricsKey = o;
rightKerningGroup = d;
unicode = 0064;
},
{
glyphname = eth;
layers = (
{
layerId = "4c090d2b-0954-42f9-b8fa-9b61004e66c3";
paths = (
{
closed = 1;
nodes = (
"377 -8 OFFCURVE",
"460 103 OFFCURVE",
"460 309 CURVE SMOOTH",
"460 489 OFFCURVE",
"404 589 OFFCURVE",
"331 640 CURVE",
"406 690 LINE",
"382 724 LINE",
"290 661 LINE",
"254 678 OFFCURVE",
"215 685 OFFCURVE",
"178 685 CURVE SMOOTH",
"137 685 OFFCURVE",
"110 681 OFFCURVE",
"101 678 CURVE",
"101 644 LINE",
"158 644 OFFCURVE",
"204 639 OFFCURVE",
"240 625 CURVE",
"156 568 LINE",
"181 536 LINE",
"281 605 LINE",
"335 567 OFFCURVE",
"362 508 OFFCURVE",
"374 442 CURVE",
"349 454 OFFCURVE",
"305 474 OFFCURVE",
"263 474 CURVE SMOOTH",
"109 474 OFFCURVE",
"25 376 OFFCURVE",
"25 240 CURVE SMOOTH",
"25 97 OFFCURVE",
"94 -8 OFFCURVE",
"235 -8 CURVE SMOOTH"
);
},
{
closed = 1;
nodes = (
"107 46 OFFCURVE",
"101 168 OFFCURVE",
"101 260 CURVE SMOOTH",
"101 371 OFFCURVE",
"137 416 OFFCURVE",
"256 416 CURVE SMOOTH",
"307 416 OFFCURVE",
"343 403 OFFCURVE",
"380 389 CURVE",
"384 346 OFFCURVE",
"383 320 OFFCURVE",
"383 295 CURVE SMOOTH",
"383 137 OFFCURVE",
"355 46 OFFCURVE",
"247 46 CURVE SMOOTH"
);
}
);
width = 489;
},
{
layerId = "5be9d440-7da3-4849-9ff3-c66a194b28b9";
paths = (
{
closed = 1;
nodes = (
"417 -16 OFFCURVE",
"517 50 OFFCURVE",
"517 323 CURVE SMOOTH",
"517 435 OFFCURVE",
"493 536 OFFCURVE",
"416 615 CURVE",
"458 633 LINE",
"421 710 LINE",
"337 671 LINE",
"297 692 OFFCURVE",
"245 703 OFFCURVE",
"189 703 CURVE SMOOTH",
"140 703 OFFCURVE",
"107 698 OFFCURVE",
"103 697 CURVE",
"103 626 LINE",
"149 626 OFFCURVE",
"185 621 OFFCURVE",
"215 612 CURVE",
"147 582 LINE",
"183 504 LINE",
"299 558 LINE",
"315 536 OFFCURVE",
"325 508 OFFCURVE",
"334 474 CURVE",
"329 476 OFFCURVE",
"306 480 OFFCURVE",
"253 480 CURVE SMOOTH",
"135 480 OFFCURVE",
"25 408 OFFCURVE",
"25 227 CURVE SMOOTH",
"25 52 OFFCURVE",
"99 -16 OFFCURVE",
"280 -16 CURVE SMOOTH"
);
},
{
closed = 1;
nodes = (
"208 66 OFFCURVE",
"185 113 OFFCURVE",
"185 215 CURVE SMOOTH",
"185 312 OFFCURVE",
"201 393 OFFCURVE",
"274 393 CURVE SMOOTH",
"322 393 OFFCURVE",
"342 383 OFFCURVE",
"347 380 CURVE",
"348 376 OFFCURVE",
"356 312 OFFCURVE",
"356 226 CURVE SMOOTH",
"356 134 OFFCURVE",
"349 66 OFFCURVE",
"277 66 CURVE SMOOTH"
);
}
);
width = 541;
}
);
leftKerningGroup = o;
leftMetricsKey = o;
rightKerningGroup = o;
rightMetricsKey = o;
unicode = 00F0;
},
{
glyphname = dcroat;
layers = (
{
layerId = "4c090d2b-0954-42f9-b8fa-9b61004e66c3";
paths = (
{
closed = 1;
nodes = (
"280 -8 OFFCURVE",
"330 33 OFFCURVE",
"347 51 CURVE",
"351 50 LINE",
"362 -3 LINE",
"488 16 LINE",
"488 50 LINE",
"419 65 LINE",
"419 554 LINE",
"458 554 LINE",
"458 595 LINE",
"419 595 LINE",
"419 685 LINE",
"394 699 LINE",
"261 681 LINE",
"261 640 LINE",
"350 629 LINE",
"350 595 LINE",
"169 595 LINE",
"169 554 LINE",
"350 554 LINE",
"350 500 LINE",
"348 481 LINE",
"349 464 LINE",
"335 477 OFFCURVE",
"298 506 OFFCURVE",
"236 506 CURVE SMOOTH",
"152 506 OFFCURVE",
"25 435 OFFCURVE",
"25 217 CURVE SMOOTH",
"25 56 OFFCURVE",
"116 -8 OFFCURVE",
"208 -8 CURVE"
);
},
{
closed = 1;
nodes = (
"130 57 OFFCURVE",
"101 126 OFFCURVE",
"101 254 CURVE SMOOTH",
"101 406 OFFCURVE",
"165 448 OFFCURVE",
"252 448 CURVE SMOOTH",
"296 448 OFFCURVE",
"335 437 OFFCURVE",
"350 431 CURVE",
"350 85 LINE",
"331 76 OFFCURVE",
"282 57 OFFCURVE",
"234 57 CURVE"
);
}
);
width = 513;
},
{
layerId = "5be9d440-7da3-4849-9ff3-c66a194b28b9";
paths = (
{
closed = 1;
nodes = (
"289 -13 OFFCURVE",
"330 14 OFFCURVE",
"353 38 CURVE",
"357 39 LINE",
"381 -9 LINE",
"570 15 LINE",
"570 79 LINE",
"486 95 LINE",
"486 540 LINE",
"523 540 LINE",
"523 627 LINE",
"486 627 LINE",
"486 685 LINE",
"446 699 LINE",
"291 686 LINE",
"291 659 LINE",
"337 634 LINE",
"337 627 LINE",
"160 627 LINE",
"160 540 LINE",
"337 540 LINE",
"337 475 LINE",
"349 468 LINE",
"344 469 LINE",
"323 482 OFFCURVE",
"293 493 OFFCURVE",
"248 493 CURVE SMOOTH",
"125 493 OFFCURVE",
"25 408 OFFCURVE",
"25 222 CURVE SMOOTH",
"25 61 OFFCURVE",
"96 -13 OFFCURVE",
"215 -13 CURVE"
);
},
{
closed = 1;
nodes = (
"216 81 OFFCURVE",
"185 108 OFFCURVE",
"185 234 CURVE SMOOTH",
"185 363 OFFCURVE",
"209 403 OFFCURVE",
"267 403 CURVE SMOOTH",
"293 403 OFFCURVE",
"317 399 OFFCURVE",
"337 394 CURVE",
"337 99 LINE",
"319 89 OFFCURVE",
"301 81 OFFCURVE",
"272 81 CURVE"
);
}
);
width = 576;
}
);
leftKerningGroup = o;
leftMetricsKey = o;
rightKerningGroup = d;
rightMetricsKey = d;
unicode = 0111;
},
{
glyphname = e;
layers = (
{
anchors = (
{
name = bottom;
position = "{240, 0}";
},
{
name = ogonek;
position = "{315, 0}";
},
{
name = top;
position = "{240, 494}";
}
);
layerId = "4c090d2b-0954-42f9-b8fa-9b61004e66c3";
paths = (
{
closed = 1;
nodes = (
"328 -8 OFFCURVE",
"388 50 OFFCURVE",
"394 57 CURVE",
"381 81 LINE",
"377 78 OFFCURVE",
"335 57 OFFCURVE",
"264 57 CURVE SMOOTH",
"141 57 OFFCURVE",
"100 141 OFFCURVE",
"100 235 CURVE",
"353 235 LINE SMOOTH",
"391 235 OFFCURVE",
"401 253 OFFCURVE",
"401 326 CURVE SMOOTH",
"401 418 OFFCURVE",
"352 503 OFFCURVE",
"246 503 CURVE SMOOTH",
"116 503 OFFCURVE",
"25 393 OFFCURVE",
"25 232 CURVE SMOOTH",
"25 106 OFFCURVE",
"86 -8 OFFCURVE",
"235 -8 CURVE SMOOTH"
);
},
{
closed = 1;
nodes = (
"102 390 OFFCURVE",
"144 451 OFFCURVE",
"229 451 CURVE SMOOTH",
"311 451 OFFCURVE",
"335 404 OFFCURVE",
"335 326 CURVE SMOOTH",
"335 310 OFFCURVE",
"334 296 OFFCURVE",
"332 284 CURVE",
"102 276 LINE"
);
}
);
width = 441;
},
{
anchors = (
{
name = bottom;
position = "{264, 0}";
},
{
name = ogonek;
position = "{362, 0}";
},
{
name = top;
position = "{264, 494}";
}
);
layerId = "5be9d440-7da3-4849-9ff3-c66a194b28b9";
paths = (
{
closed = 1;
nodes = (
"385 -13 OFFCURVE",
"453 50 OFFCURVE",
"461 58 CURVE",
"440 105 LINE",
"435 102 OFFCURVE",
"393 81 OFFCURVE",
"308 81 CURVE SMOOTH",
"215 81 OFFCURVE",
"186 126 OFFCURVE",
"185 221 CURVE",
"428 221 LINE SMOOTH",
"457 221 OFFCURVE",
"474 235 OFFCURVE",
"474 303 CURVE SMOOTH",
"474 393 OFFCURVE",
"437 511 OFFCURVE",
"266 511 CURVE SMOOTH",
"125 511 OFFCURVE",
"25 413 OFFCURVE",
"25 240 CURVE SMOOTH",
"25 35 OFFCURVE",
"128 -13 OFFCURVE",
"274 -13 CURVE SMOOTH"
);
},
{
closed = 1;
nodes = (
"188 361 OFFCURVE",
"196 419 OFFCURVE",
"263 419 CURVE SMOOTH",
"311 419 OFFCURVE",
"319 393 OFFCURVE",
"319 331 CURVE SMOOTH",
"319 325 OFFCURVE",
"318 313 OFFCURVE",
"316 301 CURVE",
"184 293 LINE"
);
}
);
width = 504;
}
);
leftKerningGroup = o;
leftMetricsKey = o;
rightKerningGroup = e;
unicode = 0065;
},
{
glyphname = f;
layers = (
{
anchors = (
{
name = bottom;
position = "{115, 0}";
},
{
name = top;
position = "{144, 648}";
}
);
layerId = "4c090d2b-0954-42f9-b8fa-9b61004e66c3";
paths = (
{
closed = 1;
nodes = (
"253 0 LINE",
"253 37 LINE",
"149 53 LINE",
"149 443 LINE",
"263 443 LINE",
"276 466 LINE",
"276 492 LINE",
"149 492 LINE",
"149 613 LINE",
"166 622 OFFCURVE",
"193 624 OFFCURVE",
"216 624 CURVE SMOOTH",
"243 624 OFFCURVE",
"266 620 OFFCURVE",
"295 612 CURVE",
"306 617 OFFCURVE",
"320 635 OFFCURVE",
"320 656 CURVE SMOOTH",
"320 676 OFFCURVE",
"303 696 OFFCURVE",
"267 696 CURVE SMOOTH",
"163 696 OFFCURVE",
"84 611 OFFCURVE",
"79 494 CURVE",
"23 483 LINE",
"23 443 LINE",
"80 443 LINE",
"80 51 LINE",
"14 37 LINE",
"14 0 LINE"
);
}
);
width = 287;
},
{
anchors = (
{
name = bottom;
position = "{177, 0}";
},
{
name = top;
position = "{184, 648}";
}
);
layerId = "5be9d440-7da3-4849-9ff3-c66a194b28b9";
paths = (
{
closed = 1;
nodes = (
"356 0 LINE",
"356 64 LINE",
"252 78 LINE",
"252 417 LINE",
"370 417 LINE",
"383 460 LINE",
"383 503 LINE",
"249 503 LINE",
"249 599 LINE",
"254 600 OFFCURVE",
"259 600 OFFCURVE",
"265 600 CURVE SMOOTH",
"302 600 OFFCURVE",
"357 589 OFFCURVE",
"388 576 CURVE",
"400 581 OFFCURVE",
"430 601 OFFCURVE",
"430 640 CURVE SMOOTH",
"430 681 OFFCURVE",
"390 706 OFFCURVE",
"325 706 CURVE SMOOTH",
"211 706 OFFCURVE",
"118 622 OFFCURVE",
"103 507 CURVE",
"23 487 LINE",
"23 417 LINE",
"103 417 LINE",
"103 74 LINE",
"20 60 LINE",
"20 0 LINE"
);
}
);
width = 366;
}
);
leftKerningGroup = f;
rightKerningGroup = f;
unicode = 0066;
},
{
glyphname = g;
layers = (
{
anchors = (
{
name = bottom;
position = "{207, -156}";
},
{
name = top;
position = "{222, 494}";
}
);
layerId = "4c090d2b-0954-42f9-b8fa-9b61004e66c3";
paths = (
{
closed = 1;
nodes = (
"343 -166 OFFCURVE",
"446 -106 OFFCURVE",
"446 -8 CURVE SMOOTH",
"446 61 OFFCURVE",
"385 90 OFFCURVE",
"302 106 CURVE SMOOTH",
"200 126 LINE",
"200 189 LINE",
"212 189 LINE SMOOTH",
"307 189 OFFCURVE",
"393 250 OFFCURVE",
"393 348 CURVE SMOOTH",
"393 379 OFFCURVE",
"383 418 OFFCURVE",
"361 448 CURVE",
"379 448 OFFCURVE",
"387 447 OFFCURVE",
"409 443 CURVE",
"452 434 LINE",
"456 441 OFFCURVE",
"464 455 OFFCURVE",
"464 472 CURVE SMOOTH",
"464 501 OFFCURVE",
"448 514 OFFCURVE",
"422 514 CURVE SMOOTH",
"382 514 OFFCURVE",
"340 473 OFFCURVE",
"338 471 CURVE",
"314 491 OFFCURVE",
"275 503 OFFCURVE",
"229 503 CURVE SMOOTH",
"123 503 OFFCURVE",
"44 428 OFFCURVE",
"44 334 CURVE SMOOTH",
"44 271 OFFCURVE",
"79 210 OFFCURVE",
"166 193 CURVE",
"145 178 OFFCURVE",
"124 154 OFFCURVE",
"124 127 CURVE SMOOTH",
"124 105 OFFCURVE",
"136 86 OFFCURVE",
"146 77 CURVE",
"110 59 OFFCURVE",
"25 17 OFFCURVE",
"25 -55 CURVE SMOOTH",
"25 -135 OFFCURVE",
"118 -166 OFFCURVE",
"212 -166 CURVE SMOOTH"
);
},
{
closed = 1;
nodes = (
"142 -119 OFFCURVE",
"100 -97 OFFCURVE",
"100 -43 CURVE SMOOTH",
"100 -5 OFFCURVE",
"138 42 OFFCURVE",
"179 65 CURVE",
"309 39 LINE SMOOTH",
"372 26 OFFCURVE",
"383 -1 OFFCURVE",
"383 -27 CURVE SMOOTH",
"383 -86 OFFCURVE",
"326 -119 OFFCURVE",
"236 -119 CURVE SMOOTH"
);
},
{
closed = 1;
nodes = (
"151 242 OFFCURVE",
"112 270 OFFCURVE",
"112 342 CURVE SMOOTH",
"112 414 OFFCURVE",
"141 450 OFFCURVE",
"222 450 CURVE SMOOTH",
"298 450 OFFCURVE",
"327 412 OFFCURVE",
"327 348 CURVE SMOOTH",
"327 266 OFFCURVE",
"284 242 OFFCURVE",
"221 242 CURVE SMOOTH"
);
}
);
width = 456;
},
{
anchors = (
{
name = bottom;
position = "{249, -156}";
},
{
name = top;
position = "{229, 494}";
}
);
layerId = "5be9d440-7da3-4849-9ff3-c66a194b28b9";
paths = (
{
closed = 1;
nodes = (
"349 -166 OFFCURVE",
"481 -106 OFFCURVE",
"481 -8 CURVE SMOOTH",
"481 77 OFFCURVE",
"432 96 OFFCURVE",
"323 114 CURVE SMOOTH",
"203 134 LINE",
"203 169 LINE",
"217 169 LINE SMOOTH",
"345 169 OFFCURVE",
"436 243 OFFCURVE",
"436 343 CURVE SMOOTH",
"436 371 OFFCURVE",
"426 405 OFFCURVE",
"404 437 CURVE",
"420 437 OFFCURVE",
"432 427 OFFCURVE",
"444 415 CURVE",
"458 399 LINE",
"474 406 OFFCURVE",
"507 431 OFFCURVE",
"507 471 CURVE SMOOTH",
"507 502 OFFCURVE",
"491 522 OFFCURVE",
"454 522 CURVE SMOOTH",
"420 522 OFFCURVE",
"374 499 OFFCURVE",
"352 481 CURVE",
"322 499 OFFCURVE",
"284 509 OFFCURVE",
"236 509 CURVE SMOOTH",
"112 509 OFFCURVE",
"15 456 OFFCURVE",
"15 329 CURVE SMOOTH",
"15 270 OFFCURVE",
"53 197 OFFCURVE",
"137 177 CURVE",
"108 162 OFFCURVE",
"73 130 OFFCURVE",
"73 92 CURVE SMOOTH",
"73 78 OFFCURVE",
"75 64 OFFCURVE",
"84 52 CURVE",
"44 26 OFFCURVE",
"5 -7 OFFCURVE",
"5 -55 CURVE SMOOTH",
"5 -135 OFFCURVE",
"86 -166 OFFCURVE",
"217 -166 CURVE SMOOTH"
);
},
{
closed = 1;
nodes = (
"158 -90 OFFCURVE",
"137 -73 OFFCURVE",
"137 -37 CURVE SMOOTH",
"137 -16 OFFCURVE",
"141 5 OFFCURVE",
"145 20 CURVE",
"299 -5 LINE SMOOTH",
"333 -10 OFFCURVE",
"344 -23 OFFCURVE",
"344 -43 CURVE SMOOTH",
"344 -87 OFFCURVE",
"271 -90 OFFCURVE",
"240 -90 CURVE SMOOTH"
);
},
{
closed = 1;
nodes = (
"173 246 OFFCURVE",
"173 263 OFFCURVE",
"173 337 CURVE SMOOTH",
"173 422 OFFCURVE",
"178 430 OFFCURVE",
"227 430 CURVE SMOOTH",
"276 430 OFFCURVE",
"277 413 OFFCURVE",
"277 343 CURVE SMOOTH",
"277 260 OFFCURVE",
"270 246 OFFCURVE",
"221 246 CURVE SMOOTH"
);
}
);
width = 486;
}
);
leftKerningGroup = g;
rightKerningGroup = g;
unicode = 0067;
},
{
glyphname = h;
layers = (
{
anchors = (
{
name = bottom;
position = "{280, 0}";
},
{
name = center;
position = "{280, 247}";
},
{
name = top;
position = "{134, 648}";
}
);
layerId = "4c090d2b-0954-42f9-b8fa-9b61004e66c3";
paths = (
{
closed = 1;
nodes = (
"252 0 LINE",
"252 37 LINE",
"171 51 LINE",
"171 424 LINE",
"204 433 OFFCURVE",
"249 437 OFFCURVE",
"278 437 CURVE SMOOTH",
"350 437 OFFCURVE",
"390 422 OFFCURVE",
"390 355 CURVE SMOOTH",
"390 51 LINE",
"310 37 LINE",
"310 0 LINE",
"541 0 LINE",
"541 37 LINE",
"459 51 LINE",
"459 366 LINE SMOOTH",
"459 469 OFFCURVE",
"396 502 OFFCURVE",
"331 502 CURVE SMOOTH",
"287 502 OFFCURVE",
"221 483 OFFCURVE",
"171 455 CURVE",
"171 461 LINE",
"171 469 LINE",
"171 691 LINE",
"152 699 LINE",
"22 677 LINE",
"22 641 LINE",
"102 627 LINE",
"102 51 LINE",
"21 37 LINE",
"21 0 LINE"
);
}
);
width = 564;
},
{
anchors = (
{
name = bottom;
position = "{299, 0}";
},
{
name = center;
position = "{181, 576}";
},
{
name = top;
position = "{158, 648}";
}
);
layerId = "5be9d440-7da3-4849-9ff3-c66a194b28b9";
paths = (
{
closed = 1;
nodes = (
"300 0 LINE",
"300 60 LINE",
"238 74 LINE",
"238 410 LINE",
"255 414 OFFCURVE",
"284 417 OFFCURVE",
"307 417 CURVE SMOOTH",
"377 417 OFFCURVE",
"377 389 OFFCURVE",
"377 339 CURVE SMOOTH",
"377 74 LINE",
"315 60 LINE",
"315 0 LINE",
"598 0 LINE",
"598 60 LINE",
"526 74 LINE",
"526 367 LINE SMOOTH",
"526 469 OFFCURVE",
"475 511 OFFCURVE",
"381 511 CURVE SMOOTH",
"312 511 OFFCURVE",
"247 471 OFFCURVE",
"229 458 CURVE",
"226 463 LINE",
"238 470 LINE",
"238 683 LINE",
"197 699 LINE",
"8 676 LINE",
"8 612 LINE",
"89 595 LINE",
"89 74 LINE",
"11 60 LINE",
"11 0 LINE"
);
}
);
width = 603;
}
);
leftKerningGroup = l;
leftMetricsKey = l;
rightKerningGroup = n;
rightMetricsKey = n;
unicode = 0068;
},
{
glyphname = hbar;
layers = (
{
layerId = "4c090d2b-0954-42f9-b8fa-9b61004e66c3";
paths = (
{
closed = 1;
nodes = (
"260 0 LINE",
"260 37 LINE",
"179 51 LINE",
"179 426 LINE",
"174 425 OFFCURVE",
"236 440 OFFCURVE",
"286 440 CURVE SMOOTH",
"353 440 OFFCURVE",
"398 423 OFFCURVE",
"398 359 CURVE SMOOTH",
"398 51 LINE",
"318 37 LINE",
"318 0 LINE",
"549 0 LINE",
"549 37 LINE",
"467 51 LINE",
"467 370 LINE SMOOTH",
"467 472 OFFCURVE",
"402 506 OFFCURVE",
"339 506 CURVE SMOOTH",
"258 506 OFFCURVE",
"199 466 OFFCURVE",
"178 454 CURVE",
"179 463 LINE",
"179 471 LINE",
"179 556 LINE",
"317 556 LINE",
"317 596 LINE",
"179 596 LINE",
"179 685 LINE",
"153 699 LINE",
"21 681 LINE",
"21 640 LINE",
"110 629 LINE",
"110 596 LINE",
"28 596 LINE",
"28 556 LINE",
"110 556 LINE",
"110 51 LINE",
"29 37 LINE",
"29 0 LINE"
);
}
);
width = 567;
},
{
layerId = "5be9d440-7da3-4849-9ff3-c66a194b28b9";
paths = (
{
closed = 1;
nodes = (
"298 0 LINE",
"298 60 LINE",
"236 74 LINE",
"236 400 LINE",
"253 404 OFFCURVE",
"282 407 OFFCURVE",
"305 407 CURVE SMOOTH",
"375 407 OFFCURVE",
"375 379 OFFCURVE",
"375 331 CURVE SMOOTH",
"375 74 LINE",
"313 60 LINE",
"313 0 LINE",
"596 0 LINE",
"596 60 LINE",
"524 74 LINE",
"524 357 LINE SMOOTH",
"524 459 OFFCURVE",
"473 501 OFFCURVE",
"379 501 CURVE SMOOTH",
"310 501 OFFCURVE",
"245 461 OFFCURVE",
"227 448 CURVE",
"225 453 LINE",
"236 460 LINE",
"236 536 LINE",
"371 536 LINE",
"371 620 LINE",
"236 620 LINE",
"236 683 LINE",
"196 699 LINE",
"41 681 LINE",
"41 654 LINE",
"87 633 LINE",
"87 620 LINE",
"8 620 LINE",
"8 536 LINE",
"87 536 LINE",
"87 74 LINE",
"9 60 LINE",
"9 0 LINE"
);
}
);
width = 594;
}
);
leftKerningGroup = l;
leftMetricsKey = l;
rightKerningGroup = n;
unicode = 0127;
},
{
glyphname = idotless;
layers = (
{
anchors = (
{
name = bottom;
position = "{142, 0}";
},
{
name = ogonek;
position = "{167, 0}";
},
{
name = top;
position = "{136, 494}";
}
);
layerId = "4c090d2b-0954-42f9-b8fa-9b61004e66c3";
paths = (
{
closed = 1;
nodes = (
"257 0 LINE",
"257 37 LINE",
"177 51 LINE",
"177 483 LINE",
"157 491 LINE",
"28 462 LINE",
"28 425 LINE",
"108 412 LINE",
"108 51 LINE",
"27 37 LINE",
"27 0 LINE"
);
}
);
width = 285;
},
{
anchors = (
{
name = bottom;
position = "{175, 0}";
},
{
name = ogonek;
position = "{201, 0}";
},
{
name = top;
position = "{157, 494}";
}
);
layerId = "5be9d440-7da3-4849-9ff3-c66a194b28b9";
paths = (
{
closed = 1;
nodes = (
"317 0 LINE",
"317 60 LINE",
"250 74 LINE",
"250 494 LINE",
"208 510 LINE",
"19 489 LINE",
"19 425 LINE",
"101 408 LINE",
"101 74 LINE",
"22 60 LINE",
"22 0 LINE"
);
}
);
width = 323;
}
);
leftKerningGroup = n;
leftMetricsKey = n;
rightKerningGroup = i;
unicode = 0131;
},
{
glyphname = jdotless;
layers = (
{
anchors = (
{
name = bottom;
position = "{209, 0}";
},
{
name = top;
position = "{127, 494}";
}
);
layerId = "4c090d2b-0954-42f9-b8fa-9b61004e66c3";
paths = (
{
closed = 1;
nodes = (
"137 -164 OFFCURVE",
"173 -136 OFFCURVE",
"173 -84 CURVE SMOOTH",
"173 483 LINE",
"154 491 LINE",
"25 462 LINE",
"25 425 LINE",
"104 412 LINE",
"104 -95 LINE",
"-5 -121 LINE",
"-5 -156 LINE",
"9 -159 OFFCURVE",
"39 -164 OFFCURVE",
"70 -164 CURVE SMOOTH"
);
}
);
width = 260;
},
{
anchors = (
{
name = bottom;
position = "{326, 0}";
},
{
name = top;
position = "{166, 494}";
}
);
layerId = "5be9d440-7da3-4849-9ff3-c66a194b28b9";
paths = (
{
closed = 1;
nodes = (
"201 -170 OFFCURVE",
"241 -131 OFFCURVE",
"241 -78 CURVE SMOOTH",
"241 494 LINE",
"199 510 LINE",
"10 489 LINE",
"10 425 LINE",
"92 408 LINE",
"92 -72 LINE",
"-8 -94 LINE",
"-8 -150 LINE",
"14 -159 OFFCURVE",
"63 -170 OFFCURVE",
"114 -170 CURVE SMOOTH"
);
}
);
width = 303;
}
);
leftKerningGroup = j;
rightKerningGroup = j;
unicode = 0237;
},
{
glyphname = k;
layers = (
{
anchors = (
{
name = bottom;
position = "{256, 0}";
},
{
name = top;
position = "{136, 648}";
}
);
layerId = "4c090d2b-0954-42f9-b8fa-9b61004e66c3";
paths = (
{
closed = 1;
nodes = (
"253 0 LINE",
"253 37 LINE",
"170 51 LINE",
"170 243 LINE",
"231 243 LINE",
"346 40 LINE",
"349 36 OFFCURVE",
"352 28 OFFCURVE",
"352 18 CURVE SMOOTH",
"352 0 LINE",
"502 0 LINE",
"502 37 LINE",
"421 54 LINE",
"286 287 LINE",
"405 439 LINE",
"462 455 LINE",
"462 493 LINE",
"281 493 LINE",
"281 457 LINE",
"335 444 LINE",
"335 428 LINE",
"229 291 LINE",
"170 291 LINE",
"170 697 LINE",
"148 699 LINE",
"21 677 LINE",
"21 639 LINE",
"101 626 LINE",
"101 51 LINE",
"21 37 LINE",
"21 0 LINE"
);
}
);
width = 502;
},
{
anchors = (
{
name = bottom;
position = "{292, 0}";
},
{
name = top;
position = "{162, 648}";
}
);
layerId = "5be9d440-7da3-4849-9ff3-c66a194b28b9";
paths = (
{
closed = 1;
nodes = (
"291 0 LINE",
"291 60 LINE",
"237 74 LINE",
"237 234 LINE",
"250 234 LINE",
"350 56 LINE",
"358 44 OFFCURVE",
"361 33 OFFCURVE",
"361 19 CURVE SMOOTH",
"361 0 LINE",
"581 0 LINE",
"581 60 LINE",
"502 87 LINE",
"373 308 LINE",
"466 428 LINE",
"549 444 LINE",
"549 501 LINE",
"299 501 LINE",
"299 438 LINE",
"353 428 LINE",
"353 420 LINE",
"269 315 LINE",
"237 315 LINE",
"237 654 LINE",
"208 699 LINE",
"8 676 LINE",
"8 619 LINE",
"88 602 LINE",
"88 74 LINE",
"9 60 LINE",
"9 0 LINE"
);
}
);
width = 581;
}
);
leftKerningGroup = l;
leftMetricsKey = l;
rightKerningGroup = k;
unicode = 006B;
},
{
glyphname = kgreenlandic;
layers = (
{
anchors = (
{
name = bottom;
position = "{286, 0}";
},
{
name = top;
position = "{232, 494}";
}
);
layerId = "4c090d2b-0954-42f9-b8fa-9b61004e66c3";
paths = (
{
closed = 1;
nodes = (
"259 0 LINE",
"259 37 LINE",
"177 51 LINE",
"177 243 LINE",
"237 243 LINE",
"353 40 LINE",
"356 36 OFFCURVE",
"359 28 OFFCURVE",
"359 18 CURVE SMOOTH",
"359 0 LINE",
"508 0 LINE",
"508 37 LINE",
"428 54 LINE",
"293 287 LINE",
"411 439 LINE",
"468 455 LINE",
"468 493 LINE",
"287 493 LINE",
"287 457 LINE",
"347 444 LINE",
"347 428 LINE",
"237 291 LINE",
"177 291 LINE",
"177 483 LINE",
"157 491 LINE",
"28 462 LINE",
"28 425 LINE",
"108 412 LINE",
"108 51 LINE",
"27 37 LINE",
"27 0 LINE"
);
}
);
width = 508;
},
{
anchors = (
{
name = bottom;
position = "{308, 0}";
},
{
name = top;
position = "{282, 494}";
}
);
layerId = "5be9d440-7da3-4849-9ff3-c66a194b28b9";
paths = (
{
closed = 1;
nodes = (
"303 0 LINE",
"303 60 LINE",
"249 74 LINE",
"249 235 LINE",
"257 235 LINE",
"356 56 LINE",
"364 44 OFFCURVE",
"367 33 OFFCURVE",
"367 19 CURVE SMOOTH",
"367 0 LINE",
"594 0 LINE",
"594 60 LINE",
"505 87 LINE",
"381 300 LINE",
"485 428 LINE",
"561 444 LINE",
"561 501 LINE",
"312 501 LINE",
"312 438 LINE",
"365 428 LINE",
"365 420 LINE",
"281 315 LINE",
"249 315 LINE",
"249 494 LINE",
"207 510 LINE",
"19 489 LINE",
"19 425 LINE",
"100 408 LINE",
"100 74 LINE",
"21 60 LINE",
"21 0 LINE"
);
}
);
width = 594;
}
);
leftKerningGroup = n;
leftMetricsKey = n;
rightKerningGroup = k;
rightMetricsKey = k;
unicode = 0138;
},
{
glyphname = l;
layers = (
{
anchors = (
{
name = bottom;
position = "{135, 0}";
},
{
name = center;
position = "{135, 247}";
},
{
name = top;
position = "{135, 688}";
},
{
name = topright;
position = "{206, 524}";
}
);
layerId = "4c090d2b-0954-42f9-b8fa-9b61004e66c3";
paths = (
{
closed = 1;
nodes = (
"250 0 LINE",
"250 37 LINE",
"170 51 LINE",
"170 691 LINE",
"150 699 LINE",
"21 677 LINE",
"21 641 LINE",
"101 627 LINE",
"101 51 LINE",
"21 37 LINE",
"21 0 LINE"
);
}
);
width = 276;
},
{
anchors = (
{
name = bottom;
position = "{164, 0}";
},
{
name = center;
position = "{164, 247}";
},
{
name = top;
position = "{164, 698}";
},
{
name = topright;
position = "{271, 524}";
}
);
layerId = "5be9d440-7da3-4849-9ff3-c66a194b28b9";
paths = (
{
closed = 1;
nodes = (
"306 0 LINE",
"306 60 LINE",
"239 74 LINE",
"239 683 LINE",
"197 699 LINE",
"8 676 LINE",
"8 612 LINE",
"90 595 LINE",
"90 74 LINE",
"11 60 LINE",
"11 0 LINE"
);
}
);
width = 321;
}
);
leftKerningGroup = l;
rightKerningGroup = l;
unicode = 006C;
},
{
glyphname = lslash;
layers = (
{
components = (
{
name = l;
}
);
layerId = "4c090d2b-0954-42f9-b8fa-9b61004e66c3";
paths = (
{
closed = 1;
nodes = (
"276 371 LINE",
"276 416 LINE",
"0 317 LINE",
"0 272 LINE"
);
}
);
width = 276;
},
{
components = (
{
name = l;
}
);
layerId = "5be9d440-7da3-4849-9ff3-c66a194b28b9";
paths = (
{
closed = 1;
nodes = (
"321 387 LINE",
"321 447 LINE",
"0 332 LINE",
"0 272 LINE"
);
}
);
width = 321;
}
);
leftKerningGroup = l;
rightKerningGroup = l;
unicode = 0142;
},
{
glyphname = m;
layers = (
{
anchors = (
{
name = bottom;
position = "{414, 0}";
},
{
name = top;
position = "{416, 494}";
}
);
layerId = "4c090d2b-0954-42f9-b8fa-9b61004e66c3";
paths = (
{
closed = 1;
nodes = (
"257 0 LINE",
"257 37 LINE",
"176 51 LINE",
"176 424 LINE",
"212 435 OFFCURVE",
"257 437 OFFCURVE",
"281 437 CURVE SMOOTH",
"354 437 OFFCURVE",
"382 414 OFFCURVE",
"382 356 CURVE SMOOTH",
"382 51 LINE",
"319 36 LINE",
"319 0 LINE",
"512 0 LINE",
"512 36 LINE",
"451 51 LINE",
"451 404 LINE",
"451 410 OFFCURVE",
"451 418 OFFCURVE",
"451 424 CURVE",
"484 433 OFFCURVE",
"531 437 OFFCURVE",
"557 437 CURVE SMOOTH",
"630 437 OFFCURVE",
"660 413 OFFCURVE",
"660 356 CURVE SMOOTH",
"660 51 LINE",
"580 37 LINE",
"580 0 LINE",
"811 0 LINE",
"811 37 LINE",
"729 51 LINE",
"729 377 LINE SMOOTH",
"729 452 OFFCURVE",
"680 502 OFFCURVE",
"611 502 CURVE SMOOTH",
"550 502 OFFCURVE",
"476 470 OFFCURVE",
"434 449 CURVE",
"414 479 OFFCURVE",
"382 502 OFFCURVE",
"326 502 CURVE SMOOTH",
"285 502 OFFCURVE",
"222 481 OFFCURVE",
"176 455 CURVE",
"152 491 LINE",
"27 462 LINE",
"27 429 LINE",
"107 413 LINE",
"107 51 LINE",
"27 37 LINE",
"27 0 LINE"
);
}
);
width = 834;
},
{
anchors = (
{
name = bottom;
position = "{475, 0}";
},
{
name = top;
position = "{464, 494}";
}
);
layerId = "5be9d440-7da3-4849-9ff3-c66a194b28b9";
paths = (
{
closed = 1;
nodes = (
"311 0 LINE",
"311 60 LINE",
"249 74 LINE",
"249 408 LINE",
"278 416 OFFCURVE",
"303 419 OFFCURVE",
"325 419 CURVE SMOOTH",
"384 419 OFFCURVE",
"398 403 OFFCURVE",
"398 336 CURVE SMOOTH",
"398 74 LINE",
"334 60 LINE",
"334 0 LINE",
"610 0 LINE",
"610 60 LINE",
"548 74 LINE",
"548 357 LINE",
"548 372 OFFCURVE",
"547 392 OFFCURVE",
"542 408 CURVE",
"561 415 OFFCURVE",
"598 419 OFFCURVE",
"624 419 CURVE SMOOTH",
"683 419 OFFCURVE",
"696 403 OFFCURVE",
"696 336 CURVE SMOOTH",
"696 74 LINE",
"635 60 LINE",
"635 0 LINE",
"917 0 LINE",
"917 60 LINE",
"847 74 LINE",
"847 366 LINE SMOOTH",
"847 468 OFFCURVE",
"802 513 OFFCURVE",
"699 513 CURVE SMOOTH",
"648 513 OFFCURVE",
"562 485 OFFCURVE",
"527 455 CURVE",
"503 494 OFFCURVE",
"464 511 OFFCURVE",
"400 511 CURVE SMOOTH",
"347 511 OFFCURVE",
"292 491 OFFCURVE",
"242 461 CURVE",
"209 510 LINE",
"19 489 LINE",
"19 424 LINE",
"100 408 LINE",
"100 74 LINE",
"22 60 LINE",
"22 0 LINE"
);
}
);
width = 922;
}
);
leftKerningGroup = n;
leftMetricsKey = n;
rightKerningGroup = n;
rightMetricsKey = n;
unicode = 006D;
},
{
glyphname = n;
layers = (
{
anchors = (
{
name = bottom;
position = "{284, 0}";
},
{
name = top;
position = "{284, 494}";
}
);
layerId = "4c090d2b-0954-42f9-b8fa-9b61004e66c3";
paths = (
{
closed = 1;
nodes = (
"257 0 LINE",
"257 37 LINE",
"177 51 LINE",
"177 424 LINE",
"197 431 OFFCURVE",
"246 437 OFFCURVE",
"284 437 CURVE SMOOTH",
"367 437 OFFCURVE",
"396 414 OFFCURVE",
"396 355 CURVE SMOOTH",
"396 51 LINE",
"315 37 LINE",
"315 0 LINE",
"546 0 LINE",
"546 37 LINE",
"465 51 LINE",
"465 367 LINE SMOOTH",
"465 454 OFFCURVE",
"419 502 OFFCURVE",
"336 502 CURVE SMOOTH",
"298 502 OFFCURVE",
"231 482 OFFCURVE",
"175 454 CURVE",
"172 454 LINE",
"167 491 LINE",
"27 462 LINE",
"27 425 LINE",
"108 412 LINE",
"108 51 LINE",
"27 37 LINE",
"27 0 LINE"
);
}
);
width = 569;
},
{
anchors = (
{
name = bottom;
position = "{307, 0}";
},
{
name = top;
position = "{307, 494}";
}
);
layerId = "5be9d440-7da3-4849-9ff3-c66a194b28b9";
paths = (
{
closed = 1;
nodes = (
"309 0 LINE",
"309 60 LINE",
"247 74 LINE",
"247 410 LINE",
"282 416 OFFCURVE",
"299 417 OFFCURVE",
"316 417 CURVE SMOOTH",
"374 417 OFFCURVE",
"386 402 OFFCURVE",
"386 341 CURVE SMOOTH",
"386 74 LINE",
"324 60 LINE",
"324 0 LINE",
"607 0 LINE",
"607 60 LINE",
"535 74 LINE",
"535 367 LINE SMOOTH",
"535 466 OFFCURVE",
"487 513 OFFCURVE",
"389 513 CURVE SMOOTH",
"348 513 OFFCURVE",
"291 492 OFFCURVE",
"240 458 CURVE",
"236 458 LINE",
"202 510 LINE",
"19 489 LINE",
"19 425 LINE",
"98 408 LINE",
"98 74 LINE",
"19 60 LINE",
"19 0 LINE"
);
}
);
width = 612;
}
);
leftKerningGroup = n;
rightKerningGroup = n;
unicode = 006E;
},
{
glyphname = eng;
layers = (
{
anchors = (
{
name = bottom;
position = "{534, 0}";
},
{
name = top;
position = "{284, 494}";
}
);
layerId = "4c090d2b-0954-42f9-b8fa-9b61004e66c3";
paths = (
{
closed = 1;
nodes = (
"428 -164 OFFCURVE",
"465 -136 OFFCURVE",
"465 -84 CURVE SMOOTH",
"465 367 LINE SMOOTH",
"465 452 OFFCURVE",
"417 502 OFFCURVE",
"336 502 CURVE SMOOTH",
"258 502 OFFCURVE",
"178 454 OFFCURVE",
"174 454 CURVE",
"174 459 LINE",
"170 491 LINE",
"27 462 LINE",
"27 425 LINE",
"108 412 LINE",
"108 51 LINE",
"27 37 LINE",
"27 0 LINE",
"257 0 LINE",
"257 37 LINE",
"177 51 LINE",
"177 424 LINE",
"197 432 OFFCURVE",
"246 437 OFFCURVE",
"284 437 CURVE SMOOTH",
"361 437 OFFCURVE",
"396 412 OFFCURVE",
"396 355 CURVE SMOOTH",
"396 -95 LINE",
"286 -121 LINE",
"286 -156 LINE",
"306 -161 OFFCURVE",
"337 -164 OFFCURVE",
"361 -164 CURVE"
);
}
);
width = 545;
},
{
anchors = (
{
name = bottom;
position = "{596, 0}";
},
{
name = top;
position = "{307, 494}";
}
);
layerId = "5be9d440-7da3-4849-9ff3-c66a194b28b9";
paths = (
{
closed = 1;
nodes = (
"488 -170 OFFCURVE",
"535 -136 OFFCURVE",
"535 -78 CURVE SMOOTH",
"535 367 LINE SMOOTH",
"535 466 OFFCURVE",
"487 513 OFFCURVE",
"389 513 CURVE SMOOTH",
"354 513 OFFCURVE",
"303 501 OFFCURVE",
"241 460 CURVE",
"236 459 LINE",
"202 510 LINE",
"19 489 LINE",
"19 425 LINE",
"98 408 LINE",
"98 74 LINE",
"19 60 LINE",
"19 0 LINE",
"314 0 LINE",
"314 60 LINE",
"247 74 LINE",
"247 410 LINE",
"282 416 OFFCURVE",
"299 417 OFFCURVE",
"316 417 CURVE SMOOTH",
"374 417 OFFCURVE",
"386 402 OFFCURVE",
"386 341 CURVE SMOOTH",
"386 -72 LINE",
"286 -94 LINE",
"286 -150 LINE",
"316 -162 OFFCURVE",
"366 -170 OFFCURVE",
"408 -170 CURVE"
);
}
);
width = 582;
}
);
leftKerningGroup = n;
leftMetricsKey = n;
rightKerningGroup = j;
rightMetricsKey = j;
unicode = 014B;
},
{
glyphname = nhookleft;
layers = (
{
anchors = (
{
name = bottom;
position = "{281, 0}";
},
{
name = top;
position = "{281, 494}";
}
);
layerId = "4c090d2b-0954-42f9-b8fa-9b61004e66c3";
paths = (
{
closed = 1;
nodes = (
"137 -164 OFFCURVE",
"173 -136 OFFCURVE",
"173 -84 CURVE SMOOTH",
"173 424 LINE",
"194 432 OFFCURVE",
"243 437 OFFCURVE",
"281 437 CURVE SMOOTH",
"358 437 OFFCURVE",
"392 412 OFFCURVE",
"392 355 CURVE SMOOTH",
"392 51 LINE",
"312 37 LINE",
"312 0 LINE",
"543 0 LINE",
"543 37 LINE",
"461 51 LINE",
"461 367 LINE SMOOTH",
"461 452 OFFCURVE",
"413 502 OFFCURVE",
"333 502 CURVE SMOOTH",
"255 502 OFFCURVE",
"175 454 OFFCURVE",
"171 454 CURVE",
"171 458 LINE",
"167 491 LINE",
"24 462 LINE",
"24 425 LINE",
"104 412 LINE",
"104 -95 LINE",
"-5 -121 LINE",
"-5 -156 LINE",
"15 -161 OFFCURVE",
"46 -164 OFFCURVE",
"70 -164 CURVE"
);
}
);
width = 566;
},
{
anchors = (
{
name = bottom;
position = "{300, 0}";
},
{
name = top;
position = "{300, 494}";
}
);
layerId = "5be9d440-7da3-4849-9ff3-c66a194b28b9";
paths = (
{
closed = 1;
nodes = (
"193 -170 OFFCURVE",
"241 -136 OFFCURVE",
"241 -78 CURVE SMOOTH",
"241 410 LINE",
"276 416 OFFCURVE",
"293 417 OFFCURVE",
"310 417 CURVE SMOOTH",
"367 417 OFFCURVE",
"380 402 OFFCURVE",
"380 341 CURVE SMOOTH",
"380 74 LINE",
"312 60 LINE",
"312 0 LINE",
"601 0 LINE",
"601 60 LINE",
"529 74 LINE",
"529 367 LINE SMOOTH",
"529 466 OFFCURVE",
"481 513 OFFCURVE",
"383 513 CURVE SMOOTH",
"348 513 OFFCURVE",
"296 501 OFFCURVE",
"235 460 CURVE",
"230 459 LINE",
"196 510 LINE",
"13 489 LINE",
"13 425 LINE",
"92 408 LINE",
"92 -72 LINE",
"-8 -94 LINE",
"-8 -150 LINE",
"22 -162 OFFCURVE",
"72 -170 OFFCURVE",
"114 -170 CURVE"
);
}
);
width = 606;
}
);
leftKerningGroup = j;
leftMetricsKey = j;
rightKerningGroup = n;
rightMetricsKey = n;
unicode = 0272;
},
{
glyphname = o;
layers = (
{
anchors = (
{
name = bottom;
position = "{245, 0}";
},
{
name = center;
position = "{245, 247}";
},
{
name = ogonek;
position = "{315, 0}";
},
{
name = top;
position = "{245, 494}";
},
{
name = topright;
position = "{486, 494}";
}
);
layerId = "4c090d2b-0954-42f9-b8fa-9b61004e66c3";
paths = (
{
closed = 1;
nodes = (
"375 -8 OFFCURVE",
"459 105 OFFCURVE",
"459 263 CURVE SMOOTH",
"459 411 OFFCURVE",
"386 502 OFFCURVE",
"246 502 CURVE SMOOTH",
"114 502 OFFCURVE",
"25 384 OFFCURVE",
"25 240 CURVE SMOOTH",
"25 87 OFFCURVE",
"98 -8 OFFCURVE",
"231 -8 CURVE SMOOTH"
);
},
{
closed = 1;
nodes = (
"135 44 OFFCURVE",
"101 118 OFFCURVE",
"101 244 CURVE SMOOTH",
"101 379 OFFCURVE",
"123 450 OFFCURVE",
"243 450 CURVE SMOOTH",
"349 450 OFFCURVE",
"383 385 OFFCURVE",
"383 244 CURVE SMOOTH",
"383 115 OFFCURVE",
"350 44 OFFCURVE",
"250 44 CURVE SMOOTH"
);
}
);
width = 488;
},
{
anchors = (
{
name = bottom;
position = "{270, 0}";
},
{
name = center;
position = "{270, 247}";
},
{
name = ogonek;
position = "{368, 0}";
},
{
name = top;
position = "{280, 494}";
},
{
name = topright;
position = "{523, 494}";
}
);
layerId = "5be9d440-7da3-4849-9ff3-c66a194b28b9";
paths = (
{
closed = 1;
nodes = (
"464 -16 OFFCURVE",
"517 123 OFFCURVE",
"517 263 CURVE SMOOTH",
"517 409 OFFCURVE",
"455 513 OFFCURVE",
"289 513 CURVE SMOOTH",
"91 513 OFFCURVE",
"25 377 OFFCURVE",
"25 240 CURVE SMOOTH",
"25 80 OFFCURVE",
"83 -16 OFFCURVE",
"264 -16 CURVE SMOOTH"
);
},
{
closed = 1;
nodes = (
"191 72 OFFCURVE",
"185 132 OFFCURVE",
"185 252 CURVE SMOOTH",
"185 377 OFFCURVE",
"195 426 OFFCURVE",
"276 426 CURVE SMOOTH",
"347 426 OFFCURVE",
"358 377 OFFCURVE",
"358 252 CURVE SMOOTH",
"358 162 OFFCURVE",
"357 72 OFFCURVE",
"280 72 CURVE SMOOTH"
);
}
);
width = 541;
}
);
leftKerningGroup = o;
rightKerningGroup = o;
unicode = 006F;
},
{
glyphname = oslash;
layers = (
{
anchors = (
{
name = top;
position = "{244, 494}";
}
);
components = (
{
name = o;
}
);
layerId = "4c090d2b-0954-42f9-b8fa-9b61004e66c3";
paths = (
{
closed = 1;
nodes = (
"409 548 LINE",
"356 572 LINE",
"82 -53 LINE",
"136 -76 LINE"
);
}
);
width = 488;
},
{
anchors = (
{
name = top;
position = "{271, 494}";
}
);
components = (
{
name = o;
}
);
layerId = "5be9d440-7da3-4849-9ff3-c66a194b28b9";
paths = (
{
closed = 1;
nodes = (
"432 541 LINE",
"364 572 LINE",
"90 -53 LINE",
"160 -84 LINE"
);
}
);
width = 541;
}
);
leftKerningGroup = o;
leftMetricsKey = o;
rightKerningGroup = o;
rightMetricsKey = o;
unicode = 00F8;
},
{
glyphname = oe;
layers = (
{
anchors = (
{
name = top;
position = "{392, 494}";
}
);
layerId = "4c090d2b-0954-42f9-b8fa-9b61004e66c3";
paths = (
{
closed = 1;
nodes = (
"313 -8 OFFCURVE",
"377 30 OFFCURVE",
"416 92 CURVE",
"448 33 OFFCURVE",
"506 -8 OFFCURVE",
"591 -8 CURVE SMOOTH",
"665 -8 OFFCURVE",
"725 29 OFFCURVE",
"750 57 CURVE",
"738 81 LINE",
"721 71 OFFCURVE",
"677 57 OFFCURVE",
"620 57 CURVE SMOOTH",
"499 57 OFFCURVE",
"456 146 OFFCURVE",
"456 235 CURVE",
"709 235 LINE SMOOTH",
"748 235 OFFCURVE",
"757 253 OFFCURVE",
"757 326 CURVE SMOOTH",
"757 418 OFFCURVE",
"708 503 OFFCURVE",
"602 503 CURVE SMOOTH",
"530 503 OFFCURVE",
"468 466 OFFCURVE",
"428 406 CURVE",
"393 467 OFFCURVE",
"333 502 OFFCURVE",
"248 502 CURVE SMOOTH",
"117 502 OFFCURVE",
"25 382 OFFCURVE",
"25 240 CURVE SMOOTH",
"25 91 OFFCURVE",
"101 -8 OFFCURVE",
"231 -8 CURVE SMOOTH"
);
},
{
closed = 1;
nodes = (
"139 46 OFFCURVE",
"102 128 OFFCURVE",
"102 245 CURVE SMOOTH",
"102 374 OFFCURVE",
"125 451 OFFCURVE",
"243 451 CURVE SMOOTH",
"347 451 OFFCURVE",
"384 383 OFFCURVE",
"384 245 CURVE SMOOTH",
"384 119 OFFCURVE",
"349 46 OFFCURVE",
"250 46 CURVE SMOOTH"
);
},
{
closed = 1;
nodes = (
"458 392 OFFCURVE",
"500 451 OFFCURVE",
"585 451 CURVE SMOOTH",
"667 451 OFFCURVE",
"691 404 OFFCURVE",
"691 326 CURVE SMOOTH",
"691 310 OFFCURVE",
"690 296 OFFCURVE",
"688 284 CURVE",
"458 276 LINE"
);
}
);
width = 797;
},
{
anchors = (
{
name = top;
position = "{418, 494}";
}
);
layerId = "5be9d440-7da3-4849-9ff3-c66a194b28b9";
paths = (
{
closed = 1;
nodes = (
"343 -16 OFFCURVE",
"399 6 OFFCURVE",
"439 42 CURVE",
"482 3 OFFCURVE",
"544 -13 OFFCURVE",
"625 -13 CURVE SMOOTH",
"706 -13 OFFCURVE",
"779 27 OFFCURVE",
"812 58 CURVE",
"791 105 LINE",
"770 95 OFFCURVE",
"720 81 OFFCURVE",
"659 81 CURVE SMOOTH",
"564 81 OFFCURVE",
"537 123 OFFCURVE",
"536 221 CURVE",
"779 221 LINE SMOOTH",
"808 221 OFFCURVE",
"825 235 OFFCURVE",
"825 303 CURVE SMOOTH",
"825 393 OFFCURVE",
"788 511 OFFCURVE",
"617 511 CURVE SMOOTH",
"551 511 OFFCURVE",
"498 491 OFFCURVE",
"456 454 CURVE",
"420 491 OFFCURVE",
"363 513 OFFCURVE",
"288 513 CURVE SMOOTH",
"90 513 OFFCURVE",
"25 377 OFFCURVE",
"25 240 CURVE SMOOTH",
"25 80 OFFCURVE",
"83 -16 OFFCURVE",
"264 -16 CURVE SMOOTH"
);
},
{
closed = 1;
nodes = (
"190 66 OFFCURVE",
"184 127 OFFCURVE",
"184 245 CURVE SMOOTH",
"184 370 OFFCURVE",
"195 419 OFFCURVE",
"276 419 CURVE SMOOTH",
"347 419 OFFCURVE",
"357 370 OFFCURVE",
"357 245 CURVE SMOOTH",
"357 149 OFFCURVE",
"355 66 OFFCURVE",
"280 66 CURVE SMOOTH"
);
},
{
closed = 1;
nodes = (
"539 361 OFFCURVE",
"547 419 OFFCURVE",
"613 419 CURVE SMOOTH",
"664 419 OFFCURVE",
"670 393 OFFCURVE",
"670 330 CURVE SMOOTH",
"670 324 OFFCURVE",
"669 313 OFFCURVE",
"667 301 CURVE",
"535 293 LINE"
);
}
);
width = 855;
}
);
leftKerningGroup = o;
leftMetricsKey = o;
rightKerningGroup = e;
rightMetricsKey = e;
unicode = 0153;
},
{
glyphname = p;
layers = (
{
anchors = (
{
name = bottom;
position = "{134, -165}";
},
{
name = top;
position = "{269, 494}";
}
);
layerId = "4c090d2b-0954-42f9-b8fa-9b61004e66c3";
paths = (
{
closed = 1;
nodes = (
"252 -165 LINE",
"252 -124 LINE",
"169 -113 LINE",
"169 20 LINE",
"169 30 LINE",
"169 36 LINE",
"198 15 OFFCURVE",
"240 1 OFFCURVE",
"276 1 CURVE SMOOTH",
"407 1 OFFCURVE",
"494 107 OFFCURVE",
"494 272 CURVE SMOOTH",
"494 422 OFFCURVE",
"429 503 OFFCURVE",
"308 503 CURVE SMOOTH",
"259 503 OFFCURVE",
"200 478 OFFCURVE",
"169 451 CURVE",
"168 454 LINE",
"162 491 LINE",
"20 462 LINE",
"20 425 LINE",
"100 412 LINE",
"100 -112 LINE",
"31 -126 LINE",
"31 -165 LINE"
);
},
{
closed = 1;
nodes = (
"241 54 OFFCURVE",
"196 63 OFFCURVE",
"169 79 CURVE",
"169 422 LINE",
"207 432 OFFCURVE",
"240 437 OFFCURVE",
"279 437 CURVE SMOOTH",
"378 437 OFFCURVE",
"418 382 OFFCURVE",
"418 246 CURVE SMOOTH",
"418 117 OFFCURVE",
"375 54 OFFCURVE",
"278 54 CURVE SMOOTH"
);
}
);
width = 523;
},
{
anchors = (
{
name = bottom;
position = "{155, -165}";
},
{
name = top;
position = "{290, 494}";
}
);
layerId = "5be9d440-7da3-4849-9ff3-c66a194b28b9";
paths = (
{
closed = 1;
nodes = (
"334 -165 LINE",
"334 -104 LINE",
"230 -89 LINE",
"230 15 LINE",
"218 24 LINE",
"221 28 LINE",
"248 7 OFFCURVE",
"283 -7 OFFCURVE",
"321 -7 CURVE SMOOTH",
"451 -7 OFFCURVE",
"542 115 OFFCURVE",
"542 292 CURVE SMOOTH",
"542 429 OFFCURVE",
"478 511 OFFCURVE",
"369 511 CURVE SMOOTH",
"320 511 OFFCURVE",
"264 490 OFFCURVE",
"225 461 CURVE",
"218 461 LINE",
"185 510 LINE",
"0 489 LINE",
"0 425 LINE",
"81 408 LINE",
"81 -92 LINE",
"12 -106 LINE",
"12 -165 LINE"
);
},
{
closed = 1;
nodes = (
"259 77 OFFCURVE",
"244 81 OFFCURVE",
"230 86 CURVE",
"230 402 LINE",
"249 412 OFFCURVE",
"274 417 OFFCURVE",
"295 417 CURVE SMOOTH",
"360 417 OFFCURVE",
"382 376 OFFCURVE",
"382 256 CURVE SMOOTH",
"382 125 OFFCURVE",
"355 77 OFFCURVE",
"278 77 CURVE SMOOTH"
);
}
);
width = 566;
}
);
leftKerningGroup = n;
rightKerningGroup = o;
rightMetricsKey = o;
unicode = 0070;
},
{
glyphname = thorn;
layers = (
{
layerId = "4c090d2b-0954-42f9-b8fa-9b61004e66c3";
paths = (
{
closed = 1;
nodes = (
"248 -165 LINE",
"248 -124 LINE",
"165 -113 LINE",
"165 24 LINE",
"165 33 LINE",
"165 39 LINE",
"188 17 OFFCURVE",
"237 1 OFFCURVE",
"282 1 CURVE SMOOTH",
"410 1 OFFCURVE",
"491 107 OFFCURVE",
"491 273 CURVE SMOOTH",
"491 419 OFFCURVE",
"423 503 OFFCURVE",
"304 503 CURVE SMOOTH",
"257 503 OFFCURVE",
"201 482 OFFCURVE",
"165 451 CURVE",
"165 685 LINE",
"140 699 LINE",
"13 671 LINE",
"13 637 LINE",
"96 625 LINE",
"96 -112 LINE",
"27 -126 LINE",
"27 -165 LINE"
);
},
{
closed = 1;
nodes = (
"240 56 OFFCURVE",
"194 68 OFFCURVE",
"165 87 CURVE",
"165 425 LINE",
"203 435 OFFCURVE",
"236 440 OFFCURVE",
"275 440 CURVE SMOOTH",
"373 440 OFFCURVE",
"415 383 OFFCURVE",
"415 246 CURVE SMOOTH",
"415 114 OFFCURVE",
"372 56 OFFCURVE",
"276 56 CURVE SMOOTH"
);
}
);
width = 520;
},
{
layerId = "5be9d440-7da3-4849-9ff3-c66a194b28b9";
paths = (
{
closed = 1;
nodes = (
"334 -165 LINE",
"334 -104 LINE",
"230 -89 LINE",
"230 14 LINE",
"218 23 LINE",
"221 27 LINE",
"249 6 OFFCURVE",
"283 -7 OFFCURVE",
"319 -7 CURVE SMOOTH",
"451 -7 OFFCURVE",
"542 115 OFFCURVE",
"542 292 CURVE SMOOTH",
"542 430 OFFCURVE",
"479 511 OFFCURVE",
"369 511 CURVE SMOOTH",
"321 511 OFFCURVE",
"268 493 OFFCURVE",
"230 464 CURVE",
"230 685 LINE",
"189 699 LINE",
"0 677 LINE",
"0 613 LINE",
"81 596 LINE",
"81 -92 LINE",
"12 -106 LINE",
"12 -165 LINE"
);
},
{
closed = 1;
nodes = (
"258 76 OFFCURVE",
"243 80 OFFCURVE",
"230 85 CURVE",
"230 401 LINE",
"249 411 OFFCURVE",
"274 416 OFFCURVE",
"295 416 CURVE SMOOTH",
"360 416 OFFCURVE",
"382 375 OFFCURVE",
"382 256 CURVE SMOOTH",
"382 125 OFFCURVE",
"354 76 OFFCURVE",
"277 76 CURVE SMOOTH"
);
}
);
width = 566;
}
);
leftKerningGroup = l;
leftMetricsKey = "=l-8";
rightKerningGroup = o;
rightMetricsKey = o;
unicode = 00FE;
},
{
glyphname = q;
layers = (
{
anchors = (
{
name = bottom;
position = "{385, -165}";
},
{
name = top;
position = "{239, 494}";
}
);
layerId = "4c090d2b-0954-42f9-b8fa-9b61004e66c3";
paths = (
{
closed = 1;
nodes = (
"483 -165 LINE",
"483 -126 LINE",
"420 -112 LINE",
"420 493 LINE",
"398 493 LINE",
"359 465 LINE",
"355 465 LINE",
"325 489 OFFCURVE",
"284 503 OFFCURVE",
"243 503 CURVE SMOOTH",
"116 503 OFFCURVE",
"25 383 OFFCURVE",
"25 216 CURVE SMOOTH",
"25 80 OFFCURVE",
"94 0 OFFCURVE",
"209 0 CURVE SMOOTH",
"263 0 OFFCURVE",
"321 23 OFFCURVE",
"352 56 CURVE",
"354 54 LINE",
"351 40 LINE",
"351 -113 LINE",
"285 -126 LINE",
"285 -165 LINE"
);
},
{
closed = 1;
nodes = (
"141 58 OFFCURVE",
"100 116 OFFCURVE",
"100 254 CURVE SMOOTH",
"100 378 OFFCURVE",
"153 445 OFFCURVE",
"251 445 CURVE SMOOTH",
"287 445 OFFCURVE",
"330 436 OFFCURVE",
"351 428 CURVE",
"351 89 LINE",
"317 69 OFFCURVE",
"272 58 OFFCURVE",
"239 58 CURVE SMOOTH"
);
}
);
width = 508;
},
{
anchors = (
{
name = bottom;
position = "{411, -165}";
},
{
name = top;
position = "{269, 494}";
}
);
layerId = "5be9d440-7da3-4849-9ff3-c66a194b28b9";
paths = (
{
closed = 1;
nodes = (
"556 -165 LINE",
"556 -106 LINE",
"486 -92 LINE",
"486 501 LINE",
"408 501 LINE",
"360 469 LINE",
"351 469 LINE",
"331 493 OFFCURVE",
"287 511 OFFCURVE",
"246 511 CURVE SMOOTH",
"110 511 OFFCURVE",
"25 399 OFFCURVE",
"25 222 CURVE SMOOTH",
"25 68 OFFCURVE",
"95 -7 OFFCURVE",
"216 -7 CURVE SMOOTH",
"267 -7 OFFCURVE",
"317 11 OFFCURVE",
"346 40 CURVE",
"352 34 LINE",
"337 10 LINE",
"337 -89 LINE",
"222 -106 LINE",
"222 -165 LINE"
);
},
{
closed = 1;
nodes = (
"216 81 OFFCURVE",
"185 134 OFFCURVE",
"185 234 CURVE SMOOTH",
"185 372 OFFCURVE",
"209 421 OFFCURVE",
"267 421 CURVE SMOOTH",
"285 421 OFFCURVE",
"304 418 OFFCURVE",
"337 409 CURVE",
"337 100 LINE",
"320 87 OFFCURVE",
"301 81 OFFCURVE",
"273 81 CURVE SMOOTH"
);
}
);
width = 561;
}
);
leftKerningGroup = o;
leftMetricsKey = o;
rightKerningGroup = q;
unicode = 0071;
},
{
glyphname = r;
layers = (
{
anchors = (
{
name = bottom;
position = "{140, 0}";
},
{
name = top;
position = "{196, 494}";
}
);
layerId = "4c090d2b-0954-42f9-b8fa-9b61004e66c3";
paths = (
{
closed = 1;
nodes = (
"261 0 LINE",
"261 40 LINE",
"174 52 LINE",
"174 414 LINE",
"186 419 OFFCURVE",
"206 422 OFFCURVE",
"222 422 CURVE SMOOTH",
"238 422 OFFCURVE",
"248 421 OFFCURVE",
"265 417 CURVE SMOOTH",
"299 408 LINE",
"317 420 OFFCURVE",
"328 433 OFFCURVE",
"328 456 CURVE SMOOTH",
"328 481 OFFCURVE",
"312 503 OFFCURVE",
"287 503 CURVE SMOOTH",
"242 503 OFFCURVE",
"182 449 OFFCURVE",
"175 442 CURVE",
"163 497 LINE",
"27 469 LINE",
"27 433 LINE",
"105 419 LINE",
"105 51 LINE",
"39 37 LINE",
"39 0 LINE"
);
}
);
width = 343;
},
{
anchors = (
{
name = bottom;
position = "{176, 0}";
},
{
name = top;
position = "{237, 494}";
}
);
background = {
paths = (
{
closed = 1;
nodes = (
"366 0 LINE",
"366 60 LINE",
"250 77 LINE",
"250 396 LINE",
"255 397 OFFCURVE",
"260 401 OFFCURVE",
"268 401 CURVE SMOOTH",
"283 401 OFFCURVE",
"296 397 OFFCURVE",
"304 394 CURVE SMOOTH",
"388 368 LINE",
"391 370 OFFCURVE",
"422 407 OFFCURVE",
"422 451 CURVE SMOOTH",
"422 497 OFFCURVE",
"399 511 OFFCURVE",
"363 511 CURVE SMOOTH",
"331 511 OFFCURVE",
"277 474 OFFCURVE",
"246 446 CURVE",
"206 502 LINE",
"22 480 LINE",
"22 417 LINE",
"101 400 LINE",
"101 74 LINE",
"19 60 LINE",
"19 0 LINE"
);
}
);
};
layerId = "5be9d440-7da3-4849-9ff3-c66a194b28b9";
paths = (
{
closed = 1;
nodes = (
"366 0 LINE",
"366 60 LINE",
"250 77 LINE",
"250 396 LINE",
"256 399 OFFCURVE",
"262 402 OFFCURVE",
"271 402 CURVE SMOOTH",
"279 402 OFFCURVE",
"290 399 OFFCURVE",
"305 394 CURVE SMOOTH",
"388 368 LINE",
"408 389 OFFCURVE",
"422 424 OFFCURVE",
"422 451 CURVE SMOOTH",
"422 497 OFFCURVE",
"399 511 OFFCURVE",
"363 511 CURVE SMOOTH",
"331 511 OFFCURVE",
"277 474 OFFCURVE",
"246 446 CURVE",
"206 510 LINE",
"22 480 LINE",
"22 417 LINE",
"101 400 LINE",
"101 74 LINE",
"19 60 LINE",
"19 0 LINE"
);
}
);
width = 422;
}
);
leftKerningGroup = n;
leftMetricsKey = n;
rightKerningGroup = r;
unicode = 0072;
},
{
glyphname = s;
layers = (
{
anchors = (
{
name = bottom;
position = "{201, 0}";
},
{
name = top;
position = "{223, 494}";
}
);
layerId = "4c090d2b-0954-42f9-b8fa-9b61004e66c3";
paths = (
{
closed = 1;
nodes = (
"299 -8 OFFCURVE",
"386 30 OFFCURVE",
"386 146 CURVE SMOOTH",
"386 246 OFFCURVE",
"302 271 OFFCURVE",
"229 293 CURVE SMOOTH",
"171 310 OFFCURVE",
"120 325 OFFCURVE",
"120 373 CURVE SMOOTH",
"120 429 OFFCURVE",
"146 451 OFFCURVE",
"223 451 CURVE SMOOTH",
"262 451 OFFCURVE",
"304 438 OFFCURVE",
"309 436 CURVE",
"322 354 LINE",
"357 354 LINE",
"372 474 LINE",
"354 485 OFFCURVE",
"295 503 OFFCURVE",
"232 503 CURVE SMOOTH",
"135 503 OFFCURVE",
"55 458 OFFCURVE",
"55 366 CURVE SMOOTH",
"55 267 OFFCURVE",
"131 247 OFFCURVE",
"202 228 CURVE SMOOTH",
"262 212 OFFCURVE",
"319 197 OFFCURVE",
"319 134 CURVE SMOOTH",
"319 80 OFFCURVE",
"297 42 OFFCURVE",
"211 42 CURVE SMOOTH",
"164 42 OFFCURVE",
"129 56 OFFCURVE",
"110 70 CURVE",
"99 149 LINE",
"63 149 LINE",
"50 33 LINE",
"68 19 OFFCURVE",
"132 -8 OFFCURVE",
"204 -8 CURVE SMOOTH"
);
}
);
width = 436;
},
{
anchors = (
{
name = bottom;
position = "{236, 0}";
},
{
name = top;
position = "{239, 494}";
}
);
layerId = "5be9d440-7da3-4849-9ff3-c66a194b28b9";
paths = (
{
closed = 1;
nodes = (
"317 -16 OFFCURVE",
"424 23 OFFCURVE",
"424 147 CURVE SMOOTH",
"424 268 OFFCURVE",
"332 294 OFFCURVE",
"257 315 CURVE SMOOTH",
"207 330 OFFCURVE",
"165 342 OFFCURVE",
"165 379 CURVE SMOOTH",
"165 400 OFFCURVE",
"177 424 OFFCURVE",
"240 424 CURVE SMOOTH",
"262 424 OFFCURVE",
"282 421 OFFCURVE",
"301 411 CURVE",
"324 343 LINE",
"395 343 LINE",
"401 493 LINE",
"383 497 OFFCURVE",
"309 511 OFFCURVE",
"246 511 CURVE SMOOTH",
"117 511 OFFCURVE",
"35 459 OFFCURVE",
"35 346 CURVE SMOOTH",
"35 231 OFFCURVE",
"125 208 OFFCURVE",
"199 189 CURVE SMOOTH",
"251 175 OFFCURVE",
"295 164 OFFCURVE",
"295 124 CURVE SMOOTH",
"295 81 OFFCURVE",
"280 64 OFFCURVE",
"217 64 CURVE SMOOTH",
"178 64 OFFCURVE",
"154 81 OFFCURVE",
"146 87 CURVE",
"118 168 LINE",
"47 168 LINE",
"43 15 LINE",
"64 5 OFFCURVE",
"146 -16 OFFCURVE",
"221 -16 CURVE SMOOTH"
);
}
);
width = 454;
}
);
leftKerningGroup = s;
rightKerningGroup = s;
unicode = 0073;
},
{
glyphname = saltillo;
layers = (
{
layerId = "4c090d2b-0954-42f9-b8fa-9b61004e66c3";
paths = (
{
closed = 1;
nodes = (
"56 414 LINE",
"92 600 LINE SMOOTH",
"100 641 OFFCURVE",
"101 665 OFFCURVE",
"101 679 CURVE SMOOTH",
"101 697 OFFCURVE",
"101 717 OFFCURVE",
"71 717 CURVE SMOOTH",
"59 717 OFFCURVE",
"42 714 OFFCURVE",
"20 705 CURVE",
"20 414 LINE"
);
}
);
width = 121;
},
{
layerId = "5be9d440-7da3-4849-9ff3-c66a194b28b9";
paths = (
{
closed = 1;
nodes = (
"76 414 LINE",
"111 540 LINE SMOOTH",
"126 596 OFFCURVE",
"136 641 OFFCURVE",
"136 683 CURVE SMOOTH",
"136 712 OFFCURVE",
"117 722 OFFCURVE",
"75 722 CURVE SMOOTH",
"53 722 OFFCURVE",
"31 715 OFFCURVE",
"15 706 CURVE",
"15 414 LINE"
);
}
);
width = 151;
}
);
leftKerningGroup = saltillo;
rightKerningGroup = saltillo;
unicode = A78C;
},
{
glyphname = germandbls;
layers = (
{
layerId = "4c090d2b-0954-42f9-b8fa-9b61004e66c3";
paths = (
{
closed = 1;
nodes = (
"456 -8 OFFCURVE",
"536 35 OFFCURVE",
"536 137 CURVE SMOOTH",
"536 222 OFFCURVE",
"475 250 OFFCURVE",
"398 270 CURVE SMOOTH",
"349 283 OFFCURVE",
"307 293 OFFCURVE",
"307 339 CURVE SMOOTH",
"307 401 OFFCURVE",
"395 425 OFFCURVE",
"437 472 CURVE SMOOTH",
"457 494 OFFCURVE",
"468 526 OFFCURVE",
"468 561 CURVE SMOOTH",
"468 649 OFFCURVE",
"392 700 OFFCURVE",
"293 700 CURVE SMOOTH",
"176 700 OFFCURVE",
"86 627 OFFCURVE",
"86 494 CURVE",
"30 483 LINE",
"30 441 LINE",
"87 441 LINE",
"87 51 LINE",
"21 37 LINE",
"21 0 LINE",
"156 0 LINE",
"156 532 LINE SMOOTH",
"156 598 OFFCURVE",
"198 641 OFFCURVE",
"289 641 CURVE SMOOTH",
"374 641 OFFCURVE",
"396 603 OFFCURVE",
"396 564 CURVE SMOOTH",
"396 531 OFFCURVE",
"376 503 OFFCURVE",
"339 478 CURVE SMOOTH",
"281 438 OFFCURVE",
"243 409 OFFCURVE",
"243 331 CURVE SMOOTH",
"243 244 OFFCURVE",
"312 222 OFFCURVE",
"365 209 CURVE SMOOTH",
"441 190 OFFCURVE",
"468 177 OFFCURVE",
"468 128 CURVE SMOOTH",
"468 89 OFFCURVE",
"449 43 OFFCURVE",
"372 43 CURVE SMOOTH",
"329 43 OFFCURVE",
"306 57 OFFCURVE",
"293 71 CURVE",
"281 149 LINE",
"246 149 LINE",
"233 33 LINE",
"248 19 OFFCURVE",
"299 -8 OFFCURVE",
"369 -8 CURVE SMOOTH"
);
}
);
width = 586;
},
{
layerId = "5be9d440-7da3-4849-9ff3-c66a194b28b9";
paths = (
{
closed = 1;
nodes = (
"519 -16 OFFCURVE",
"617 22 OFFCURVE",
"617 147 CURVE SMOOTH",
"617 246 OFFCURVE",
"562 274 OFFCURVE",
"484 310 CURVE SMOOTH",
"442 329 OFFCURVE",
"425 341 OFFCURVE",
"425 372 CURVE SMOOTH",
"425 397 OFFCURVE",
"436 414 OFFCURVE",
"457 431 CURVE SMOOTH",
"509 475 OFFCURVE",
"537 499 OFFCURVE",
"537 561 CURVE SMOOTH",
"537 662 OFFCURVE",
"452 706 OFFCURVE",
"335 706 CURVE SMOOTH",
"190 706 OFFCURVE",
"91 636 OFFCURVE",
"91 508 CURVE",
"11 488 LINE",
"11 418 LINE",
"91 418 LINE",
"91 74 LINE",
"8 60 LINE",
"8 0 LINE",
"240 0 LINE",
"240 500 LINE SMOOTH",
"240 588 OFFCURVE",
"269 617 OFFCURVE",
"318 617 CURVE SMOOTH",
"354 617 OFFCURVE",
"391 604 OFFCURVE",
"391 551 CURVE SMOOTH",
"391 511 OFFCURVE",
"365 488 OFFCURVE",
"339 466 CURVE SMOOTH",
"311 441 OFFCURVE",
"282 404 OFFCURVE",
"282 347 CURVE SMOOTH",
"282 269 OFFCURVE",
"333 230 OFFCURVE",
"403 204 CURVE SMOOTH",
"455 184 OFFCURVE",
"487 171 OFFCURVE",
"487 122 CURVE SMOOTH",
"487 82 OFFCURVE",
"462 63 OFFCURVE",
"437 63 CURVE SMOOTH",
"405 63 OFFCURVE",
"376 81 OFFCURVE",
"367 87 CURVE",
"339 168 LINE",
"269 168 LINE",
"263 15 LINE",
"283 5 OFFCURVE",
"362 -16 OFFCURVE",
"428 -16 CURVE SMOOTH"
);
}
);
width = 647;
}
);
leftKerningGroup = l;
leftMetricsKey = l;
rightKerningGroup = s;
rightMetricsKey = s;
unicode = 00DF;
},
{
glyphname = longs;
layers = (
{
anchors = (
{
name = bottom;
position = "{115, 0}";
},
{
name = top;
position = "{144, 648}";
}
);
background = {
anchors = (
{
name = bottom;
position = "{115, 0}";
},
{
name = top;
position = "{144, 648}";
}
);
paths = (
{
closed = 1;
nodes = (
"253 0 LINE",
"253 37 LINE",
"149 53 LINE",
"149 443 LINE",
"263 443 LINE",
"276 466 LINE",
"276 492 LINE",
"149 492 LINE",
"149 613 LINE",
"166 622 OFFCURVE",
"193 624 OFFCURVE",
"216 624 CURVE SMOOTH",
"243 624 OFFCURVE",
"266 620 OFFCURVE",
"295 612 CURVE",
"306 617 OFFCURVE",
"320 635 OFFCURVE",
"320 656 CURVE SMOOTH",
"320 676 OFFCURVE",
"303 696 OFFCURVE",
"267 696 CURVE SMOOTH",
"163 696 OFFCURVE",
"84 611 OFFCURVE",
"79 494 CURVE",
"23 483 LINE",
"23 443 LINE",
"80 443 LINE",
"80 51 LINE",
"14 37 LINE",
"14 0 LINE"
);
}
);
};
layerId = "4c090d2b-0954-42f9-b8fa-9b61004e66c3";
paths = (
{
closed = 1;
nodes = (
"253 0 LINE",
"253 37 LINE",
"149 53 LINE",
"149 613 LINE",
"166 622 OFFCURVE",
"193 624 OFFCURVE",
"216 624 CURVE SMOOTH",
"243 624 OFFCURVE",
"266 620 OFFCURVE",
"295 612 CURVE",
"306 617 OFFCURVE",
"320 635 OFFCURVE",
"320 656 CURVE SMOOTH",
"320 676 OFFCURVE",
"303 696 OFFCURVE",
"267 696 CURVE SMOOTH",
"163 696 OFFCURVE",
"84 611 OFFCURVE",
"79 494 CURVE",
"23 483 LINE",
"23 443 LINE",
"80 443 LINE",
"80 51 LINE",
"14 37 LINE",
"14 0 LINE"
);
}
);
width = 287;
},
{
anchors = (
{
name = bottom;
position = "{177, 0}";
},
{
name = top;
position = "{184, 648}";
}
);
background = {
paths = (
{
closed = 1;
nodes = (
"356 0 LINE",
"356 64 LINE",
"252 78 LINE",
"252 600 LINE",
"257 599 OFFCURVE",
"266 599 OFFCURVE",
"274 599 CURVE SMOOTH",
"296 599 OFFCURVE",
"354 586 OFFCURVE",
"381 574 CURVE",
"407 583 OFFCURVE",
"425 610 OFFCURVE",
"425 640 CURVE SMOOTH",
"425 686 OFFCURVE",
"395 706 OFFCURVE",
"325 706 CURVE SMOOTH",
"178 706 OFFCURVE",
"100 637 OFFCURVE",
"103 508 CURVE",
"23 488 LINE",
"23 417 LINE",
"103 417 LINE",
"103 74 LINE",
"20 60 LINE",
"20 0 LINE"
);
}
);
};
layerId = "5be9d440-7da3-4849-9ff3-c66a194b28b9";
paths = (
{
closed = 1;
nodes = (
"356 0 LINE",
"356 64 LINE",
"252 78 LINE",
"252 599 LINE",
"257 600 OFFCURVE",
"262 600 OFFCURVE",
"268 600 CURVE SMOOTH",
"304 600 OFFCURVE",
"358 589 OFFCURVE",
"388 576 CURVE",
"400 581 OFFCURVE",
"430 601 OFFCURVE",
"430 640 CURVE SMOOTH",
"430 681 OFFCURVE",
"390 706 OFFCURVE",
"325 706 CURVE SMOOTH",
"211 706 OFFCURVE",
"118 622 OFFCURVE",
"103 507 CURVE",
"23 487 LINE",
"23 417 LINE",
"103 417 LINE",
"103 74 LINE",
"20 60 LINE",
"20 0 LINE"
);
}
);
width = 366;
}
);
leftKerningGroup = f;
leftMetricsKey = f;
rightKerningGroup = f;
rightMetricsKey = f;
unicode = 017F;
},
{
glyphname = t;
layers = (
{
anchors = (
{
name = bottom;
position = "{165, 0}";
},
{
name = center;
position = "{118, 247}";
},
{
name = top;
position = "{118, 494}";
},
{
name = topright;
position = "{221, 524}";
}
);
background = {
paths = (
{
closed = 1;
nodes = (
"242 -3 OFFCURVE",
"299 45 OFFCURVE",
"298 45 CURVE",
"290 72 LINE",
"285 70 OFFCURVE",
"247 60 OFFCURVE",
"209 60 CURVE SMOOTH",
"176 60 OFFCURVE",
"160 67 OFFCURVE",
"160 106 CURVE SMOOTH",
"160 446 LINE",
"287 446 LINE",
"301 470 LINE",
"301 494 LINE",
"160 494 LINE",
"160 604 LINE",
"110 604 LINE",
"91 504 LINE",
"17 483 LINE",
"17 446 LINE",
"91 446 LINE",
"91 102 LINE SMOOTH",
"91 43 OFFCURVE",
"110 -3 OFFCURVE",
"191 -3 CURVE SMOOTH"
);
}
);
};
layerId = "4c090d2b-0954-42f9-b8fa-9b61004e66c3";
paths = (
{
closed = 1;
nodes = (
"221 -3 OFFCURVE",
"266 17 OFFCURVE",
"298 45 CURVE",
"290 72 LINE",
"285 70 OFFCURVE",
"247 60 OFFCURVE",
"209 60 CURVE SMOOTH",
"176 60 OFFCURVE",
"160 67 OFFCURVE",
"160 106 CURVE SMOOTH",
"160 446 LINE",
"287 446 LINE",
"301 470 LINE",
"301 494 LINE",
"160 494 LINE",
"160 604 LINE",
"110 604 LINE",
"91 504 LINE",
"17 483 LINE",
"17 446 LINE",
"91 446 LINE",
"91 102 LINE SMOOTH",
"91 43 OFFCURVE",
"110 -3 OFFCURVE",
"191 -3 CURVE SMOOTH"
);
}
);
width = 331;
},
{
anchors = (
{
name = bottom;
position = "{227, 0}";
},
{
name = center;
position = "{206, 247}";
},
{
name = top;
position = "{206, 494}";
},
{
name = topright;
position = "{263, 524}";
}
);
layerId = "5be9d440-7da3-4849-9ff3-c66a194b28b9";
paths = (
{
closed = 1;
nodes = (
"298 -11 OFFCURVE",
"356 10 OFFCURVE",
"391 45 CURVE",
"371 102 LINE",
"349 91 OFFCURVE",
"323 85 OFFCURVE",
"297 85 CURVE SMOOTH",
"264 85 OFFCURVE",
"241 96 OFFCURVE",
"241 154 CURVE SMOOTH",
"241 418 LINE",
"368 418 LINE",
"382 449 LINE",
"382 500 LINE",
"241 500 LINE",
"241 637 LINE",
"143 637 LINE",
"92 510 LINE",
"-10 489 LINE",
"-10 418 LINE",
"92 418 LINE",
"92 132 LINE SMOOTH",
"92 37 OFFCURVE",
"128 -11 OFFCURVE",
"239 -11 CURVE SMOOTH"
);
}
);
width = 407;
}
);
leftKerningGroup = t;
rightKerningGroup = t;
unicode = 0074;
},
{
glyphname = tbar;
layers = (
{
components = (
{
alignment = -1;
name = t;
}
);
layerId = "4c090d2b-0954-42f9-b8fa-9b61004e66c3";
paths = (
{
closed = 1;
nodes = (
"281 281 LINE",
"281 322 LINE",
"24 322 LINE",
"24 281 LINE"
);
}
);
width = 331;
},
{
components = (
{
alignment = -1;
name = t;
}
);
layerId = "5be9d440-7da3-4849-9ff3-c66a194b28b9";
paths = (
{
closed = 1;
nodes = (
"366 249 LINE",
"366 323 LINE",
"10 323 LINE",
"10 249 LINE"
);
}
);
width = 407;
}
);
leftKerningGroup = t;
leftMetricsKey = t;
rightKerningGroup = t;
rightMetricsKey = t;
unicode = 0167;
},
{
glyphname = tcaron;
layers = (
{
background = {
paths = (
{
closed = 1;
nodes = (
"233 -3 OFFCURVE",
"289 45 OFFCURVE",
"288 45 CURVE",
"280 72 LINE",
"262 67 OFFCURVE",
"227 60 OFFCURVE",
"199 60 CURVE SMOOTH",
"166 60 OFFCURVE",
"150 67 OFFCURVE",
"150 106 CURVE SMOOTH",
"150 447 LINE",
"277 447 LINE",
"291 471 LINE",
"291 494 LINE",
"150 494 LINE",
"150 604 LINE",
"100 604 LINE",
"81 504 LINE",
"8 483 LINE",
"8 447 LINE",
"81 447 LINE",
"81 102 LINE SMOOTH",
"81 43 OFFCURVE",
"100 -3 OFFCURVE",
"181 -3 CURVE SMOOTH"
);
},
{
closed = 1;
nodes = (
"262 542 LINE",
"284 577 OFFCURVE",
"313 634 OFFCURVE",
"313 663 CURVE SMOOTH",
"313 693 OFFCURVE",
"298 716 OFFCURVE",
"265 716 CURVE SMOOTH",
"240 716 OFFCURVE",
"227 701 OFFCURVE",
"222 693 CURVE",
"237 674 OFFCURVE",
"249 658 OFFCURVE",
"249 634 CURVE SMOOTH",
"249 606 OFFCURVE",
"243 571 OFFCURVE",
"233 542 CURVE"
);
}
);
};
components = (
{
name = t;
},
{
name = caroncomb.alt;
transform = "{1, 0, 0, 1, 221, 30}";
}
);
layerId = "4c090d2b-0954-42f9-b8fa-9b61004e66c3";
width = 331;
},
{
background = {
paths = (
{
closed = 1;
nodes = (
"327 -11 OFFCURVE",
"393 45 OFFCURVE",
"392 45 CURVE",
"373 102 LINE",
"357 95 OFFCURVE",
"326 85 OFFCURVE",
"298 85 CURVE SMOOTH",
"265 85 OFFCURVE",
"243 96 OFFCURVE",
"243 154 CURVE SMOOTH",
"243 417 LINE",
"370 417 LINE",
"384 448 LINE",
"384 500 LINE",
"243 500 LINE",
"243 637 LINE",
"145 637 LINE",
"94 510 LINE",
"-8 489 LINE",
"-8 417 LINE",
"94 417 LINE",
"94 132 LINE SMOOTH",
"94 37 OFFCURVE",
"129 -11 OFFCURVE",
"241 -11 CURVE SMOOTH"
);
},
{
closed = 1;
nodes = (
"323 541 LINE",
"354 568 OFFCURVE",
"394 623 OFFCURVE",
"394 677 CURVE SMOOTH",
"394 699 OFFCURVE",
"377 734 OFFCURVE",
"332 734 CURVE SMOOTH",
"316 734 OFFCURVE",
"294 730 OFFCURVE",
"278 712 CURVE",
"284 707 OFFCURVE",
"291 677 OFFCURVE",
"291 652 CURVE SMOOTH",
"291 624 OFFCURVE",
"285 572 OFFCURVE",
"275 541 CURVE"
);
}
);
};
components = (
{
name = t;
},
{
name = caroncomb.alt;
transform = "{1, 0, 0, 1, 263, 30}";
}
);
layerId = "5be9d440-7da3-4849-9ff3-c66a194b28b9";
width = 407;
}
);
leftKerningGroup = t;
rightKerningGroup = tcaron;
unicode = 0165;
},
{
glyphname = tcedilla;
layers = (
{
background = {
paths = (
{
closed = 1;
nodes = (
"200 -185 OFFCURVE",
"269 -167 OFFCURVE",
"269 -94 CURVE SMOOTH",
"269 -50 OFFCURVE",
"233 -41 OFFCURVE",
"196 -32 CURVE",
"180 -29 LINE",
"180 -3 LINE",
"232 -3 OFFCURVE",
"289 45 OFFCURVE",
"288 45 CURVE",
"280 72 LINE",
"280 72 OFFCURVE",
"237 60 OFFCURVE",
"199 60 CURVE SMOOTH",
"166 60 OFFCURVE",
"150 67 OFFCURVE",
"150 106 CURVE SMOOTH",
"150 447 LINE",
"277 447 LINE",
"291 471 LINE",
"291 494 LINE",
"150 494 LINE",
"150 604 LINE",
"100 604 LINE",
"81 504 LINE",
"8 483 LINE",
"8 447 LINE",
"81 447 LINE",
"81 102 LINE SMOOTH",
"81 53 OFFCURVE",
"93 14 OFFCURVE",
"141 1 CURVE",
"117 -58 LINE",
"135 -76 LINE",
"174 -84 LINE SMOOTH",
"195 -88 OFFCURVE",
"207 -91 OFFCURVE",
"207 -115 CURVE SMOOTH",
"207 -134 OFFCURVE",
"186 -146 OFFCURVE",
"142 -146 CURVE SMOOTH",
"118 -146 OFFCURVE",
"102 -141 OFFCURVE",
"89 -136 CURVE",
"74 -170 LINE",
"97 -179 OFFCURVE",
"116 -185 OFFCURVE",
"146 -185 CURVE"
);
}
);
};
components = (
{
name = t;
},
{
name = cedillacomb;
transform = "{1, 0, 0, 1, 92, 0}";
}
);
layerId = "4c090d2b-0954-42f9-b8fa-9b61004e66c3";
width = 331;
},
{
background = {
paths = (
{
closed = 1;
nodes = (
"298 -196 OFFCURVE",
"333 -162 OFFCURVE",
"333 -107 CURVE SMOOTH",
"333 -60 OFFCURVE",
"308 -46 OFFCURVE",
"266 -36 CURVE SMOOTH",
"244 -30 LINE",
"244 -11 LINE",
"328 -9 OFFCURVE",
"393 45 OFFCURVE",
"392 45 CURVE",
"373 102 LINE",
"373 102 OFFCURVE",
"336 85 OFFCURVE",
"298 85 CURVE SMOOTH",
"265 85 OFFCURVE",
"243 96 OFFCURVE",
"243 154 CURVE SMOOTH",
"243 417 LINE",
"370 417 LINE",
"384 448 LINE",
"384 500 LINE",
"243 500 LINE",
"243 637 LINE",
"145 637 LINE",
"94 510 LINE",
"-8 489 LINE",
"-8 417 LINE",
"94 417 LINE",
"94 132 LINE SMOOTH",
"94 53 OFFCURVE",
"118 8 OFFCURVE",
"189 -5 CURVE",
"162 -66 LINE",
"186 -90 LINE",
"212 -95 LINE SMOOTH",
"227 -98 OFFCURVE",
"232 -105 OFFCURVE",
"232 -116 CURVE SMOOTH",
"232 -138 OFFCURVE",
"219 -140 OFFCURVE",
"206 -140 CURVE SMOOTH",
"184 -140 OFFCURVE",
"168 -137 OFFCURVE",
"142 -126 CURVE",
"121 -176 LINE",
"147 -190 OFFCURVE",
"169 -196 OFFCURVE",
"208 -196 CURVE"
);
}
);
};
components = (
{
name = t;
},
{
name = cedillacomb;
transform = "{1, 0, 0, 1, 115, 0}";
}
);
layerId = "5be9d440-7da3-4849-9ff3-c66a194b28b9";
width = 407;
}
);
leftKerningGroup = t;
rightKerningGroup = t;
unicode = 0163;
},
{
glyphname = u;
layers = (
{
anchors = (
{
name = bottom;
position = "{274, 0}";
},
{
name = ogonek;
position = "{432, 0}";
},
{
name = top;
position = "{256, 494}";
},
{
name = topright;
position = "{516, 494}";
}
);
layerId = "4c090d2b-0954-42f9-b8fa-9b61004e66c3";
paths = (
{
closed = 1;
nodes = (
"292 -8 OFFCURVE",
"347 16 OFFCURVE",
"376 49 CURVE",
"377 50 LINE",
"389 -1 LINE",
"517 18 LINE",
"517 51 LINE",
"448 67 LINE",
"448 489 LINE",
"422 503 LINE",
"295 474 LINE",
"295 441 LINE",
"377 428 LINE",
"377 83 LINE",
"346 64 OFFCURVE",
"303 51 OFFCURVE",
"275 51 CURVE SMOOTH",
"187 51 OFFCURVE",
"160 80 OFFCURVE",
"160 174 CURVE SMOOTH",
"160 489 LINE",
"134 503 LINE",
"7 474 LINE",
"7 441 LINE",
"91 428 LINE",
"91 129 LINE SMOOTH",
"91 41 OFFCURVE",
"145 -8 OFFCURVE",
"237 -8 CURVE SMOOTH"
);
}
);
width = 546;
},
{
anchors = (
{
name = bottom;
position = "{307, 0}";
},
{
name = ogonek;
position = "{496, 0}";
},
{
name = top;
position = "{312, 494}";
},
{
name = topright;
position = "{555, 494}";
}
);
layerId = "5be9d440-7da3-4849-9ff3-c66a194b28b9";
paths = (
{
closed = 1;
nodes = (
"281 -13 OFFCURVE",
"341 6 OFFCURVE",
"380 33 CURVE",
"390 33 LINE",
"424 -11 LINE",
"611 13 LINE",
"611 78 LINE",
"529 94 LINE",
"529 493 LINE",
"488 507 LINE",
"300 485 LINE",
"300 421 LINE",
"381 404 LINE",
"381 94 LINE",
"369 90 OFFCURVE",
"340 82 OFFCURVE",
"315 82 CURVE SMOOTH",
"251 82 OFFCURVE",
"235 105 OFFCURVE",
"235 163 CURVE SMOOTH",
"235 493 LINE",
"195 507 LINE",
"7 485 LINE",
"7 421 LINE",
"86 404 LINE",
"86 129 LINE SMOOTH",
"86 30 OFFCURVE",
"131 -13 OFFCURVE",
"236 -13 CURVE SMOOTH"
);
}
);
width = 615;
}
);
leftKerningGroup = u;
rightKerningGroup = u;
unicode = 0075;
},
{
glyphname = v;
layers = (
{
anchors = (
{
name = bottom;
position = "{225, 0}";
},
{
name = top;
position = "{225, 494}";
}
);
layerId = "4c090d2b-0954-42f9-b8fa-9b61004e66c3";
paths = (
{
closed = 1;
nodes = (
"236 -4 LINE",
"416 440 LINE",
"466 456 LINE",
"466 494 LINE",
"291 494 LINE",
"291 457 LINE",
"351 441 LINE",
"351 429 LINE",
"245 154 LINE",
"237 120 LINE",
"229 151 LINE",
"121 429 LINE",
"121 442 LINE",
"186 458 LINE",
"186 494 LINE",
"-22 494 LINE",
"-22 454 LINE",
"33 443 LINE",
"220 -4 LINE"
);
}
);
width = 448;
},
{
anchors = (
{
name = bottom;
position = "{250, 0}";
},
{
name = top;
position = "{250, 494}";
}
);
layerId = "5be9d440-7da3-4849-9ff3-c66a194b28b9";
paths = (
{
closed = 1;
nodes = (
"333 -8 LINE",
"466 420 LINE",
"536 431 LINE",
"536 497 LINE",
"295 497 LINE",
"295 431 LINE",
"360 421 LINE",
"360 399 LINE",
"285 142 LINE",
"274 91 LINE",
"265 143 LINE",
"198 401 LINE",
"198 421 LINE",
"255 427 LINE",
"255 497 LINE",
"-22 497 LINE",
"-22 437 LINE",
"37 419 LINE",
"175 -8 LINE"
);
}
);
width = 501;
}
);
leftKerningGroup = v;
rightKerningGroup = v;
unicode = 0076;
},
{
glyphname = w;
layers = (
{
anchors = (
{
name = bottom;
position = "{343, 0}";
},
{
name = top;
position = "{359, 494}";
}
);
layerId = "4c090d2b-0954-42f9-b8fa-9b61004e66c3";
paths = (
{
closed = 1;
nodes = (
"215 -4 LINE",
"348 409 LINE",
"481 -4 LINE",
"500 -4 LINE",
"645 436 LINE",
"700 456 LINE",
"700 494 LINE",
"528 494 LINE",
"528 453 LINE",
"586 442 LINE",
"587 424 LINE",
"511 185 LINE",
"501 136 LINE",
"491 183 LINE",
"393 494 LINE",
"320 494 LINE",
"222 185 LINE",
"211 136 LINE",
"199 183 LINE",
"114 429 LINE",
"115 442 LINE",
"183 453 LINE",
"183 494 LINE",
"-22 494 LINE",
"-22 455 LINE",
"35 439 LINE",
"197 -4 LINE"
);
}
);
width = 682;
},
{
anchors = (
{
name = bottom;
position = "{417, 0}";
},
{
name = top;
position = "{445, 494}";
}
);
layerId = "5be9d440-7da3-4849-9ff3-c66a194b28b9";
paths = (
{
closed = 1;
nodes = (
"339 -8 LINE",
"419 311 LINE",
"508 -8 LINE",
"669 -8 LINE",
"804 425 LINE",
"873 435 LINE",
"873 497 LINE",
"628 497 LINE",
"628 432 LINE",
"708 423 LINE",
"706 416 LINE",
"621 131 LINE",
"615 96 LINE",
"605 135 LINE",
"514 497 LINE",
"373 497 LINE",
"286 131 LINE",
"281 96 LINE",
"271 135 LINE",
"194 417 LINE",
"192 423 LINE",
"262 432 LINE",
"262 497 LINE",
"-22 497 LINE",
"-22 436 LINE",
"39 424 LINE",
"176 -8 LINE"
);
}
);
width = 838;
}
);
leftKerningGroup = v;
leftMetricsKey = v;
rightKerningGroup = v;
rightMetricsKey = v;
unicode = 0077;
},
{
glyphname = x;
layers = (
{
anchors = (
{
name = bottom;
position = "{231, 0}";
},
{
name = top;
position = "{256, 494}";
}
);
layerId = "4c090d2b-0954-42f9-b8fa-9b61004e66c3";
paths = (
{
closed = 1;
nodes = (
"491 0 LINE",
"491 36 LINE",
"426 49 LINE",
"155 427 LINE",
"155 445 LINE",
"211 453 LINE",
"211 494 LINE",
"10 494 LINE",
"10 455 LINE",
"65 443 LINE",
"339 60 LINE",
"339 45 LINE",
"278 36 LINE",
"278 0 LINE"
);
},
{
closed = 1;
nodes = (
"193 0 LINE",
"193 37 LINE",
"131 48 LINE",
"131 63 LINE",
"243 214 LINE",
"212 255 LINE",
"62 53 LINE",
"-2 36 LINE",
"-2 0 LINE"
);
},
{
closed = 1;
nodes = (
"416 441 LINE",
"458 456 LINE",
"458 494 LINE",
"288 494 LINE",
"288 453 LINE",
"346 445 LINE",
"346 426 LINE",
"241 283 LINE",
"272 244 LINE"
);
}
);
width = 489;
},
{
anchors = (
{
name = bottom;
position = "{261, 0}";
},
{
name = top;
position = "{255, 494}";
}
);
layerId = "5be9d440-7da3-4849-9ff3-c66a194b28b9";
paths = (
{
closed = 1;
nodes = (
"531 0 LINE",
"531 60 LINE",
"457 89 LINE",
"219 422 LINE",
"219 430 LINE",
"276 438 LINE",
"276 497 LINE",
"-19 497 LINE",
"-19 438 LINE",
"62 409 LINE",
"300 77 LINE",
"300 69 LINE",
"245 60 LINE",
"245 0 LINE"
);
},
{
closed = 1;
nodes = (
"222 0 LINE",
"222 60 LINE",
"167 72 LINE",
"167 79 LINE",
"245 173 LINE",
"192 248 LINE",
"47 73 LINE",
"-18 60 LINE",
"-18 0 LINE"
);
},
{
closed = 1;
nodes = (
"465 424 LINE",
"526 437 LINE",
"526 497 LINE",
"299 497 LINE",
"299 438 LINE",
"350 428 LINE",
"350 421 LINE",
"274 332 LINE",
"323 259 LINE"
);
}
);
width = 514;
}
);
leftKerningGroup = x;
rightKerningGroup = x;
unicode = 0078;
},
{
glyphname = y;
layers = (
{
anchors = (
{
name = bottom;
position = "{328, 30}";
},
{
name = top;
position = "{235, 494}";
}
);
layerId = "4c090d2b-0954-42f9-b8fa-9b61004e66c3";
paths = (
{
closed = 1;
nodes = (
"142 -164 OFFCURVE",
"176 -145 OFFCURVE",
"189 -111 CURVE SMOOTH",
"404 439 LINE",
"457 457 LINE",
"457 494 LINE",
"286 494 LINE",
"286 452 LINE",
"345 441 LINE",
"345 429 LINE",
"240 153 LINE",
"231 115 LINE",
"220 152 LINE",
"113 428 LINE",
"113 444 LINE",
"181 453 LINE",
"181 494 LINE",
"-22 494 LINE",
"-22 455 LINE",
"32 438 LINE",
"208 0 LINE",
"213 36 LINE",
"211 82 LINE",
"134 -95 LINE",
"22 -123 LINE",
"22 -154 LINE",
"43 -160 OFFCURVE",
"74 -164 OFFCURVE",
"95 -164 CURVE"
);
}
);
width = 439;
},
{
anchors = (
{
name = bottom;
position = "{455, 30}";
},
{
name = top;
position = "{307, 494}";
}
);
layerId = "5be9d440-7da3-4849-9ff3-c66a194b28b9";
paths = (
{
closed = 1;
nodes = (
"255 -175 OFFCURVE",
"291 -158 OFFCURVE",
"312 -98 CURVE SMOOTH",
"490 424 LINE",
"563 431 LINE",
"563 497 LINE",
"309 497 LINE",
"309 432 LINE",
"384 424 LINE",
"384 412 LINE",
"307 179 LINE",
"301 152 LINE",
"295 179 LINE",
"215 413 LINE",
"215 423 LINE",
"280 432 LINE",
"280 497 LINE",
"-22 497 LINE",
"-22 436 LINE",
"56 424 LINE",
"214 0 LINE",
"314 0 LINE",
"259 49 LINE",
"224 -69 LINE",
"78 -105 LINE",
"78 -167 LINE",
"99 -171 OFFCURVE",
"135 -175 OFFCURVE",
"164 -175 CURVE SMOOTH"
);
}
);
width = 528;
}
);
leftKerningGroup = v;
leftMetricsKey = v;
rightKerningGroup = v;
rightMetricsKey = v;
unicode = 0079;
},
{
glyphname = z;
layers = (
{
anchors = (
{
name = bottom;
position = "{214, 0}";
},
{
name = top;
position = "{224, 494}";
}
);
layerId = "4c090d2b-0954-42f9-b8fa-9b61004e66c3";
paths = (
{
closed = 1;
nodes = (
"404 0 LINE",
"391 131 LINE",
"355 131 LINE",
"342 48 LINE",
"116 48 LINE",
"116 58 LINE",
"389 445 LINE",
"389 494 LINE",
"32 494 LINE",
"48 362 LINE",
"84 362 LINE",
"97 445 LINE",
"300 445 LINE",
"300 435 LINE",
"20 38 LINE",
"20 0 LINE"
);
}
);
width = 428;
},
{
anchors = (
{
name = bottom;
position = "{233, 0}";
},
{
name = top;
position = "{253, 494}";
}
);
layerId = "5be9d440-7da3-4849-9ff3-c66a194b28b9";
paths = (
{
closed = 1;
nodes = (
"449 0 LINE",
"449 171 LINE",
"367 171 LINE",
"346 84 LINE",
"197 84 LINE",
"197 94 LINE",
"439 418 LINE",
"439 497 LINE",
"29 497 LINE",
"29 343 LINE",
"110 343 LINE",
"130 413 LINE",
"255 413 LINE",
"255 403 LINE",
"18 79 LINE",
"18 0 LINE"
);
}
);
width = 466;
}
);
leftKerningGroup = z;
rightKerningGroup = z;
unicode = 007A;
},
{
glyphname = y.loclGUA;
layers = (
{
anchors = (
{
name = bottom;
position = "{265, -166}";
},
{
name = top;
position = "{256, 494}";
},
{
name = topright;
position = "{526, 494}";
}
);
layerId = "4c090d2b-0954-42f9-b8fa-9b61004e66c3";
paths = (
{
closed = 1;
nodes = (
"381 -166 OFFCURVE",
"448 -86 OFFCURVE",
"448 76 CURVE SMOOTH",
"448 489 LINE",
"422 503 LINE",
"295 474 LINE",
"295 441 LINE",
"377 428 LINE",
"377 135 LINE",
"344 116 OFFCURVE",
"304 103 OFFCURVE",
"275 103 CURVE SMOOTH",
"189 103 OFFCURVE",
"160 135 OFFCURVE",
"160 226 CURVE SMOOTH",
"160 489 LINE",
"134 503 LINE",
"7 474 LINE",
"7 441 LINE",
"91 428 LINE",
"91 182 LINE SMOOTH",
"91 96 OFFCURVE",
"147 44 OFFCURVE",
"237 44 CURVE SMOOTH",
"296 44 OFFCURVE",
"347 66 OFFCURVE",
"377 102 CURVE",
"377 61 LINE SMOOTH",
"377 -56 OFFCURVE",
"328 -124 OFFCURVE",
"250 -124 CURVE SMOOTH",
"212 -124 OFFCURVE",
"181 -117 OFFCURVE",
"145 -101 CURVE",
"116 14 LINE",
"73 14 LINE",
"73 -129 LINE",
"139 -157 OFFCURVE",
"187 -166 OFFCURVE",
"248 -166 CURVE"
);
}
);
width = 538;
},
{
anchors = (
{
name = bottom;
position = "{300, -165}";
},
{
name = top;
position = "{312, 494}";
},
{
name = topright;
position = "{595, 494}";
}
);
layerId = "5be9d440-7da3-4849-9ff3-c66a194b28b9";
paths = (
{
closed = 1;
nodes = (
"450 -165 OFFCURVE",
"529 -105 OFFCURVE",
"529 34 CURVE SMOOTH",
"529 493 LINE",
"488 507 LINE",
"300 485 LINE",
"300 421 LINE",
"381 404 LINE",
"381 127 LINE",
"369 124 OFFCURVE",
"339 119 OFFCURVE",
"315 119 CURVE SMOOTH",
"251 119 OFFCURVE",
"235 135 OFFCURVE",
"235 201 CURVE SMOOTH",
"235 493 LINE",
"195 507 LINE",
"7 485 LINE",
"7 421 LINE",
"86 404 LINE",
"86 166 LINE SMOOTH",
"86 67 OFFCURVE",
"131 24 OFFCURVE",
"236 24 CURVE SMOOTH",
"280 24 OFFCURVE",
"342 43 OFFCURVE",
"381 69 CURVE",
"381 38 LINE SMOOTH",
"381 -52 OFFCURVE",
"357 -71 OFFCURVE",
"258 -71 CURVE SMOOTH",
"231 -71 OFFCURVE",
"191 -66 OFFCURVE",
"174 -63 CURVE",
"149 22 LINE",
"72 22 LINE",
"72 -128 LINE",
"104 -147 OFFCURVE",
"195 -165 OFFCURVE",
"267 -165 CURVE SMOOTH"
);
}
);
width = 589;
}
);
leftKerningGroup = y.loclGUA;
leftMetricsKey = u;
rightKerningGroup = y.loclGUA;
},
{
glyphname = f_f;
layers = (
{
anchors = (
{
name = caret_1;
position = "{290, 0}";
}
);
layerId = "4c090d2b-0954-42f9-b8fa-9b61004e66c3";
paths = (
{
closed = 1;
nodes = (
"233 0 LINE",
"233 37 LINE",
"149 53 LINE",
"149 443 LINE",
"368 443 LINE",
"368 51 LINE",
"291 37 LINE",
"291 0 LINE",
"541 0 LINE",
"541 37 LINE",
"437 53 LINE",
"437 443 LINE",
"551 443 LINE",
"564 466 LINE",
"564 492 LINE",
"437 492 LINE",
"437 613 LINE",
"454 622 OFFCURVE",
"481 624 OFFCURVE",
"504 624 CURVE SMOOTH",
"531 624 OFFCURVE",
"554 620 OFFCURVE",
"583 612 CURVE",
"594 617 OFFCURVE",
"608 635 OFFCURVE",
"608 656 CURVE SMOOTH",
"608 676 OFFCURVE",
"591 696 OFFCURVE",
"555 696 CURVE SMOOTH",
"451 696 OFFCURVE",
"372 611 OFFCURVE",
"367 492 CURVE",
"149 492 LINE",
"149 613 LINE",
"166 622 OFFCURVE",
"193 624 OFFCURVE",
"216 624 CURVE SMOOTH",
"243 624 OFFCURVE",
"266 620 OFFCURVE",
"295 612 CURVE",
"306 617 OFFCURVE",
"320 635 OFFCURVE",
"320 656 CURVE SMOOTH",
"320 676 OFFCURVE",
"303 696 OFFCURVE",
"267 696 CURVE SMOOTH",
"163 696 OFFCURVE",
"84 611 OFFCURVE",
"79 494 CURVE",
"23 483 LINE",
"23 443 LINE",
"80 443 LINE",
"80 51 LINE",
"14 37 LINE",
"14 0 LINE"
);
}
);
width = 575;
},
{
anchors = (
{
name = caret_1;
position = "{354, 0}";
}
);
layerId = "5be9d440-7da3-4849-9ff3-c66a194b28b9";
paths = (
{
closed = 1;
nodes = (
"316 0 LINE",
"316 60 LINE",
"252 78 LINE",
"252 417 LINE",
"402 417 LINE",
"402 74 LINE",
"332 60 LINE",
"332 0 LINE",
"655 0 LINE",
"655 64 LINE",
"551 78 LINE",
"551 417 LINE",
"669 417 LINE",
"682 460 LINE",
"682 503 LINE",
"548 503 LINE",
"548 599 LINE",
"553 600 OFFCURVE",
"558 600 OFFCURVE",
"564 600 CURVE SMOOTH",
"601 600 OFFCURVE",
"656 589 OFFCURVE",
"687 576 CURVE",
"699 581 OFFCURVE",
"729 601 OFFCURVE",
"729 640 CURVE SMOOTH",
"729 681 OFFCURVE",
"689 706 OFFCURVE",
"624 706 CURVE SMOOTH",
"510 706 OFFCURVE",
"417 622 OFFCURVE",
"402 503 CURVE",
"249 503 LINE",
"249 599 LINE",
"254 600 OFFCURVE",
"259 600 OFFCURVE",
"265 600 CURVE SMOOTH",
"294 600 OFFCURVE",
"338 589 OFFCURVE",
"363 576 CURVE",
"375 581 OFFCURVE",
"405 601 OFFCURVE",
"405 640 CURVE SMOOTH",
"405 683 OFFCURVE",
"369 706 OFFCURVE",
"310 706 CURVE SMOOTH",
"209 706 OFFCURVE",
"118 618 OFFCURVE",
"103 507 CURVE",
"23 487 LINE",
"23 417 LINE",
"103 417 LINE",
"103 74 LINE",
"20 60 LINE",
"20 0 LINE"
);
}
);
width = 665;
}
);
leftKerningGroup = f;
leftMetricsKey = f;
rightKerningGroup = f;
rightMetricsKey = f;
unicode = FB00;
},
{
glyphname = f_f_i;
layers = (
{
layerId = "4c090d2b-0954-42f9-b8fa-9b61004e66c3";
paths = (
{
closed = 1;
nodes = (
"233 0 LINE",
"233 37 LINE",
"149 53 LINE",
"149 443 LINE",
"368 443 LINE",
"368 51 LINE",
"302 37 LINE",
"302 0 LINE",
"521 0 LINE",
"521 37 LINE",
"437 53 LINE",
"437 443 LINE",
"573 443 LINE",
"656 415 LINE",
"656 51 LINE",
"590 37 LINE",
"590 0 LINE",
"805 0 LINE",
"805 37 LINE",
"725 53 LINE",
"725 482 LINE",
"700 492 LINE",
"437 492 LINE",
"437 613 LINE",
"452 621 OFFCURVE",
"478 625 OFFCURVE",
"508 625 CURVE SMOOTH",
"561 625 OFFCURVE",
"626 613 OFFCURVE",
"661 597 CURVE",
"681 604 OFFCURVE",
"696 625 OFFCURVE",
"696 646 CURVE SMOOTH",
"696 677 OFFCURVE",
"660 696 OFFCURVE",
"593 696 CURVE SMOOTH",
"439 696 OFFCURVE",
"372 611 OFFCURVE",
"367 492 CURVE",
"149 492 LINE",
"149 613 LINE",
"166 622 OFFCURVE",
"193 624 OFFCURVE",
"216 624 CURVE SMOOTH",
"243 624 OFFCURVE",
"266 620 OFFCURVE",
"295 612 CURVE",
"306 617 OFFCURVE",
"320 635 OFFCURVE",
"320 656 CURVE SMOOTH",
"320 676 OFFCURVE",
"303 696 OFFCURVE",
"267 696 CURVE SMOOTH",
"163 696 OFFCURVE",
"84 611 OFFCURVE",
"79 494 CURVE",
"23 483 LINE",
"23 443 LINE",
"80 443 LINE",
"80 51 LINE",
"14 37 LINE",
"14 0 LINE"
);
}
);
width = 833;
},
{
layerId = "5be9d440-7da3-4849-9ff3-c66a194b28b9";
paths = (
{
closed = 1;
nodes = (
"313 0 LINE",
"313 60 LINE",
"252 78 LINE",
"252 417 LINE",
"401 417 LINE",
"401 74 LINE",
"326 60 LINE",
"326 0 LINE",
"611 0 LINE",
"611 60 LINE",
"550 78 LINE",
"550 417 LINE",
"619 417 LINE",
"699 404 LINE",
"699 74 LINE",
"624 60 LINE",
"624 0 LINE",
"916 0 LINE",
"916 60 LINE",
"848 74 LINE",
"848 488 LINE",
"808 503 LINE",
"547 503 LINE",
"547 599 LINE",
"562 601 OFFCURVE",
"577 602 OFFCURVE",
"594 602 CURVE SMOOTH",
"643 602 OFFCURVE",
"699 591 OFFCURVE",
"759 570 CURVE",
"786 580 OFFCURVE",
"806 606 OFFCURVE",
"806 630 CURVE SMOOTH",
"806 686 OFFCURVE",
"759 706 OFFCURVE",
"673 706 CURVE SMOOTH",
"509 706 OFFCURVE",
"416 622 OFFCURVE",
"401 503 CURVE",
"249 503 LINE",
"249 599 LINE",
"254 600 OFFCURVE",
"259 600 OFFCURVE",
"265 600 CURVE SMOOTH",
"294 600 OFFCURVE",
"332 589 OFFCURVE",
"363 576 CURVE",
"375 581 OFFCURVE",
"405 600 OFFCURVE",
"405 640 CURVE SMOOTH",
"405 681 OFFCURVE",
"374 706 OFFCURVE",
"305 706 CURVE SMOOTH",
"218 706 OFFCURVE",
"118 622 OFFCURVE",
"103 507 CURVE",
"23 487 LINE",
"23 417 LINE",
"103 417 LINE",
"103 74 LINE",
"20 60 LINE",
"20 0 LINE"
);
}
);
width = 922;
}
);
leftKerningGroup = f;
leftMetricsKey = f;
rightKerningGroup = i;
rightMetricsKey = i;
},
{
glyphname = f_f_l;
layers = (
{
layerId = "4c090d2b-0954-42f9-b8fa-9b61004e66c3";
paths = (
{
closed = 1;
nodes = (
"233 0 LINE",
"233 37 LINE",
"149 53 LINE",
"149 443 LINE",
"368 443 LINE",
"368 51 LINE",
"302 37 LINE",
"302 0 LINE",
"521 0 LINE",
"521 37 LINE",
"437 53 LINE",
"437 443 LINE",
"575 443 LINE",
"586 464 LINE",
"586 492 LINE",
"437 492 LINE",
"437 613 LINE",
"460 625 OFFCURVE",
"508 630 OFFCURVE",
"554 630 CURVE SMOOTH",
"594 630 OFFCURVE",
"633 626 OFFCURVE",
"656 620 CURVE",
"656 51 LINE",
"590 37 LINE",
"590 0 LINE",
"805 0 LINE",
"805 37 LINE",
"725 53 LINE",
"725 669 LINE",
"698 685 OFFCURVE",
"643 696 OFFCURVE",
"595 696 CURVE SMOOTH",
"451 696 OFFCURVE",
"372 621 OFFCURVE",
"367 492 CURVE",
"149 492 LINE",
"149 613 LINE",
"166 622 OFFCURVE",
"193 624 OFFCURVE",
"216 624 CURVE SMOOTH",
"243 624 OFFCURVE",
"266 620 OFFCURVE",
"295 612 CURVE",
"306 617 OFFCURVE",
"320 635 OFFCURVE",
"320 656 CURVE SMOOTH",
"320 676 OFFCURVE",
"303 696 OFFCURVE",
"267 696 CURVE SMOOTH",
"163 696 OFFCURVE",
"84 611 OFFCURVE",
"79 494 CURVE",
"23 483 LINE",
"23 443 LINE",
"80 443 LINE",
"80 51 LINE",
"14 37 LINE",
"14 0 LINE"
);
}
);
width = 831;
},
{
layerId = "5be9d440-7da3-4849-9ff3-c66a194b28b9";
paths = (
{
closed = 1;
nodes = (
"313 0 LINE",
"313 60 LINE",
"252 78 LINE",
"252 417 LINE",
"401 417 LINE",
"401 74 LINE",
"326 60 LINE",
"326 0 LINE",
"611 0 LINE",
"611 60 LINE",
"550 78 LINE",
"550 417 LINE",
"648 417 LINE",
"661 460 LINE",
"661 503 LINE",
"547 503 LINE",
"547 599 LINE",
"560 601 OFFCURVE",
"573 602 OFFCURVE",
"587 602 CURVE SMOOTH",
"627 602 OFFCURVE",
"669 594 OFFCURVE",
"699 580 CURVE",
"699 74 LINE",
"624 60 LINE",
"624 0 LINE",
"916 0 LINE",
"916 60 LINE",
"848 74 LINE",
"848 677 LINE",
"801 694 OFFCURVE",
"707 706 OFFCURVE",
"663 706 CURVE SMOOTH",
"500 706 OFFCURVE",
"416 622 OFFCURVE",
"401 503 CURVE",
"249 503 LINE",
"249 599 LINE",
"254 600 OFFCURVE",
"259 600 OFFCURVE",
"265 600 CURVE SMOOTH",
"294 600 OFFCURVE",
"338 589 OFFCURVE",
"363 576 CURVE",
"375 581 OFFCURVE",
"405 601 OFFCURVE",
"405 640 CURVE SMOOTH",
"405 681 OFFCURVE",
"365 706 OFFCURVE",
"315 706 CURVE SMOOTH",
"214 706 OFFCURVE",
"118 622 OFFCURVE",
"103 507 CURVE",
"23 487 LINE",
"23 417 LINE",
"103 417 LINE",
"103 74 LINE",
"20 60 LINE",
"20 0 LINE"
);
}
);
width = 931;
}
);
leftKerningGroup = f;
leftMetricsKey = f;
rightKerningGroup = l;
rightMetricsKey = l;
},
{
glyphname = fi;
layers = (
{
anchors = (
{
name = caret_1;
position = "{267, 0}";
}
);
layerId = "4c090d2b-0954-42f9-b8fa-9b61004e66c3";
paths = (
{
closed = 1;
nodes = (
"233 0 LINE",
"233 37 LINE",
"149 53 LINE",
"149 443 LINE",
"285 443 LINE",
"368 415 LINE",
"368 51 LINE",
"302 37 LINE",
"302 0 LINE",
"517 0 LINE",
"517 37 LINE",
"437 53 LINE",
"437 482 LINE",
"412 492 LINE",
"149 492 LINE",
"149 613 LINE",
"164 621 OFFCURVE",
"190 625 OFFCURVE",
"220 625 CURVE SMOOTH",
"273 625 OFFCURVE",
"338 613 OFFCURVE",
"373 597 CURVE",
"393 604 OFFCURVE",
"408 625 OFFCURVE",
"408 646 CURVE SMOOTH",
"408 677 OFFCURVE",
"372 696 OFFCURVE",
"305 696 CURVE SMOOTH",
"151 696 OFFCURVE",
"84 610 OFFCURVE",
"79 494 CURVE",
"23 483 LINE",
"23 443 LINE",
"80 443 LINE",
"80 51 LINE",
"14 37 LINE",
"14 0 LINE"
);
}
);
width = 545;
},
{
anchors = (
{
name = caret_1;
position = "{313, 0}";
}
);
layerId = "5be9d440-7da3-4849-9ff3-c66a194b28b9";
paths = (
{
closed = 1;
nodes = (
"313 0 LINE",
"313 60 LINE",
"252 78 LINE",
"252 417 LINE",
"320 417 LINE",
"401 404 LINE",
"401 74 LINE",
"326 60 LINE",
"326 0 LINE",
"618 0 LINE",
"618 60 LINE",
"550 74 LINE",
"550 488 LINE",
"510 503 LINE",
"249 503 LINE",
"249 599 LINE",
"264 601 OFFCURVE",
"279 602 OFFCURVE",
"296 602 CURVE SMOOTH",
"345 602 OFFCURVE",
"401 591 OFFCURVE",
"461 570 CURVE",
"488 580 OFFCURVE",
"508 606 OFFCURVE",
"508 630 CURVE SMOOTH",
"508 686 OFFCURVE",
"461 706 OFFCURVE",
"375 706 CURVE SMOOTH",
"211 706 OFFCURVE",
"121 623 OFFCURVE",
"103 508 CURVE",
"23 488 LINE",
"23 417 LINE",
"103 417 LINE",
"103 74 LINE",
"20 60 LINE",
"20 0 LINE"
);
}
);
width = 624;
}
);
leftKerningGroup = f;
leftMetricsKey = f;
rightKerningGroup = i;
rightMetricsKey = i;
unicode = FB01;
},
{
glyphname = fl;
layers = (
{
layerId = "4c090d2b-0954-42f9-b8fa-9b61004e66c3";
paths = (
{
closed = 1;
nodes = (
"233 0 LINE",
"233 37 LINE",
"149 53 LINE",
"149 443 LINE",
"287 443 LINE",
"298 464 LINE",
"298 492 LINE",
"149 492 LINE",
"149 613 LINE",
"172 625 OFFCURVE",
"220 630 OFFCURVE",
"266 630 CURVE SMOOTH",
"306 630 OFFCURVE",
"345 626 OFFCURVE",
"368 620 CURVE",
"368 51 LINE",
"302 37 LINE",
"302 0 LINE",
"517 0 LINE",
"517 37 LINE",
"437 53 LINE",
"437 669 LINE",
"410 685 OFFCURVE",
"355 696 OFFCURVE",
"307 696 CURVE SMOOTH",
"163 696 OFFCURVE",
"84 621 OFFCURVE",
"79 494 CURVE",
"23 483 LINE",
"23 443 LINE",
"80 443 LINE",
"80 51 LINE",
"14 37 LINE",
"14 0 LINE"
);
}
);
width = 543;
},
{
layerId = "5be9d440-7da3-4849-9ff3-c66a194b28b9";
paths = (
{
closed = 1;
nodes = (
"313 0 LINE",
"313 60 LINE",
"252 78 LINE",
"252 417 LINE",
"350 417 LINE",
"363 460 LINE",
"363 503 LINE",
"249 503 LINE",
"249 599 LINE",
"262 601 OFFCURVE",
"275 602 OFFCURVE",
"289 602 CURVE SMOOTH",
"329 602 OFFCURVE",
"371 594 OFFCURVE",
"401 580 CURVE",
"401 74 LINE",
"326 60 LINE",
"326 0 LINE",
"617 0 LINE",
"617 60 LINE",
"550 74 LINE",
"550 677 LINE",
"503 694 OFFCURVE",
"409 706 OFFCURVE",
"365 706 CURVE SMOOTH",
"208 706 OFFCURVE",
"118 627 OFFCURVE",
"103 507 CURVE",
"23 487 LINE",
"23 417 LINE",
"103 417 LINE",
"103 74 LINE",
"20 60 LINE",
"20 0 LINE"
);
}
);
width = 632;
}
);
leftKerningGroup = f;
leftMetricsKey = f;
rightKerningGroup = l;
rightMetricsKey = l;
unicode = FB02;
},
{
glyphname = ordfeminine;
layers = (
{
layerId = "4c090d2b-0954-42f9-b8fa-9b61004e66c3";
paths = (
{
closed = 1;
nodes = (
"157 357 OFFCURVE",
"195 367 OFFCURVE",
"216 385 CURVE",
"219 385 LINE",
"222 370 OFFCURVE",
"240 358 OFFCURVE",
"263 358 CURVE SMOOTH",
"283 358 OFFCURVE",
"313 364 OFFCURVE",
"335 370 CURVE",
"335 392 LINE",
"283 408 LINE",
"283 632 LINE SMOOTH",
"283 675 OFFCURVE",
"240 708 OFFCURVE",
"183 708 CURVE SMOOTH",
"111 708 OFFCURVE",
"32 659 OFFCURVE",
"32 622 CURVE SMOOTH",
"32 603 OFFCURVE",
"43 592 OFFCURVE",
"62 592 CURVE SMOOTH",
"71 592 OFFCURVE",
"82 594 OFFCURVE",
"88 597 CURVE",
"104 659 LINE",
"119 662 OFFCURVE",
"136 664 OFFCURVE",
"145 664 CURVE SMOOTH",
"194 664 OFFCURVE",
"219 644 OFFCURVE",
"219 604 CURVE SMOOTH",
"219 553 LINE",
"140 543 LINE SMOOTH",
"69 534 OFFCURVE",
"23 494 OFFCURVE",
"23 441 CURVE SMOOTH",
"23 389 OFFCURVE",
"60 357 OFFCURVE",
"123 357 CURVE SMOOTH"
);
},
{
closed = 1;
nodes = (
"115 401 OFFCURVE",
"90 419 OFFCURVE",
"90 450 CURVE SMOOTH",
"90 495 OFFCURVE",
"128 516 OFFCURVE",
"219 521 CURVE",
"219 412 LINE",
"204 406 OFFCURVE",
"176 401 OFFCURVE",
"157 401 CURVE SMOOTH"
);
}
);
width = 376;
},
{
layerId = "5be9d440-7da3-4849-9ff3-c66a194b28b9";
paths = (
{
closed = 1;
nodes = (
"152 347 OFFCURVE",
"190 367 OFFCURVE",
"209 391 CURVE",
"216 391 LINE",
"227 361 OFFCURVE",
"241 352 OFFCURVE",
"273 352 CURVE SMOOTH",
"299 352 OFFCURVE",
"337 360 OFFCURVE",
"362 374 CURVE",
"362 424 LINE",
"313 432 LINE",
"313 608 LINE SMOOTH",
"313 679 OFFCURVE",
"277 704 OFFCURVE",
"179 704 CURVE SMOOTH",
"98 704 OFFCURVE",
"36 665 OFFCURVE",
"36 616 CURVE SMOOTH",
"36 587 OFFCURVE",
"51 574 OFFCURVE",
"87 574 CURVE SMOOTH",
"100 574 OFFCURVE",
"117 578 OFFCURVE",
"126 581 CURVE",
"133 630 LINE",
"135 632 OFFCURVE",
"149 632 OFFCURVE",
"161 632 CURVE SMOOTH",
"195 632 OFFCURVE",
"205 620 OFFCURVE",
"205 584 CURVE SMOOTH",
"205 554 LINE",
"130 543 LINE SMOOTH",
"56 531 OFFCURVE",
"23 499 OFFCURVE",
"23 441 CURVE SMOOTH",
"23 385 OFFCURVE",
"64 347 OFFCURVE",
"122 347 CURVE SMOOTH"
);
},
{
closed = 1;
nodes = (
"147 428 OFFCURVE",
"135 437 OFFCURVE",
"135 454 CURVE SMOOTH",
"135 476 OFFCURVE",
"153 486 OFFCURVE",
"205 491 CURVE",
"205 437 LINE",
"191 430 OFFCURVE",
"182 428 OFFCURVE",
"171 428 CURVE SMOOTH"
);
}
);
width = 376;
}
);
unicode = 00AA;
},
{
glyphname = ordmasculine;
layers = (
{
layerId = "4c090d2b-0954-42f9-b8fa-9b61004e66c3";
paths = (
{
closed = 1;
nodes = (
"294 356 OFFCURVE",
"349 444 OFFCURVE",
"349 541 CURVE SMOOTH",
"349 640 OFFCURVE",
"293 706 OFFCURVE",
"197 706 CURVE SMOOTH",
"96 706 OFFCURVE",
"35 619 OFFCURVE",
"35 525 CURVE SMOOTH",
"35 423 OFFCURVE",
"86 356 OFFCURVE",
"185 356 CURVE"
);
},
{
closed = 1;
nodes = (
"120 404 OFFCURVE",
"97 441 OFFCURVE",
"97 529 CURVE SMOOTH",
"97 605 OFFCURVE",
"112 653 OFFCURVE",
"193 653 CURVE SMOOTH",
"263 653 OFFCURVE",
"288 618 OFFCURVE",
"288 529 CURVE SMOOTH",
"288 448 OFFCURVE",
"267 404 OFFCURVE",
"198 404 CURVE"
);
}
);
width = 386;
},
{
layerId = "5be9d440-7da3-4849-9ff3-c66a194b28b9";
paths = (
{
closed = 1;
nodes = (
"313 348 OFFCURVE",
"378 436 OFFCURVE",
"378 541 CURVE SMOOTH",
"378 648 OFFCURVE",
"311 714 OFFCURVE",
"197 714 CURVE SMOOTH",
"78 714 OFFCURVE",
"6 627 OFFCURVE",
"6 525 CURVE SMOOTH",
"6 415 OFFCURVE",
"67 348 OFFCURVE",
"185 348 CURVE"
);
},
{
closed = 1;
nodes = (
"145 428 OFFCURVE",
"137 452 OFFCURVE",
"137 529 CURVE SMOOTH",
"137 595 OFFCURVE",
"139 629 OFFCURVE",
"193 629 CURVE SMOOTH",
"239 629 OFFCURVE",
"248 607 OFFCURVE",
"248 529 CURVE SMOOTH",
"248 459 OFFCURVE",
"242 428 OFFCURVE",
"198 428 CURVE"
);
}
);
width = 386;
}
);
unicode = 00BA;
},
{
glyphname = pi;
layers = (
{
layerId = "4c090d2b-0954-42f9-b8fa-9b61004e66c3";
paths = (
{
closed = 1;
nodes = (
"427 -3 OFFCURVE",
"467 23 OFFCURVE",
"471 26 CURVE",
"471 61 LINE",
"400 61 LINE",
"400 428 LINE",
"428 428 OFFCURVE",
"449 430 OFFCURVE",
"464 442 CURVE SMOOTH",
"512 480 LINE",
"490 517 LINE",
"399 487 LINE",
"88 487 LINE SMOOTH",
"54 487 OFFCURVE",
"29 478 OFFCURVE",
"10 462 CURVE SMOOTH",
"-35 424 LINE",
"-14 390 LINE",
"90 428 LINE",
"90 97 LINE",
"61 37 LINE",
"61 0 LINE",
"115 0 LINE",
"147 36 OFFCURVE",
"161 85 OFFCURVE",
"161 123 CURVE SMOOTH",
"161 428 LINE",
"329 428 LINE",
"329 71 LINE SMOOTH",
"329 29 OFFCURVE",
"332 -3 OFFCURVE",
"382 -3 CURVE SMOOTH"
);
}
);
width = 511;
},
{
layerId = "5be9d440-7da3-4849-9ff3-c66a194b28b9";
paths = (
{
closed = 1;
nodes = (
"521 -7 OFFCURVE",
"571 16 OFFCURVE",
"598 34 CURVE",
"598 93 LINE",
"525 93 LINE",
"525 415 LINE",
"567 415 OFFCURVE",
"597 447 OFFCURVE",
"646 500 CURVE SMOOTH",
"678 535 LINE",
"639 583 LINE",
"555 529 LINE",
"197 529 LINE SMOOTH",
"102 529 OFFCURVE",
"107 509 OFFCURVE",
"45 448 CURVE",
"12 413 LINE",
"52 363 LINE",
"135 415 LINE",
"135 97 LINE",
"86 60 LINE",
"86 0 LINE",
"205 0 LINE",
"232 9 OFFCURVE",
"268 41 OFFCURVE",
"268 96 CURVE SMOOTH",
"268 415 LINE",
"390 415 LINE",
"390 60 LINE SMOOTH",
"390 -3 OFFCURVE",
"422 -7 OFFCURVE",
"480 -7 CURVE SMOOTH"
);
}
);
width = 628;
}
);
unicode = 03C0;
},
{
glyphname = zero;
layers = (
{
layerId = "4c090d2b-0954-42f9-b8fa-9b61004e66c3";
paths = (
{
closed = 1;
nodes = (
"467 -5 OFFCURVE",
"540 125 OFFCURVE",
"540 328 CURVE SMOOTH",
"540 531 OFFCURVE",
"485 660 OFFCURVE",
"304 660 CURVE SMOOTH",
"122 660 OFFCURVE",
"47 531 OFFCURVE",
"47 328 CURVE SMOOTH",
"47 125 OFFCURVE",
"105 -5 OFFCURVE",
"286 -5 CURVE SMOOTH"
);
},
{
closed = 1;
nodes = (
"159 48 OFFCURVE",
"127 144 OFFCURVE",
"127 328 CURVE SMOOTH",
"127 512 OFFCURVE",
"159 607 OFFCURVE",
"294 607 CURVE SMOOTH",
"428 607 OFFCURVE",
"460 512 OFFCURVE",
"460 328 CURVE SMOOTH",
"460 144 OFFCURVE",
"428 48 OFFCURVE",
"294 48 CURVE SMOOTH"
);
}
);
width = 587;
},
{
layerId = "5be9d440-7da3-4849-9ff3-c66a194b28b9";
paths = (
{
closed = 1;
nodes = (
"491 -21 OFFCURVE",
"569 121 OFFCURVE",
"569 324 CURVE SMOOTH",
"569 527 OFFCURVE",
"512 668 OFFCURVE",
"318 668 CURVE SMOOTH",
"127 668 OFFCURVE",
"47 527 OFFCURVE",
"47 324 CURVE SMOOTH",
"47 121 OFFCURVE",
"106 -21 OFFCURVE",
"300 -21 CURVE SMOOTH"
);
},
{
closed = 1;
nodes = (
"231 68 OFFCURVE",
"211 171 OFFCURVE",
"211 324 CURVE SMOOTH",
"211 477 OFFCURVE",
"231 575 OFFCURVE",
"308 575 CURVE SMOOTH",
"385 575 OFFCURVE",
"405 477 OFFCURVE",
"405 324 CURVE SMOOTH",
"405 171 OFFCURVE",
"385 68 OFFCURVE",
"308 68 CURVE SMOOTH"
);
}
);
width = 616;
}
);
unicode = 0030;
},
{
glyphname = one;
layers = (
{
layerId = "4c090d2b-0954-42f9-b8fa-9b61004e66c3";
paths = (
{
closed = 1;
nodes = (
"361 0 LINE",
"361 45 LINE",
"243 55 LINE",
"243 658 LINE",
"208 658 LINE",
"44 628 LINE",
"44 586 LINE",
"170 586 LINE",
"170 55 LINE",
"57 45 LINE",
"57 0 LINE"
);
}
);
width = 380;
},
{
layerId = "5be9d440-7da3-4849-9ff3-c66a194b28b9";
paths = (
{
closed = 1;
nodes = (
"425 0 LINE",
"425 69 LINE",
"312 88 LINE",
"312 657 LINE",
"222 657 LINE",
"44 627 LINE",
"44 546 LINE",
"162 546 LINE",
"162 88 LINE",
"46 69 LINE",
"46 0 LINE"
);
}
);
width = 444;
}
);
unicode = 0031;
},
{
glyphname = two;
layers = (
{
layerId = "4c090d2b-0954-42f9-b8fa-9b61004e66c3";
paths = (
{
closed = 1;
nodes = (
"459 0 LINE",
"459 157 LINE",
"414 157 LINE",
"395 71 LINE",
"123 71 LINE",
"123 77 LINE",
"233 186 LINE SMOOTH",
"383 334 OFFCURVE",
"433 400 OFFCURVE",
"433 479 CURVE SMOOTH",
"433 611 OFFCURVE",
"359 658 OFFCURVE",
"219 658 CURVE SMOOTH",
"129 658 OFFCURVE",
"68 631 OFFCURVE",
"47 621 CURVE",
"47 484 LINE",
"92 484 LINE",
"107 577 LINE",
"119 583 OFFCURVE",
"156 597 OFFCURVE",
"223 597 CURVE SMOOTH",
"324 597 OFFCURVE",
"352 558 OFFCURVE",
"352 475 CURVE SMOOTH",
"352 395 OFFCURVE",
"303 340 OFFCURVE",
"207 239 CURVE SMOOTH",
"29 52 LINE",
"29 0 LINE"
);
}
);
width = 480;
},
{
layerId = "5be9d440-7da3-4849-9ff3-c66a194b28b9";
paths = (
{
closed = 1;
nodes = (
"500 0 LINE",
"500 197 LINE",
"428 197 LINE",
"400 100 LINE",
"207 100 LINE",
"207 107 LINE",
"350 246 LINE SMOOTH",
"420 315 OFFCURVE",
"478 384 OFFCURVE",
"478 498 CURVE SMOOTH",
"478 598 OFFCURVE",
"416 668 OFFCURVE",
"232 668 CURVE SMOOTH",
"161 668 OFFCURVE",
"76 650 OFFCURVE",
"34 634 CURVE",
"34 452 LINE",
"110 452 LINE",
"132 562 LINE",
"157 572 OFFCURVE",
"175 577 OFFCURVE",
"212 577 CURVE SMOOTH",
"298 577 OFFCURVE",
"323 547 OFFCURVE",
"323 482 CURVE SMOOTH",
"323 414 OFFCURVE",
"310 365 OFFCURVE",
"249 302 CURVE SMOOTH",
"29 72 LINE",
"29 0 LINE"
);
}
);
width = 520;
}
);
unicode = 0032;
},
{
glyphname = three;
layers = (
{
layerId = "4c090d2b-0954-42f9-b8fa-9b61004e66c3";
paths = (
{
closed = 1;
nodes = (
"335 -8 OFFCURVE",
"421 60 OFFCURVE",
"421 194 CURVE SMOOTH",
"421 306 OFFCURVE",
"332 343 OFFCURVE",
"276 356 CURVE",
"279 357 LINE",
"328 380 OFFCURVE",
"383 426 OFFCURVE",
"383 510 CURVE SMOOTH",
"383 588 OFFCURVE",
"354 658 OFFCURVE",
"195 658 CURVE SMOOTH",
"103 658 OFFCURVE",
"47 637 OFFCURVE",
"26 628 CURVE",
"33 496 LINE",
"79 496 LINE",
"88 580 LINE",
"83 578 OFFCURVE",
"120 597 OFFCURVE",
"188 597 CURVE SMOOTH",
"287 597 OFFCURVE",
"312 557 OFFCURVE",
"312 485 CURVE SMOOTH",
"312 406 OFFCURVE",
"227 370 OFFCURVE",
"158 370 CURVE SMOOTH",
"107 370 LINE",
"107 336 LINE",
"121 310 LINE",
"178 310 LINE SMOOTH",
"261 310 OFFCURVE",
"336 288 OFFCURVE",
"336 185 CURVE SMOOTH",
"336 84 OFFCURVE",
"284 50 OFFCURVE",
"189 50 CURVE SMOOTH",
"142 50 OFFCURVE",
"111 64 OFFCURVE",
"81 81 CURVE",
"71 157 LINE",
"26 157 LINE",
"20 37 LINE",
"54 14 OFFCURVE",
"129 -8 OFFCURVE",
"186 -8 CURVE SMOOTH"
);
}
);
width = 432;
},
{
layerId = "5be9d440-7da3-4849-9ff3-c66a194b28b9";
paths = (
{
closed = 1;
nodes = (
"338 -19 OFFCURVE",
"483 31 OFFCURVE",
"483 188 CURVE SMOOTH",
"483 289 OFFCURVE",
"419 339 OFFCURVE",
"333 357 CURVE",
"333 364 LINE",
"389 387 OFFCURVE",
"449 444 OFFCURVE",
"449 520 CURVE SMOOTH",
"449 643 OFFCURVE",
"350 668 OFFCURVE",
"232 668 CURVE SMOOTH",
"145 668 OFFCURVE",
"80 648 OFFCURVE",
"39 632 CURVE",
"49 472 LINE",
"127 472 LINE",
"135 562 LINE",
"164 573 OFFCURVE",
"186 574 OFFCURVE",
"204 574 CURVE SMOOTH",
"273 574 OFFCURVE",
"308 557 OFFCURVE",
"308 493 CURVE SMOOTH",
"308 424 OFFCURVE",
"259 381 OFFCURVE",
"178 381 CURVE SMOOTH",
"132 381 LINE",
"132 336 LINE",
"153 296 LINE",
"177 296 LINE SMOOTH",
"274 296 OFFCURVE",
"336 254 OFFCURVE",
"336 185 CURVE SMOOTH",
"336 113 OFFCURVE",
"309 75 OFFCURVE",
"218 75 CURVE SMOOTH",
"179 75 OFFCURVE",
"130 104 OFFCURVE",
"129 105 CURVE",
"118 204 LINE",
"31 204 LINE",
"20 32 LINE",
"40 19 OFFCURVE",
"100 -19 OFFCURVE",
"228 -19 CURVE SMOOTH"
);
}
);
width = 494;
}
);
unicode = 0033;
},
{
glyphname = four;
layers = (
{
layerId = "4c090d2b-0954-42f9-b8fa-9b61004e66c3";
paths = (
{
closed = 1;
nodes = (
"442 0 LINE",
"442 40 LINE",
"359 55 LINE",
"359 185 LINE",
"455 185 LINE",
"455 240 LINE",
"359 240 LINE",
"359 652 LINE",
"320 672 LINE",
"-4 225 LINE",
"18 185 LINE",
"290 185 LINE",
"290 55 LINE",
"207 40 LINE",
"207 0 LINE"
);
},
{
closed = 1;
nodes = (
"72 245 LINE",
"280 535 LINE",
"290 553 LINE",
"290 549 LINE",
"290 530 LINE",
"290 240 LINE",
"76 240 LINE"
);
}
);
width = 472;
},
{
layerId = "5be9d440-7da3-4849-9ff3-c66a194b28b9";
paths = (
{
closed = 1;
nodes = (
"517 0 LINE",
"517 63 LINE",
"431 82 LINE",
"431 160 LINE",
"506 160 LINE",
"506 265 LINE",
"431 265 LINE",
"431 663 LINE",
"320 696 LINE",
"-4 245 LINE",
"37 160 LINE",
"284 160 LINE",
"284 82 LINE",
"199 63 LINE",
"199 0 LINE"
);
},
{
closed = 1;
nodes = (
"137 277 LINE",
"276 474 LINE",
"280 487 LINE",
"287 487 LINE",
"284 475 LINE",
"284 265 LINE",
"137 265 LINE"
);
}
);
width = 533;
}
);
unicode = 0034;
},
{
glyphname = five;
layers = (
{
layerId = "4c090d2b-0954-42f9-b8fa-9b61004e66c3";
paths = (
{
closed = 1;
nodes = (
"343 -8 OFFCURVE",
"421 84 OFFCURVE",
"421 214 CURVE SMOOTH",
"421 343 OFFCURVE",
"349 409 OFFCURVE",
"157 409 CURVE SMOOTH",
"97 409 LINE",
"97 582 LINE",
"391 582 LINE",
"391 648 LINE",
"45 648 LINE",
"45 352 LINE",
"145 352 LINE SMOOTH",
"296 352 OFFCURVE",
"340 294 OFFCURVE",
"340 201 CURVE SMOOTH",
"340 107 OFFCURVE",
"304 42 OFFCURVE",
"198 42 CURVE SMOOTH",
"134 42 OFFCURVE",
"101 57 OFFCURVE",
"85 65 CURVE",
"76 162 LINE",
"26 162 LINE",
"20 33 LINE",
"62 8 OFFCURVE",
"117 -8 OFFCURVE",
"196 -8 CURVE SMOOTH"
);
}
);
width = 433;
},
{
layerId = "5be9d440-7da3-4849-9ff3-c66a194b28b9";
paths = (
{
closed = 1;
nodes = (
"354 -19 OFFCURVE",
"468 51 OFFCURVE",
"468 222 CURVE SMOOTH",
"468 373 OFFCURVE",
"344 409 OFFCURVE",
"199 409 CURVE SMOOTH",
"141 409 LINE",
"141 524 LINE",
"424 524 LINE",
"424 648 LINE",
"44 648 LINE",
"44 314 LINE",
"149 314 LINE SMOOTH",
"263 314 OFFCURVE",
"318 283 OFFCURVE",
"318 195 CURVE SMOOTH",
"318 109 OFFCURVE",
"286 75 OFFCURVE",
"216 75 CURVE SMOOTH",
"152 75 OFFCURVE",
"114 108 OFFCURVE",
"118 106 CURVE",
"105 199 LINE",
"30 199 LINE",
"20 25 LINE",
"39 13 OFFCURVE",
"103 -19 OFFCURVE",
"210 -19 CURVE SMOOTH"
);
}
);
width = 480;
}
);
unicode = 0035;
},
{
glyphname = six;
layers = (
{
layerId = "4c090d2b-0954-42f9-b8fa-9b61004e66c3";
paths = (
{
closed = 1;
nodes = (
"383 -9 OFFCURVE",
"468 79 OFFCURVE",
"468 212 CURVE SMOOTH",
"468 316 OFFCURVE",
"398 388 OFFCURVE",
"293 388 CURVE SMOOTH",
"236 388 OFFCURVE",
"176 369 OFFCURVE",
"128 336 CURVE",
"131 500 OFFCURVE",
"236 600 OFFCURVE",
"427 619 CURVE",
"427 655 LINE",
"179 645 OFFCURVE",
"46 497 OFFCURVE",
"46 257 CURVE SMOOTH",
"46 73 OFFCURVE",
"109 -9 OFFCURVE",
"250 -9 CURVE SMOOTH"
);
},
{
closed = 1;
nodes = (
"162 41 OFFCURVE",
"127 104 OFFCURVE",
"127 286 CURVE SMOOTH",
"127 290 OFFCURVE",
"127 295 OFFCURVE",
"127 305 CURVE",
"171 322 OFFCURVE",
"223 328 OFFCURVE",
"259 328 CURVE SMOOTH",
"344 328 OFFCURVE",
"391 283 OFFCURVE",
"391 200 CURVE SMOOTH",
"391 94 OFFCURVE",
"349 41 OFFCURVE",
"263 41 CURVE SMOOTH"
);
}
);
width = 503;
},
{
layerId = "5be9d440-7da3-4849-9ff3-c66a194b28b9";
paths = (
{
closed = 1;
nodes = (
"423 -17 OFFCURVE",
"521 79 OFFCURVE",
"521 225 CURVE SMOOTH",
"521 349 OFFCURVE",
"453 423 OFFCURVE",
"346 423 CURVE SMOOTH",
"298 423 OFFCURVE",
"256 411 OFFCURVE",
"218 384 CURVE",
"238 511 OFFCURVE",
"329 587 OFFCURVE",
"484 609 CURVE",
"484 669 LINE",
"213 672 OFFCURVE",
"45 508 OFFCURVE",
"45 241 CURVE SMOOTH",
"45 77 OFFCURVE",
"128 -17 OFFCURVE",
"273 -17 CURVE SMOOTH"
);
},
{
closed = 1;
nodes = (
"236 84 OFFCURVE",
"216 127 OFFCURVE",
"216 246 CURVE SMOOTH",
"216 279 OFFCURVE",
"217 301 OFFCURVE",
"218 304 CURVE",
"226 306 OFFCURVE",
"252 309 OFFCURVE",
"278 309 CURVE SMOOTH",
"340 309 OFFCURVE",
"362 280 OFFCURVE",
"362 200 CURVE SMOOTH",
"362 113 OFFCURVE",
"344 84 OFFCURVE",
"288 84 CURVE SMOOTH"
);
}
);
width = 556;
}
);
unicode = 0036;
},
{
glyphname = seven;
layers = (
{
layerId = "4c090d2b-0954-42f9-b8fa-9b61004e66c3";
paths = (
{
closed = 1;
nodes = (
"159 0 LINE",
"432 581 LINE",
"432 648 LINE",
"21 648 LINE",
"30 502 LINE",
"79 502 LINE",
"86 581 LINE",
"371 581 LINE",
"371 566 LINE",
"93 37 LINE",
"93 0 LINE"
);
}
);
width = 427;
},
{
layerId = "5be9d440-7da3-4849-9ff3-c66a194b28b9";
paths = (
{
closed = 1;
nodes = (
"189 0 LINE",
"467 524 LINE",
"467 648 LINE",
"21 648 LINE",
"31 449 LINE",
"109 449 LINE",
"124 524 LINE",
"330 524 LINE",
"330 496 LINE",
"68 61 LINE",
"68 0 LINE"
);
}
);
width = 462;
}
);
unicode = 0037;
},
{
glyphname = eight;
layers = (
{
layerId = "4c090d2b-0954-42f9-b8fa-9b61004e66c3";
paths = (
{
closed = 1;
nodes = (
"388 -9 OFFCURVE",
"443 88 OFFCURVE",
"443 178 CURVE SMOOTH",
"443 259 OFFCURVE",
"391 305 OFFCURVE",
"316 345 CURVE",
"377 377 OFFCURVE",
"422 436 OFFCURVE",
"422 502 CURVE SMOOTH",
"422 591 OFFCURVE",
"366 657 OFFCURVE",
"247 657 CURVE SMOOTH",
"145 657 OFFCURVE",
"60 590 OFFCURVE",
"60 486 CURVE SMOOTH",
"60 416 OFFCURVE",
"100 366 OFFCURVE",
"167 329 CURVE",
"97 290 OFFCURVE",
"42 228 OFFCURVE",
"42 146 CURVE SMOOTH",
"42 47 OFFCURVE",
"111 -9 OFFCURVE",
"237 -9 CURVE SMOOTH"
);
},
{
closed = 1;
nodes = (
"160 43 OFFCURVE",
"120 83 OFFCURVE",
"120 170 CURVE SMOOTH",
"120 220 OFFCURVE",
"145 275 OFFCURVE",
"199 314 CURVE",
"211 309 LINE SMOOTH",
"320 264 OFFCURVE",
"372 234 OFFCURVE",
"372 170 CURVE SMOOTH",
"372 87 OFFCURVE",
"332 43 OFFCURVE",
"245 43 CURVE SMOOTH"
);
},
{
closed = 1;
nodes = (
"272 366 OFFCURVE",
"257 372 OFFCURVE",
"242 379 CURVE SMOOTH",
"166 412 OFFCURVE",
"127 441 OFFCURVE",
"127 504 CURVE SMOOTH",
"127 559 OFFCURVE",
"153 599 OFFCURVE",
"237 599 CURVE SMOOTH",
"316 599 OFFCURVE",
"351 574 OFFCURVE",
"351 492 CURVE SMOOTH",
"351 433 OFFCURVE",
"329 396 OFFCURVE",
"285 360 CURVE"
);
}
);
width = 473;
},
{
layerId = "5be9d440-7da3-4849-9ff3-c66a194b28b9";
paths = (
{
closed = 1;
nodes = (
"407 -15 OFFCURVE",
"496 78 OFFCURVE",
"496 182 CURVE SMOOTH",
"496 277 OFFCURVE",
"449 322 OFFCURVE",
"384 360 CURVE",
"435 394 OFFCURVE",
"472 442 OFFCURVE",
"472 526 CURVE SMOOTH",
"472 620 OFFCURVE",
"390 675 OFFCURVE",
"272 675 CURVE SMOOTH",
"139 675 OFFCURVE",
"49 590 OFFCURVE",
"49 475 CURVE SMOOTH",
"49 387 OFFCURVE",
"96 341 OFFCURVE",
"148 309 CURVE",
"89 271 OFFCURVE",
"42 196 OFFCURVE",
"42 135 CURVE SMOOTH",
"42 41 OFFCURVE",
"112 -15 OFFCURVE",
"255 -15 CURVE SMOOTH"
);
},
{
closed = 1;
nodes = (
"192 72 OFFCURVE",
"173 115 OFFCURVE",
"173 160 CURVE SMOOTH",
"173 193 OFFCURVE",
"178 224 OFFCURVE",
"219 274 CURVE",
"268 252 LINE SMOOTH",
"326 226 OFFCURVE",
"353 197 OFFCURVE",
"353 146 CURVE SMOOTH",
"353 100 OFFCURVE",
"324 72 OFFCURVE",
"268 72 CURVE SMOOTH"
);
},
{
closed = 1;
nodes = (
"297 403 OFFCURVE",
"282 410 OFFCURVE",
"271 416 CURVE SMOOTH",
"206 450 OFFCURVE",
"196 475 OFFCURVE",
"196 513 CURVE SMOOTH",
"196 557 OFFCURVE",
"219 581 OFFCURVE",
"267 581 CURVE SMOOTH",
"326 581 OFFCURVE",
"351 548 OFFCURVE",
"351 504 CURVE SMOOTH",
"351 464 OFFCURVE",
"336 418 OFFCURVE",
"313 396 CURVE"
);
}
);
width = 526;
}
);
unicode = 0038;
},
{
glyphname = nine;
layers = (
{
layerId = "4c090d2b-0954-42f9-b8fa-9b61004e66c3";
paths = (
{
closed = 1;
nodes = (
"333 -3 OFFCURVE",
"447 107 OFFCURVE",
"447 346 CURVE SMOOTH",
"447 578 OFFCURVE",
"379 658 OFFCURVE",
"231 658 CURVE SMOOTH",
"121 658 OFFCURVE",
"24 596 OFFCURVE",
"24 441 CURVE SMOOTH",
"24 329 OFFCURVE",
"101 265 OFFCURVE",
"202 265 CURVE SMOOTH",
"315 265 OFFCURVE",
"373 321 OFFCURVE",
"367 317 CURVE",
"364 114 OFFCURVE",
"299 38 OFFCURVE",
"76 38 CURVE",
"76 2 LINE",
"83 -1 OFFCURVE",
"114 -3 OFFCURVE",
"151 -3 CURVE"
);
},
{
closed = 1;
nodes = (
"182 324 OFFCURVE",
"103 349 OFFCURVE",
"103 449 CURVE SMOOTH",
"103 546 OFFCURVE",
"125 609 OFFCURVE",
"225 609 CURVE SMOOTH",
"364 609 OFFCURVE",
"366 480 OFFCURVE",
"367 353 CURVE",
"359 349 OFFCURVE",
"302 324 OFFCURVE",
"248 324 CURVE SMOOTH"
);
}
);
width = 476;
},
{
layerId = "5be9d440-7da3-4849-9ff3-c66a194b28b9";
paths = (
{
closed = 1;
nodes = (
"405 -17 OFFCURVE",
"518 119 OFFCURVE",
"518 380 CURVE SMOOTH",
"518 578 OFFCURVE",
"440 669 OFFCURVE",
"271 669 CURVE SMOOTH",
"142 669 OFFCURVE",
"36 565 OFFCURVE",
"36 436 CURVE SMOOTH",
"36 289 OFFCURVE",
"102 217 OFFCURVE",
"235 217 CURVE SMOOTH",
"273 217 OFFCURVE",
"320 225 OFFCURVE",
"347 245 CURVE",
"329 94 OFFCURVE",
"271 51 OFFCURVE",
"90 51 CURVE",
"90 -9 LINE",
"138 -15 OFFCURVE",
"164 -17 OFFCURVE",
"186 -17 CURVE SMOOTH"
);
},
{
closed = 1;
nodes = (
"226 331 OFFCURVE",
"196 371 OFFCURVE",
"196 443 CURVE SMOOTH",
"196 535 OFFCURVE",
"218 568 OFFCURVE",
"279 568 CURVE SMOOTH",
"363 568 OFFCURVE",
"361 426 OFFCURVE",
"347 335 CURVE",
"333 333 OFFCURVE",
"304 331 OFFCURVE",
"279 331 CURVE SMOOTH"
);
}
);
width = 564;
}
);
unicode = 0039;
},
{
glyphname = zero.zero;
layers = (
{
components = (
{
alignment = -1;
name = zero;
}
);
layerId = "4c090d2b-0954-42f9-b8fa-9b61004e66c3";
paths = (
{
closed = 1;
nodes = (
"236 34 LINE",
"396 604 LINE",
"351 604 LINE",
"191 34 LINE"
);
}
);
width = 587;
},
{
components = (
{
alignment = -1;
name = zero;
}
);
layerId = "5be9d440-7da3-4849-9ff3-c66a194b28b9";
paths = (
{
closed = 1;
nodes = (
"280 34 LINE",
"430 604 LINE",
"335 604 LINE",
"185 34 LINE"
);
}
);
width = 616;
}
);
leftKerningGroup = zero;
leftMetricsKey = zero;
rightKerningGroup = zero;
rightMetricsKey = zero;
},
{
glyphname = zero.osf;
layers = (
{
layerId = "4c090d2b-0954-42f9-b8fa-9b61004e66c3";
paths = (
{
closed = 1;
nodes = (
"434 -8 OFFCURVE",
"537 101 OFFCURVE",
"537 260 CURVE SMOOTH",
"537 407 OFFCURVE",
"466 526 OFFCURVE",
"290 526 CURVE SMOOTH",
"146 526 OFFCURVE",
"43 407 OFFCURVE",
"43 260 CURVE SMOOTH",
"43 113 OFFCURVE",
"113 -8 OFFCURVE",
"290 -8 CURVE SMOOTH"
);
},
{
closed = 1;
nodes = (
"191 49 OFFCURVE",
"121 128 OFFCURVE",
"121 259 CURVE SMOOTH",
"121 395 OFFCURVE",
"168 470 OFFCURVE",
"289 470 CURVE SMOOTH",
"392 470 OFFCURVE",
"459 412 OFFCURVE",
"459 259 CURVE SMOOTH",
"459 126 OFFCURVE",
"414 49 OFFCURVE",
"289 49 CURVE SMOOTH"
);
}
);
width = 579;
},
{
layerId = "5be9d440-7da3-4849-9ff3-c66a194b28b9";
paths = (
{
closed = 1;
nodes = (
"474 -16 OFFCURVE",
"569 97 OFFCURVE",
"569 260 CURVE SMOOTH",
"569 411 OFFCURVE",
"508 536 OFFCURVE",
"301 536 CURVE SMOOTH",
"130 536 OFFCURVE",
"33 411 OFFCURVE",
"33 260 CURVE SMOOTH",
"33 109 OFFCURVE",
"94 -16 OFFCURVE",
"301 -16 CURVE SMOOTH"
);
},
{
closed = 1;
nodes = (
"229 91 OFFCURVE",
"202 146 OFFCURVE",
"202 259 CURVE SMOOTH",
"202 376 OFFCURVE",
"234 430 OFFCURVE",
"300 430 CURVE SMOOTH",
"365 430 OFFCURVE",
"399 389 OFFCURVE",
"399 259 CURVE SMOOTH",
"399 145 OFFCURVE",
"371 91 OFFCURVE",
"300 91 CURVE SMOOTH"
);
}
);
width = 602;
}
);
},
{
glyphname = one.osf;
layers = (
{
layerId = "4c090d2b-0954-42f9-b8fa-9b61004e66c3";
paths = (
{
closed = 1;
nodes = (
"327 0 LINE",
"327 45 LINE",
"220 55 LINE",
"220 521 LINE",
"189 521 LINE",
"36 491 LINE",
"36 447 LINE",
"152 447 LINE",
"152 55 LINE",
"49 45 LINE",
"49 0 LINE"
);
}
);
width = 371;
},
{
layerId = "5be9d440-7da3-4849-9ff3-c66a194b28b9";
paths = (
{
closed = 1;
nodes = (
"427 0 LINE",
"427 69 LINE",
"320 88 LINE",
"320 521 LINE",
"224 521 LINE",
"53 491 LINE",
"53 410 LINE",
"164 410 LINE",
"164 88 LINE",
"57 69 LINE",
"57 0 LINE"
);
}
);
width = 446;
}
);
},
{
glyphname = two.osf;
layers = (
{
layerId = "4c090d2b-0954-42f9-b8fa-9b61004e66c3";
paths = (
{
closed = 1;
nodes = (
"470 0 LINE",
"470 133 LINE",
"432 133 LINE",
"413 67 LINE",
"143 67 LINE",
"143 73 LINE",
"208 123 LINE SMOOTH",
"345 228 OFFCURVE",
"408 283 OFFCURVE",
"408 375 CURVE SMOOTH",
"408 472 OFFCURVE",
"348 526 OFFCURVE",
"244 526 CURVE SMOOTH",
"138 526 OFFCURVE",
"60 441 OFFCURVE",
"52 431 CURVE",
"68 411 LINE",
"74 416 OFFCURVE",
"128 455 OFFCURVE",
"209 455 CURVE SMOOTH",
"297 455 OFFCURVE",
"327 422 OFFCURVE",
"327 366 CURVE SMOOTH",
"327 305 OFFCURVE",
"314 271 OFFCURVE",
"188 169 CURVE SMOOTH",
"48 55 LINE",
"48 0 LINE"
);
}
);
width = 511;
},
{
layerId = "5be9d440-7da3-4849-9ff3-c66a194b28b9";
paths = (
{
closed = 1;
nodes = (
"465 0 LINE",
"465 203 LINE",
"392 203 LINE",
"363 100 LINE",
"211 100 LINE",
"211 106 LINE",
"304 171 LINE SMOOTH",
"387 228 OFFCURVE",
"443 280 OFFCURVE",
"443 385 CURVE SMOOTH",
"443 473 OFFCURVE",
"364 536 OFFCURVE",
"231 536 CURVE SMOOTH",
"115 536 OFFCURVE",
"26 447 OFFCURVE",
"17 437 CURVE",
"63 386 LINE",
"69 391 OFFCURVE",
"128 428 OFFCURVE",
"193 428 CURVE SMOOTH",
"262 428 OFFCURVE",
"282 393 OFFCURVE",
"282 352 CURVE SMOOTH",
"282 321 OFFCURVE",
"270 290 OFFCURVE",
"206 233 CURVE SMOOTH",
"25 71 LINE",
"25 0 LINE"
);
}
);
width = 511;
}
);
},
{
glyphname = three.osf;
layers = (
{
layerId = "4c090d2b-0954-42f9-b8fa-9b61004e66c3";
paths = (
{
closed = 1;
nodes = (
"266 -166 OFFCURVE",
"404 -96 OFFCURVE",
"404 68 CURVE SMOOTH",
"404 171 OFFCURVE",
"331 216 OFFCURVE",
"253 226 CURVE",
"253 235 LINE",
"298 258 OFFCURVE",
"361 310 OFFCURVE",
"361 388 CURVE SMOOTH",
"361 450 OFFCURVE",
"324 526 OFFCURVE",
"199 526 CURVE SMOOTH",
"98 526 OFFCURVE",
"29 449 OFFCURVE",
"22 440 CURVE",
"42 416 LINE",
"48 421 OFFCURVE",
"101 462 OFFCURVE",
"176 462 CURVE SMOOTH",
"245 462 OFFCURVE",
"285 427 OFFCURVE",
"285 374 CURVE SMOOTH",
"285 295 OFFCURVE",
"218 250 OFFCURVE",
"117 230 CURVE",
"117 205 LINE",
"136 181 LINE",
"168 181 LINE SMOOTH",
"253 181 OFFCURVE",
"327 137 OFFCURVE",
"327 52 CURVE SMOOTH",
"327 -88 OFFCURVE",
"217 -122 OFFCURVE",
"42 -122 CURVE",
"42 -159 LINE",
"66 -163 OFFCURVE",
"86 -166 OFFCURVE",
"115 -166 CURVE SMOOTH"
);
}
);
width = 459;
},
{
layerId = "5be9d440-7da3-4849-9ff3-c66a194b28b9";
paths = (
{
closed = 1;
nodes = (
"309 -166 OFFCURVE",
"436 -92 OFFCURVE",
"436 68 CURVE SMOOTH",
"436 171 OFFCURVE",
"368 216 OFFCURVE",
"282 226 CURVE",
"282 235 LINE",
"340 258 OFFCURVE",
"394 310 OFFCURVE",
"394 388 CURVE SMOOTH",
"394 456 OFFCURVE",
"348 536 OFFCURVE",
"213 536 CURVE SMOOTH",
"74 536 OFFCURVE",
"14 440 OFFCURVE",
"8 429 CURVE",
"48 389 LINE",
"52 393 OFFCURVE",
"93 432 OFFCURVE",
"158 432 CURVE SMOOTH",
"216 432 OFFCURVE",
"234 407 OFFCURVE",
"234 364 CURVE SMOOTH",
"234 302 OFFCURVE",
"193 264 OFFCURVE",
"101 246 CURVE",
"101 205 LINE",
"120 165 LINE",
"150 165 LINE SMOOTH",
"234 165 OFFCURVE",
"274 126 OFFCURVE",
"274 52 CURVE SMOOTH",
"274 -62 OFFCURVE",
"218 -99 OFFCURVE",
"26 -99 CURVE",
"26 -159 LINE",
"38 -161 OFFCURVE",
"71 -166 OFFCURVE",
"115 -166 CURVE SMOOTH"
);
}
);
width = 460;
}
);
},
{
glyphname = four.osf;
layers = (
{
layerId = "4c090d2b-0954-42f9-b8fa-9b61004e66c3";
paths = (
{
closed = 1;
nodes = (
"370 -164 LINE",
"370 37 LINE",
"465 37 LINE",
"465 90 LINE",
"370 90 LINE",
"370 513 LINE",
"331 534 LINE",
"12 84 LINE",
"32 37 LINE",
"306 37 LINE",
"306 -164 LINE"
);
},
{
closed = 1;
nodes = (
"78 97 LINE",
"300 407 LINE",
"306 416 LINE",
"306 410 LINE",
"306 403 LINE",
"306 90 LINE",
"78 90 LINE"
);
}
);
width = 506;
},
{
layerId = "5be9d440-7da3-4849-9ff3-c66a194b28b9";
paths = (
{
closed = 1;
nodes = (
"439 -164 LINE",
"439 0 LINE",
"513 0 LINE",
"513 106 LINE",
"439 106 LINE",
"439 513 LINE",
"325 534 LINE",
"1 84 LINE",
"42 0 LINE",
"287 0 LINE",
"287 -164 LINE"
);
},
{
closed = 1;
nodes = (
"138 117 LINE",
"281 309 LINE",
"286 325 LINE",
"291 325 LINE",
"287 310 LINE",
"287 106 LINE",
"138 106 LINE"
);
}
);
width = 524;
}
);
},
{
glyphname = five.osf;
layers = (
{
layerId = "4c090d2b-0954-42f9-b8fa-9b61004e66c3";
paths = (
{
closed = 1;
nodes = (
"274 -166 OFFCURVE",
"380 -67 OFFCURVE",
"380 77 CURVE SMOOTH",
"380 249 OFFCURVE",
"188 272 OFFCURVE",
"94 272 CURVE",
"108 453 LINE",
"354 453 LINE",
"354 553 LINE",
"317 553 LINE",
"307 519 LINE",
"67 519 LINE",
"40 223 LINE",
"204 223 OFFCURVE",
"298 182 OFFCURVE",
"298 44 CURVE SMOOTH",
"298 -57 OFFCURVE",
"227 -122 OFFCURVE",
"23 -122 CURVE",
"23 -159 LINE",
"26 -160 OFFCURVE",
"48 -166 OFFCURVE",
"98 -166 CURVE SMOOTH"
);
}
);
width = 431;
},
{
layerId = "5be9d440-7da3-4849-9ff3-c66a194b28b9";
paths = (
{
closed = 1;
nodes = (
"282 -166 OFFCURVE",
"449 -105 OFFCURVE",
"449 82 CURVE SMOOTH",
"449 212 OFFCURVE",
"366 277 OFFCURVE",
"170 282 CURVE",
"178 395 LINE",
"434 395 LINE",
"434 577 LINE",
"354 577 LINE",
"336 519 LINE",
"81 519 LINE",
"58 183 LINE",
"227 183 OFFCURVE",
"292 142 OFFCURVE",
"292 69 CURVE SMOOTH",
"292 -56 OFFCURVE",
"209 -99 OFFCURVE",
"34 -99 CURVE",
"34 -159 LINE",
"38 -160 OFFCURVE",
"75 -166 OFFCURVE",
"123 -166 CURVE SMOOTH"
);
}
);
width = 481;
}
);
},
{
glyphname = six.osf;
layers = (
{
layerId = "4c090d2b-0954-42f9-b8fa-9b61004e66c3";
paths = (
{
closed = 1;
nodes = (
"350 -9 OFFCURVE",
"453 53 OFFCURVE",
"453 214 CURVE SMOOTH",
"453 298 OFFCURVE",
"397 391 OFFCURVE",
"291 391 CURVE SMOOTH",
"207 391 OFFCURVE",
"134 345 OFFCURVE",
"126 340 CURVE",
"143 487 OFFCURVE",
"252 601 OFFCURVE",
"411 621 CURVE",
"411 657 LINE",
"213 657 OFFCURVE",
"40 511 OFFCURVE",
"40 242 CURVE SMOOTH",
"40 60 OFFCURVE",
"133 -9 OFFCURVE",
"249 -9 CURVE SMOOTH"
);
},
{
closed = 1;
nodes = (
"147 46 OFFCURVE",
"120 97 OFFCURVE",
"120 270 CURVE SMOOTH",
"120 273 OFFCURVE",
"121 301 OFFCURVE",
"123 315 CURVE",
"130 319 OFFCURVE",
"191 331 OFFCURVE",
"253 331 CURVE SMOOTH",
"307 331 OFFCURVE",
"377 301 OFFCURVE",
"377 213 CURVE SMOOTH",
"377 95 OFFCURVE",
"347 46 OFFCURVE",
"254 46 CURVE SMOOTH"
);
}
);
width = 486;
},
{
layerId = "5be9d440-7da3-4849-9ff3-c66a194b28b9";
paths = (
{
closed = 1;
nodes = (
"411 -17 OFFCURVE",
"525 53 OFFCURVE",
"525 214 CURVE SMOOTH",
"525 358 OFFCURVE",
"467 423 OFFCURVE",
"357 423 CURVE SMOOTH",
"261 423 OFFCURVE",
"223 386 OFFCURVE",
"220 383 CURVE",
"247 491 OFFCURVE",
"304 565 OFFCURVE",
"477 597 CURVE",
"477 657 LINE",
"244 657 OFFCURVE",
"46 508 OFFCURVE",
"46 242 CURVE SMOOTH",
"46 60 OFFCURVE",
"137 -17 OFFCURVE",
"286 -17 CURVE SMOOTH"
);
},
{
closed = 1;
nodes = (
"235 83 OFFCURVE",
"219 122 OFFCURVE",
"219 233 CURVE SMOOTH",
"219 271 OFFCURVE",
"220 296 OFFCURVE",
"221 301 CURVE",
"224 302 OFFCURVE",
"244 308 OFFCURVE",
"280 308 CURVE SMOOTH",
"337 308 OFFCURVE",
"366 288 OFFCURVE",
"366 213 CURVE SMOOTH",
"366 118 OFFCURVE",
"347 83 OFFCURVE",
"291 83 CURVE SMOOTH"
);
}
);
width = 561;
}
);
},
{
glyphname = seven.osf;
layers = (
{
layerId = "4c090d2b-0954-42f9-b8fa-9b61004e66c3";
paths = (
{
closed = 1;
nodes = (
"161 -164 LINE",
"407 454 LINE",
"407 521 LINE",
"21 521 LINE",
"31 375 LINE",
"80 375 LINE",
"87 454 LINE",
"354 454 LINE",
"354 439 LINE",
"79 -164 LINE"
);
}
);
width = 427;
},
{
layerId = "5be9d440-7da3-4849-9ff3-c66a194b28b9";
paths = (
{
closed = 1;
nodes = (
"204 -164 LINE",
"467 397 LINE",
"467 521 LINE",
"13 521 LINE",
"11 322 LINE",
"93 322 LINE",
"107 397 LINE",
"332 397 LINE",
"332 369 LINE",
"39 -164 LINE"
);
}
);
width = 469;
}
);
},
{
glyphname = eight.osf;
layers = (
{
layerId = "4c090d2b-0954-42f9-b8fa-9b61004e66c3";
paths = (
{
closed = 1;
nodes = (
"388 -9 OFFCURVE",
"430 94 OFFCURVE",
"430 169 CURVE SMOOTH",
"430 256 OFFCURVE",
"380 305 OFFCURVE",
"301 346 CURVE",
"360 379 OFFCURVE",
"410 437 OFFCURVE",
"410 512 CURVE SMOOTH",
"410 606 OFFCURVE",
"356 668 OFFCURVE",
"238 668 CURVE SMOOTH",
"136 668 OFFCURVE",
"57 589 OFFCURVE",
"57 497 CURVE SMOOTH",
"57 427 OFFCURVE",
"81 369 OFFCURVE",
"169 326 CURVE",
"100 291 OFFCURVE",
"42 227 OFFCURVE",
"42 149 CURVE SMOOTH",
"42 53 OFFCURVE",
"110 -9 OFFCURVE",
"229 -9 CURVE SMOOTH"
);
},
{
closed = 1;
nodes = (
"146 48 OFFCURVE",
"112 88 OFFCURVE",
"112 170 CURVE SMOOTH",
"112 211 OFFCURVE",
"146 267 OFFCURVE",
"219 306 CURVE",
"233 302 LINE SMOOTH",
"312 279 OFFCURVE",
"360 233 OFFCURVE",
"360 166 CURVE SMOOTH",
"360 90 OFFCURVE",
"319 48 OFFCURVE",
"236 48 CURVE SMOOTH"
);
},
{
closed = 1;
nodes = (
"227 379 LINE SMOOTH",
"156 409 OFFCURVE",
"122 444 OFFCURVE",
"122 503 CURVE SMOOTH",
"122 566 OFFCURVE",
"147 608 OFFCURVE",
"229 608 CURVE SMOOTH",
"306 608 OFFCURVE",
"346 573 OFFCURVE",
"346 491 CURVE SMOOTH",
"346 428 OFFCURVE",
"309 401 OFFCURVE",
"255 367 CURVE"
);
}
);
width = 471;
},
{
layerId = "5be9d440-7da3-4849-9ff3-c66a194b28b9";
paths = (
{
closed = 1;
nodes = (
"338 -15 OFFCURVE",
"488 20 OFFCURVE",
"488 196 CURVE SMOOTH",
"488 281 OFFCURVE",
"441 329 OFFCURVE",
"377 366 CURVE",
"427 400 OFFCURVE",
"464 442 OFFCURVE",
"464 511 CURVE SMOOTH",
"464 612 OFFCURVE",
"388 672 OFFCURVE",
"272 672 CURVE SMOOTH",
"138 672 OFFCURVE",
"49 590 OFFCURVE",
"49 472 CURVE SMOOTH",
"49 387 OFFCURVE",
"98 337 OFFCURVE",
"144 310 CURVE",
"85 271 OFFCURVE",
"40 217 OFFCURVE",
"40 141 CURVE SMOOTH",
"40 67 OFFCURVE",
"88 -15 OFFCURVE",
"253 -15 CURVE SMOOTH"
);
},
{
closed = 1;
nodes = (
"196 71 OFFCURVE",
"170 113 OFFCURVE",
"170 151 CURVE SMOOTH",
"170 207 OFFCURVE",
"180 235 OFFCURVE",
"222 272 CURVE",
"259 255 LINE SMOOTH",
"325 225 OFFCURVE",
"347 204 OFFCURVE",
"347 161 CURVE SMOOTH",
"347 110 OFFCURVE",
"326 71 OFFCURVE",
"260 71 CURVE SMOOTH"
);
},
{
closed = 1;
nodes = (
"290 410 LINE SMOOTH",
"220 440 OFFCURVE",
"197 468 OFFCURVE",
"197 519 CURVE SMOOTH",
"197 553 OFFCURVE",
"219 578 OFFCURVE",
"270 578 CURVE SMOOTH",
"323 578 OFFCURVE",
"341 544 OFFCURVE",
"341 504 CURVE SMOOTH",
"341 456 OFFCURVE",
"327 428 OFFCURVE",
"304 404 CURVE"
);
}
);
width = 527;
}
);
},
